<?xml version="1.0" encoding="utf-8"?>
<!-- Generator: Adobe Illustrator 16.0.0, SVG Export Plug-In . SVG Version: 6.00 Build 0)  -->
<!DOCTYPE svg PUBLIC "-//W3C//DTD SVG 1.1//EN" "http://www.w3.org/Graphics/SVG/1.1/DTD/svg11.dtd">
<svg version="1.1" id="Layer_1" xmlns="http://www.w3.org/2000/svg" xmlns:xlink="http://www.w3.org/1999/xlink" x="0px" y="0px"
	 width="819.857px" height="828.308px" viewBox="0 0 819.857 828.308" enable-background="new 0 0 819.857 828.308"
	 xml:space="preserve">
<path opacity="0.3" fill="none" stroke="#959595" stroke-width="12" stroke-miterlimit="10" d="M760.575,393.804
	c0,162.704-131.899,294.605-294.607,294.605c-162.707,0-294.607-131.901-294.607-294.605c0-162.709,131.9-294.609,294.607-294.609
	C628.676,99.195,760.575,231.095,760.575,393.804z"/>
<circle opacity="0.2" fill="#959595" cx="215.432" cy="305.944" r="161.5"/>
<ellipse opacity="0.2" fill="#959595" cx="591.326" cy="390.697" rx="100.197" ry="98.452"/>
<circle opacity="0.2" fill="#959595" cx="389.948" cy="627.458" r="127.985"/>
<circle opacity="0.2" fill="#959595" cx="240.421" cy="526.884" r="126.06"/>
<rect x="212.525" y="184.444" fill="none" width="98.874" height="44"/>
<text transform="matrix(0.98 0 0 1 212.5254 192.6943)"><tspan x="0" y="0" font-family="'Roboto-Regular'" font-size="11">Asked social recom</tspan><tspan x="96.148" y="0" font-family="'Roboto-Regular'" font-size="11">-</tspan><tspan x="0" y="14" font-family="'Roboto-Regular'" font-size="11">mendation for other </tspan><tspan x="0" y="28" font-family="'Roboto-Regular'" font-size="11">students</tspan></text>
<g>
	<g>
		<rect x="357" y="392.445" fill="none" width="144.038" height="82.86"/>
		<text transform="matrix(0.98 0 0 1 357 400.6948)"><tspan x="0" y="0" fill="#FF4940" font-family="'Roboto-Regular'" font-size="11">How to make students to </tspan><tspan x="0" y="14" fill="#FF4940" font-family="'Roboto-Regular'" font-size="11">actively utilize the library as </tspan><tspan x="0" y="28" fill="#FF4940" font-family="'Roboto-Regular'" font-size="11">resources by integrating </tspan><tspan x="0" y="42" fill="#FF4940" font-family="'Roboto-Regular'" font-size="11">library management system.</tspan></text>
	</g>
</g>
<rect x="243" y="316.444" fill="none" width="108.904" height="30"/>
<text transform="matrix(0.98 0 0 1 243 324.6943)"><tspan x="0" y="0" font-family="'Roboto-Regular'" font-size="11">Easy to find library </tspan><tspan x="0" y="14" font-family="'Roboto-Regular'" font-size="11">information</tspan></text>
<rect x="357" y="162.444" fill="none" width="345.078" height="16"/>
<text transform="matrix(0.98 0 0 1 357 170.6943)" font-family="'Roboto-Regular'" font-size="11">Automatic update when the new item was added to the library.</text>
<rect x="357" y="178.444" fill="none" width="262" height="16"/>
<text transform="matrix(0.98 0 0 1 357 186.6943)" font-family="'Roboto-Regular'" font-size="11">Provides access to resources that the school has.</text>
<rect x="357" y="194.444" fill="none" width="303.998" height="16"/>
<text transform="matrix(0.98 0 0 1 357 202.6943)" font-family="'Roboto-Regular'" font-size="11">Inform students of school resources and data libraries.</text>
<rect x="531" y="369.445" fill="none" width="136.417" height="41"/>
<text transform="matrix(0.98 0 0 1 531 377.6948)"><tspan x="0" y="0" font-family="'Roboto-Regular'" font-size="11">Recommend students to </tspan><tspan x="0" y="14" font-family="'Roboto-Regular'" font-size="11">access nearby libraries and </tspan><tspan x="0" y="28" font-family="'Roboto-Regular'" font-size="11">their items</tspan></text>
<rect x="95" y="254.466" fill="none" width="176" height="16"/>
<text transform="matrix(0.98 0 0 1 95 262.7158)" font-family="'Roboto-Regular'" font-size="11">Aware of Advantages and events</text>
<rect x="95" y="302.444" fill="none" width="176" height="16"/>
<text transform="matrix(0.98 0 0 1 95 310.6943)" font-family="'Roboto-Regular'" font-size="11">Informed with new items</text>
<rect x="95" y="318.444" fill="none" width="76" height="32"/>
<text transform="matrix(0.98 0 0 1 95 326.6943)"><tspan x="0" y="0" font-family="'Roboto-Regular'" font-size="11">Know how to </tspan><tspan x="0" y="14" font-family="'Roboto-Regular'" font-size="11">host an event</tspan></text>
<rect x="279" y="564.445" fill="none" width="83.981" height="42.354"/>
<text transform="matrix(0.98 0 0 1 279 572.6948)"><tspan x="0" y="0" font-family="'Roboto-Regular'" font-size="11">Items are easily </tspan><tspan x="0" y="14" font-family="'Roboto-Regular'" font-size="11">kept in right </tspan><tspan x="0" y="28" font-family="'Roboto-Regular'" font-size="11">order</tspan></text>
<rect x="190" y="418.445" fill="none" width="88" height="38"/>
<text transform="matrix(0.98 0 0 1 190 426.6948)"><tspan x="0" y="0" font-family="'Roboto-Regular'" font-size="11">Help students </tspan><tspan x="0" y="14" font-family="'Roboto-Regular'" font-size="11">creating events in </tspan><tspan x="0" y="28" font-family="'Roboto-Regular'" font-size="11">the library</tspan></text>
<rect x="95" y="270.444" fill="none" width="176" height="16"/>
<text transform="matrix(0.98 0 0 1 95 278.6943)" font-family="'Roboto-Regular'" font-size="11">Know where to request an order</text>
<rect x="95" y="286.444" fill="none" width="176" height="16"/>
<text transform="matrix(0.98 0 0 1 95 294.6938)" font-family="'Roboto-Regular'" font-size="11">Informed with upcoming events</text>
<rect x="575" y="571.445" fill="none" width="100" height="60"/>
<text transform="matrix(0.98 0 0 1 575 579.6948)"><tspan x="0" y="0" font-family="'Roboto-Regular'" font-size="11">Connecting Bookclip </tspan><tspan x="0" y="14" font-family="'Roboto-Regular'" font-size="11">to the existing library </tspan><tspan x="0" y="28" font-family="'Roboto-Regular'" font-size="11">system</tspan></text>
<rect x="347" y="586.445" fill="none" width="164.038" height="30"/>
<text transform="matrix(0.98 0 0 1 347 594.6948)"><tspan x="0" y="0" font-family="'Roboto-Regular'" font-size="11">Easily find and hand out when an </tspan><tspan x="0" y="14" font-family="'Roboto-Regular'" font-size="11">item was requested</tspan></text>
<rect x="347" y="616.445" fill="none" width="152" height="16"/>
<text transform="matrix(0.98 0 0 1 347 624.6948)" font-family="'Roboto-Regular'" font-size="11">Check in books on the spot</text>
<rect x="347" y="632.445" fill="none" width="152" height="16"/>
<text transform="matrix(0.98 0 0 1 347 640.6948)" font-family="'Roboto-Regular'" font-size="11">Keep on track of lost items</text>
<rect x="347" y="648.445" fill="none" width="143.627" height="28"/>
<text transform="matrix(0.98 0 0 1 347 656.6948)"><tspan x="0" y="0" font-family="'Roboto-Regular'" font-size="11">Accessible to check out the </tspan><tspan x="0" y="14" font-family="'Roboto-Regular'" font-size="11">frequency. (Dashboard)</tspan></text>
<polygon fill="none" stroke="#FF4940" stroke-linecap="round" stroke-linejoin="round" stroke-miterlimit="10" stroke-dasharray="3,4" points="
	323,374.687 383.545,515.111 545,347.777 "/>
<g>
	<path fill="#FFFFFF" d="M185,234.466c0,6.6-5.4,12-12,12h-66c-6.6,0-12-5.4-12-12v-6.021c0-6.6,5.4-12,12-12h66c6.6,0,12,5.4,12,12
		V234.466z"/>
	<path fill="none" stroke="#B0B0B0" stroke-width="2" stroke-miterlimit="10" d="M185,234.466c0,6.6-5.4,12-12,12h-66
		c-6.6,0-12-5.4-12-12v-6.021c0-6.6,5.4-12,12-12h66c6.6,0,12,5.4,12,12V234.466z"/>
</g>
<g>
	<path fill="#FFFFFF" d="M257,534.466c0,6.6-5.4,12-12,12h-66c-6.6,0-12-5.4-12-12v-6.021c0-6.6,5.4-12,12-12h66c6.6,0,12,5.4,12,12
		V534.466z"/>
	<path fill="none" stroke="#B0B0B0" stroke-width="2" stroke-miterlimit="10" d="M257,534.466c0,6.6-5.4,12-12,12h-66
		c-6.6,0-12-5.4-12-12v-6.021c0-6.6,5.4-12,12-12h66c6.6,0,12,5.4,12,12V534.466z"/>
</g>
<g>
	<path fill="#FFFFFF" d="M441,706.466c0,6.6-5.4,12-12,12h-67c-6.6,0-12-5.4-12-12v-6.021c0-6.6,5.4-12,12-12h67c6.6,0,12,5.4,12,12
		V706.466z"/>
	<path fill="none" stroke="#B0B0B0" stroke-width="2" stroke-miterlimit="10" d="M441,706.466c0,6.6-5.4,12-12,12h-67
		c-6.6,0-12-5.4-12-12v-6.021c0-6.6,5.4-12,12-12h67c6.6,0,12,5.4,12,12V706.466z"/>
</g>
<g>
	<path fill="#FFFFFF" d="M518,140.466c0,6.6-5.4,12-12,12h-94c-6.6,0-12-5.4-12-12v-6.021c0-6.6,5.4-12,12-12h94c6.6,0,12,5.4,12,12
		V140.466z"/>
	<path fill="none" stroke="#B0B0B0" stroke-width="2" stroke-miterlimit="10" d="M518,140.466c0,6.6-5.4,12-12,12h-94
		c-6.6,0-12-5.4-12-12v-6.021c0-6.6,5.4-12,12-12h94c6.6,0,12,5.4,12,12V140.466z"/>
</g>
<g>
	<path fill="#FFFFFF" d="M650.69,452.736c0,6.6-5.4,12-12,12H546c-6.6,0-12-5.4-12-12v-22.582c0-6.6,5.4-12,12-12h92.69
		c6.6,0,12,5.4,12,12V452.736z"/>
	<path fill="none" stroke="#B0B0B0" stroke-width="2" stroke-miterlimit="10" d="M650.69,452.736c0,6.6-5.4,12-12,12H546
		c-6.6,0-12-5.4-12-12v-22.582c0-6.6,5.4-12,12-12h92.69c6.6,0,12,5.4,12,12V452.736z"/>
</g>
<g>
	<path fill="#FFFFFF" d="M678,549.466c0,6.6-5.4,12-12,12h-78c-6.6,0-12-5.4-12-12v-6.021c0-6.6,5.4-12,12-12h78c6.6,0,12,5.4,12,12
		V549.466z"/>
	<path fill="none" stroke="#B0B0B0" stroke-width="2" stroke-miterlimit="10" d="M678,549.466c0,6.6-5.4,12-12,12h-78
		c-6.6,0-12-5.4-12-12v-6.021c0-6.6,5.4-12,12-12h78c6.6,0,12,5.4,12,12V549.466z"/>
</g>
<g>
	<rect x="99" y="226.444" fill="none" width="82" height="14.021"/>
	<text transform="matrix(0.98 0 0 1 112.3657 236.9443)" fill="#444444" font-family="'Roboto-Bold'" font-size="14">Students</text>
</g>
<g>
	<rect x="171" y="525.445" fill="none" width="82" height="14.021"/>
	<text transform="matrix(0.98 0 0 1 190.4785 535.9448)" fill="#444444" font-family="'Roboto-Bold'" font-size="14">Library</text>
</g>
<g>
	<rect x="355" y="697.445" fill="none" width="82" height="14.021"/>
	<text transform="matrix(0.98 0 0 1 368.5835 707.9448)" fill="#444444" font-family="'Roboto-Bold'" font-size="14">Librarian</text>
</g>
<g>
	<rect x="405" y="131.444" fill="none" width="105.999" height="14.021"/>
	<text transform="matrix(0.98 0 0 1 412.3076 141.9443)" fill="#444444" font-family="'Roboto-Bold'" font-size="14">Library system</text>
</g>
<g>
	<rect x="542" y="428.695" fill="none" width="100.998" height="27.5"/>
	<text transform="matrix(0.98 0 0 1 544.1807 439.1948)"><tspan x="0" y="0" fill="#444444" font-family="'Roboto-Bold'" font-size="14">Other libraries / </tspan><tspan x="17.73" y="14" fill="#444444" font-family="'Roboto-Bold'" font-size="14">Librarians</tspan></text>
</g>
<g>
	<rect x="584" y="541.445" fill="none" width="83" height="14.021"/>
	<text transform="matrix(0.98 0 0 1 584.6152 551.9448)" fill="#444444" font-family="'Roboto-Bold'" font-size="14">School staffs</text>
</g>
<g>
	<path fill="#FF4940" d="M377,371.218c0,6.627-5.373,12-12,12H231c-6.627,0-12-5.373-12-12v-6c0-6.627,5.373-12,12-12h134
		c6.627,0,12,5.373,12,12V371.218z"/>
</g>
<rect x="225" y="363.423" fill="none" width="151.932" height="18.021"/>
<text transform="matrix(0.98 0 0 1 225 373.9233)" fill="#FFFFFF" font-family="'Roboto-Bold'" font-size="14">Constant Accessibility</text>
<g>
	<path fill="#FF4940" d="M464,515.218c0,6.627-5.373,12-12,12H339c-6.627,0-12-5.373-12-12v-14c0-6.627,5.373-12,12-12h113
		c6.627,0,12,5.373,12,12V515.218z"/>
</g>
<rect x="338" y="495.711" fill="none" width="120.505" height="28.445"/>
<text transform="matrix(0.98 0 0 1 338 506.2114)"><tspan x="0" y="0" fill="#FFFFFF" font-family="'Roboto-Bold'" font-size="14">Build connections </tspan><tspan x="0" y="14" fill="#FFFFFF" font-family="'Roboto-Bold'" font-size="14">with students</tspan></text>
<g>
	<path fill="#FF4940" d="M644,350.218c0,6.627-5.373,12-12,12h-92c-6.627,0-12-5.373-12-12v-6c0-6.627,5.373-12,12-12h92
		c6.627,0,12,5.373,12,12V350.218z"/>
</g>
<rect x="537" y="342.423" fill="none" width="111.917" height="18.022"/>
<text transform="matrix(0.98 0 0 1 537 352.9229)" fill="#FFFFFF" font-family="'Roboto-Bold'" font-size="14">Online libraries</text>
<rect y="0.218" fill="none" width="820" height="828"/>
</svg>
