<svg xmlns="http://www.w3.org/2000/svg" width="520" height="520" viewBox="0 0 520 520"><g fill="none" fill-rule="evenodd" transform="translate(80 92)"><path fill="#716558" d="M148 158c-.4 0-1.3 0-1.6 1l-4.5 12.6-5.4-12.6c-.3-.7-.8-1-1.4-1-.6 0-1 .3-1.4 1l-5.3 12.6L124 159c-.2-.6-.8-1-1.5-1-.6 0-1 .2-1.4.6 0 .3-.3 1 0 1.6l5.5 16c.5 1.2 1 1.7 1.8 1.7 1 0 1.3-.7 1.8-2l5-11.7 5.3 12c.5 1 .8 1.5 1.7 1.5.7 0 1.2-.3 1.7-2l5.7-15.6c.2-.6.2-1 0-1.6-.4-.4-1-.7-1.5-.7zm13.3 1c-.3-.7-1-1-1.6-1-.6 0-1.2.3-1.6 1l-8 16.2c-.6 1 0 2 .6 2.4h.2l.5.2c.6 0 1.3-.2 1.7-1l1.3-2.7H165l1.4 2.8c.4.8 1 1 1.4 1 .6 0 1.3-.4 1.6-1 .2-.3.3-1 0-1.6l-8-16.3zm2 11.8h-7.5l4-8 3.5 8zm20.4-13H170c-1 0-1.6 1-1.6 1.7 0 .8.6 1.6 1.7 1.6h5.3v15c0 1.2 1 1.7 1.7 1.7.8 0 1.7-.5 1.7-1.7v-15h5c1 0 1.7-.7 1.7-1.5s-.6-1.6-1.7-1.6zm17.2 16.4h-9v-4.8h7.3c.7 0 1-.3 1.3-.6.3-.3.4-.7.4-1 0-1-.5-1.8-1.7-1.8H192v-4.8h8.4c1.2 0 1.7-1 1.7-1.7 0-.8-.4-1.6-1.6-1.6H190c-.8 0-1.5.5-1.5 1.5V176c0 .8.7 1.5 1.6 1.5H201c.6 0 1 0 1.4-.5.3-.3.5-.7.5-1 0-1-.7-1.8-1.8-1.8h-.2zm16.6-4.3l.3-.2c3-1.3 4-4.4 3.5-7-.5-2.2-2.4-5-6.2-5h-7.6c-1 0-1.5.8-1.5 1.6V176c0 1 .8 1.6 1.6 1.6 1 0 1.8-.6 1.8-1.7v-5.6h4l5.2 6.3c.5.7 1 1 1.5 1 .6 0 1.2-.5 1.5-1 .3-.6.3-1.3-.2-2l-4-4.8zm.8-6c0 1.8-1 3.5-3 3.5h-5.8V161h5.7c1.2 0 2 .5 2.4 1 .4.5.7 1.3.7 2zm33-6c-.3 0-1 0-1.5 1l-4.6 12.6L240 159c-.2-.7-.7-1-1.3-1-.6 0-1 .3-1.4 1l-5.3 12.6-4.4-12.5c-.3-.6-1-1-1.6-1-.6 0-1 .2-1.4.6-.2.3-.4 1-.2 1.6l5.6 16c.5 1.2 1 1.7 1.8 1.7 1 0 1.3-.7 1.8-2l5-11.7 5.2 12c.6 1 .8 1.5 1.7 1.5.8 0 1.2-.3 1.8-2l5.7-15.6c.2-.6 0-1-.2-1.6-.3-.4-.8-.7-1.4-.7zm14.5 0c-5 0-10.6 3-10.6 10 0 6.5 5 10 10 10h.6c5 0 10-3.5 10-10 0-6.6-5.2-10-10-10zm-.3 3c3.5 0 7 2.5 7 7 0 4.4-3.6 7-7 7s-7-2.6-7-7c0-4.5 3.6-7 7-7zm25.8 9l.2-.2c3-1.3 4-4.4 3.6-7-.5-2.2-2.4-5-6.2-5h-7.5c-1 0-1.5.8-1.5 1.6V176c0 1 .8 1.6 1.6 1.6 1 0 1.8-.6 1.8-1.7v-5.6h4l5.2 6.3c.5.7 1 1 1.5 1 .7 0 1.3-.5 1.6-1 .3-.6.3-1.3-.2-2l-4-4.8zm.7-6c0 1.8-1 3.5-3 3.5h-5.8V161h5.7c1.3 0 2 .5 2.5 1 .4.5.7 1.3.7 2zm16 2.7c.8-1 1.6-1.7 2.5-2.6l3-3.2c.3-.3.6-.7.6-1.2 0-.4 0-.8-.5-1.2-.7-.7-1.6-.7-2.4 0l-8.7 9v-7.8c0-1.2-.8-1.7-1.6-1.7-.7 0-1.6.4-1.6 1.6V176c0 1.2.8 1.7 1.6 1.7 1 0 1.7-.5 1.7-1.6v-4l2.8-3.2 6.7 8.3c.3.5.8.8 1.3.8.8 0 1.5-.4 1.8-1 0-.3.2-1-.3-1.7l-6.8-8.3zm18-.3c-3.2-.8-5.2-1.5-4.8-3.5.3-1.5 1.6-2.3 3.6-2.3 1.5 0 3.2.4 4.2 1 1 .7 2 .3 2.3-.6.2-.5 0-1-.7-1.6-1.3-1-3.3-1.5-5.4-1.5-3.3 0-6.8 1.4-7.2 4.7-.5 4 2.4 5.2 6.6 6.3 2.5.7 4.6 1.2 4.8 3-.2 2-1.6 3-4 3-1.7 0-4-.7-5.2-1.5-.2-.2-.6-.5-1-.5-.5 0-1 .3-1.2.6-.5.7-.5 1.8.3 2.4 1.5 1.2 4 2 6.6 2 3.8 0 7.8-1.6 8-6 0-3.7-3.7-4.7-7-5.6z"/><path fill="#A7DDE6" d="M68.8 178c-15.5 0-28 3.5-28 8 0 0 0 16-8 16-1 0-2 .8-2 2 0 1 1 2 2 2 9 0 9-16 18-16s9 16 18 16 9-16 18-16 9 16 18 16c1 0 2-1 2-2 0-1.2-1-2-2-2-8 0-8-16-8-16 0-4.5-12.5-8-28-8z"/><circle cx="68.8" cy="135.7" r="6" fill="#4BAFB8"/><circle cx="24.8" cy="141.9" r="4" fill="#4BAFB8"/><circle cx="112.8" cy="141.9" r="4" fill="#4BAFB8"/><path fill="#4BAFB8" d="M68.8 182c15.5 0 28-3.7 28-8 0 0 0-16 8-16 1 0 2-1 2-2 0-1.2-1-2-2-2-9 0-9 16-18 16s-9-16-18-16-9 16-18 16-9-16-18-16c-1 0-2 .8-2 2 0 1 1 2 2 2 8 0 8 16 8 16 0 4.3 12.5 8 28 8z"/><path stroke="#00ADEE" stroke-width=".3" d="M.8 130h360M.8 154h360m-360 4h360M.8 182h360m-360-4h360M.8 206h360m-24-82v86m-4-86v86m-212-86v86m-100-86v86m12-86v86m72-86v86m12-86v86"/><path fill="#716558" d="M148 29.4c-.5 0-1.3 0-1.7 1.2L142 43l-5.4-12.5c-.3-.7-1-1.2-1.4-1.2-.6 0-1.2.5-1.5 1.2L128.4 43 124 30.5c-.3-.8-.8-1.2-1.6-1.2-.5 0-1 .3-1.4.7-.2.4-.4 1 0 1.7l5.4 15.6c.5 1.3 1 1.8 1.8 1.8 1 0 1.3-.5 1.8-1.7l5-11.6 5.2 12c.6.8 1 1.3 1.7 1.3s1.2-.3 1.7-2l5.7-15.4c.2-.5 0-1-.2-1.5-.3-.3-.8-.6-1.3-.6zm13.2 1c-.3-.7-.8-1-1.5-1s-1.3.4-1.6 1l-8.2 16c-.5 1.2 0 2 .7 2.5h.8c.5 0 1.3-.2 1.6-1l1.2-2.6h11l1.2 2.6c.3.8 1 1 1.3 1 .7 0 1.3-.4 1.6-1 .2-.3.4-.8 0-1.5l-8-16zm2 11.7h-7.4l4-7.7L163 42zm20.4-12.6H170c-1 0-1.6 1-1.6 1.6 0 .8.5 1.7 1.6 1.7h5.3v14.7c0 1 .8 1.6 1.6 1.6s1.6-.5 1.6-1.6V32.7h5c1.2 0 1.7-1 1.7-1.7s-.5-1.6-1.7-1.6zm17.2 16.2h-9V41h7.5c.7 0 1-.4 1.3-.7.2-.3.4-.7.4-1 0-1-.6-1.8-1.7-1.8h-7.5v-4.7h8.5c1.2 0 1.8-1 1.8-1.7 0-.6-.5-1.5-1.7-1.5H190c-1 0-1.5.7-1.5 1.6v16.4c0 .8.6 1.5 1.5 1.5h10.8c.6 0 1-.3 1.4-.6.3-.3.4-.7.4-1 0-1-.6-1.8-1.8-1.8zm16.8-4.2h.3c3-1.4 4-4.4 3.4-7-.4-2.2-2.3-5-6-5h-7.8c-.8 0-1.5.8-1.5 1.6v16.3c0 1.2 1 1.7 1.8 1.7s1.7-.6 1.7-1.7V42h4l5.2 6c.6.8 1.2 1 1.6 1 .6 0 1.2-.4 1.5-1 .3-.5.2-1-.2-1.8l-4-4.8zm.8-5.7c0 1.6-1 3.3-3 3.3h-6v-6.5h6c1 0 1.8.6 2.2 1 .5.6.8 1.4.8 2.2zm33-6.3c-.3 0-1.2 0-1.5 1.2L245.3 43 240 30.4c-.2-.7-.7-1.2-1.3-1.2-.6 0-1.2.5-1.4 1.2L232 43l-4.5-12.4c-.2-.8-.8-1.2-1.5-1.2-.6 0-1 .3-1.4.7-.3.4-.5 1-.2 1.7l5.6 15.6c.4 1.3 1 1.8 1.7 1.8 1 0 1.4-.5 2-1.7l4.8-11.6 5.3 12c.5.8.8 1.3 1.7 1.3.7 0 1.2-.3 1.7-2l5.7-15.4c0-.5 0-1-.2-1.5-.3-.3-1-.6-1.4-.6zm14.5-.6c-5.2 0-10.7 3.2-10.7 10.3 0 6.7 5 10.2 10.2 10.2h.4c5 0 10-3.5 10-10 0-6.8-5.2-10.2-10-10.4zm-.4 3.3c3.5 0 7 2.5 7 7 0 4.7-3.6 7-7 7-3.3 0-7-2.3-7-7 0-4.5 3.7-7 7-7zm25.8 9.4h.3c3-1.4 4-4.4 3.5-7-.4-2.2-2.3-5-6-5h-7.8c-.8 0-1.5.8-1.5 1.6v16.3c0 1.2.8 1.7 1.6 1.7s1.7-.6 1.7-1.7V42h4l5.2 6c.6.8 1.2 1 1.6 1 .7 0 1.3-.4 1.6-1 .3-.5.2-1-.2-1.8l-4-4.8zm.8-5.7c0 1.6-1 3.3-3 3.3h-6v-6.5h6c1 0 1.8.6 2.2 1 .5.6.8 1.4.8 2.2zm16 2.4c.8-1 1.6-1.6 2.4-2.5 1-1 2.2-2.2 3-3.3.4-.2.7-.6.7-1.2 0-.4-.2-.7-.5-1-.8-.8-1.6-1-2.5 0l-8.6 8.8V31c0-1-.8-1.6-1.7-1.6-.8 0-1.7.5-1.7 1.6v16.4c0 1 1 1.6 1.7 1.6.8 0 1.7-.5 1.7-1.6v-4l2.8-3.2 6.7 8c.3.6.7.8 1.3.8.7 0 1.4-.4 1.7-1 .2-.3.3-1-.3-1.7l-7-8.2zm17.8-.5c-3-.8-5-1.5-4.7-3.6.3-1.6 1.6-2.5 3.7-2.5 1.4 0 3 .5 4.2 1.2.8.6 2 .3 2.2-.7.2-.6 0-1.3-.6-1.8-1.4-1-3.3-1.6-5.4-1.6-3.3 0-7 1.6-7.3 5-.3 4.3 2.6 5.4 6.7 6.6 2.5.7 4.7 1.3 4.8 3.3-.2 2-1.6 3-4 3-1.7 0-3.8-.7-5-1.6-.4-.3-.8-.6-1.2-.6-.5 0-.8.3-1 .6h-.2c-.3.8-.3 2 .5 2.5 1.5 1.3 4 2 6.5 2 3.7 0 7.7-1.6 7.8-6 .2-4-3.5-5-6.8-6z"/><path fill="#A7DDE6" d="M68.8 48.6c-15.5 0-28 3.6-28 8 0 0 0 16-8 16-1.2 0-2 1-2 2s.8 2 2 2c9 0 9-16 18-16s9 16 18 16 9-16 18-16 9 16 18 16c1 0 2-1 2-2s-1-2-2-2c-8 0-8-16-8-16 0-4.4-12.6-8-28-8z"/><circle cx="68.8" cy="6.4" r="6" fill="#4BAFB8"/><circle cx="24.8" cy="12.6" r="4" fill="#4BAFB8"/><circle cx="112.8" cy="12.6" r="4" fill="#4BAFB8"/><path fill="#4BAFB8" d="M68.8 52.6c15.4 0 28-3.6 28-8 0 0 0-16 8-16 1 0 2-1 2-2s-1-2-2-2c-9 0-9 16-18 16s-9-16-18-16-9 16-18 16-9-16-18-16c-1.2 0-2 1-2 2s.8 2 2 2c8 0 8 16 8 16 0 4.4 12.5 8 28 8z"/><path stroke="#00ADEE" stroke-width=".5" d="M.8 124h360v86H.8v-86z"/><path fill="#404041" d="M148 288.2c-.4 0-1.3 0-1.6 1l-4.5 12.5-5.4-12.4c-.3-.8-.8-1.2-1.4-1.2-.6 0-1 .6-1.4 1.3l-5.3 12.4-4.5-12.4c-.2-.7-.8-1-1.5-1-.6 0-1 .2-1.4.6 0 .2-.3.7 0 1.5l5.5 15.6c.5 1.4 1 2 1.8 2 1 0 1.3-.7 1.8-2l5-11.5 5.3 12c.5.8.8 1.3 1.7 1.3.7 0 1.2-.3 1.7-2l5.7-15.4c.2-.5.2-1 0-1.5-.4-.5-1-.8-1.5-.8zm13.3 1c-.3-.7-1-1-1.6-1-.6 0-1.2.3-1.6 1l-8 16c-.6 1.2 0 2 .6 2.4h.2l.5.2c.6 0 1.3-.2 1.7-1l1.3-2.6H165l1.4 2.6c.4.8 1 1 1.4 1 .6 0 1.3-.4 1.6-1 .2-.3.3-.8 0-1.5l-8-16zm2 11.7h-7.5l4-8 3.5 8zm20.4-12.8H170c-1 0-1.6 1-1.6 1.6 0 .8.6 1.6 1.7 1.6h5.3V306c0 1.3 1 1.8 1.7 1.8.8 0 1.7-.5 1.7-1.7v-14.6h5c1 0 1.7-.8 1.7-1.6s-.6-1.6-1.7-1.6zm17.2 16.2h-9v-4.8h7.3c.7 0 1-.2 1.3-.5.3-.2.4-.6.4-1 0-.8-.5-1.7-1.7-1.7H192v-4.7h8.4c1.2 0 1.7-1 1.7-1.7 0-1-.4-1.7-1.6-1.7H190c-.8 0-1.5.7-1.5 1.6v16c0 1 .7 1.7 1.6 1.7H201c.6 0 1-.2 1.4-.5.3-.3.5-.7.5-1 0-1-.7-1.8-1.8-1.8h-.2zm16.6-4.2h.3c3-1.4 4-4.4 3.5-7-.5-2.2-2.4-5-6.2-5h-7.6c-1 0-1.5.8-1.5 1.6V306c0 1.2.8 1.7 1.6 1.7 1 0 1.8-.5 1.8-1.6v-5.4h4l5.2 6.3c.5.6 1 .7 1.5.7.6 0 1.2-.3 1.5-.8.3-.7.3-1.4-.2-2l-4-4.8zm.8-5.7c0 1.6-1 3.3-3 3.3h-5.8v-6.5h5.7c1.2 0 2 .6 2.4 1 .4.6.7 1.4.7 2.2zm33-6.3c-.3 0-1 0-1.5 1l-4.6 12.5-5.3-12.4c-.2-.8-.7-1.2-1.3-1.2-.6 0-1 .6-1.4 1.3l-5.3 12.4-4.4-12.4c-.3-.7-1-1-1.6-1-.6 0-1 .2-1.4.6-.2.2-.4.7-.2 1.5L230 306c.5 1.4 1 2 1.8 2 1 0 1.3-.7 1.8-2l5-11.5 5.2 12c.6.8.8 1.3 1.7 1.3.8 0 1.2-.3 1.8-2l5.7-15.4c.2-.6 0-1-.2-1.5-.3-.5-.8-.8-1.4-.8zm14.5-.6c-5 0-10.6 3.2-10.6 10.3 0 6.5 5 10 10 10h.6c5 0 10-3.5 10-10 0-6.8-5.2-10.2-10-10.4zm-.3 3.3c3.5 0 7 2.3 7 7 0 4.4-3.6 7-7 7s-7-2.6-7-7c0-4.7 3.6-7 7-7zm25.8 9.2h.2c3-1.4 4-4.4 3.6-7-.5-2.2-2.4-5-6.2-5h-7.5c-1 0-1.5.8-1.5 1.6V306c0 1.2.8 1.7 1.6 1.7 1 0 1.8-.5 1.8-1.6v-5.4h4l5.2 6.3c.5.6 1 .8 1.5.8.7 0 1.3-.4 1.6-1 .3-.5.3-1.2-.2-1.8l-4-4.8zm.7-5.7c0 1.6-1 3.3-3 3.3h-5.8v-6.5h5.7c1.3 0 2 .6 2.5 1 .4.6.7 1.4.7 2.2zm16 2.4v-.3l2.5-2.4 3-3.3c.3-.3.6-.7.6-1.2 0-.4 0-.8-.5-1-.7-.8-1.6-1-2.4 0l-8.7 8.8v-7.8c0-1-.8-1.6-1.6-1.6-.7 0-1.6.5-1.6 1.6v16.4c0 1 .8 1.5 1.6 1.5 1 0 1.7-.5 1.7-1.5v-4l2.8-3.2 6.7 8c.3.5.8.8 1.3.8.8 0 1.5-.4 1.8-1 0-.3.2-1-.3-1.7l-6.8-8zm18-.7c-3.2-.8-5.2-1.5-4.8-3.7.3-1.5 1.6-2.3 3.6-2.3 1.5 0 3.2.5 4.2 1.2 1 .6 2 .2 2.3-.7.2-.6 0-1.3-.7-1.8-1.3-1-3.3-1.6-5.4-1.6-3.3 0-6.8 1.5-7.2 5-.5 4.3 2.4 5.4 6.6 6.6 2.5.7 4.6 1.3 4.8 3.2-.2 2-1.6 3-4 3-1.7 0-4-.6-5.2-1.5-.2-.3-.6-.5-1-.5-.5 0-1 .3-1.2.6-.5.8-.5 1.8.3 2.5 1.5 1.2 4 2 6.6 2 3.8 0 7.8-1.6 8-6 0-4-3.7-5-7-6z"/><path fill="#BBBDBF" d="M68.8 307.4c-15.5 0-28 3.5-28 8 0 0 0 16-8 16-1 0-2 1-2 2s1 2 2 2c9 0 9-16 18-16s9 16 18 16 9-16 18-16 9 16 18 16c1 0 2-1 2-2s-1-2-2-2c-8 0-8-16-8-16 0-4.5-12.5-8-28-8z"/><circle cx="68.8" cy="265.2" r="6" fill="#58595B"/><circle cx="24.8" cy="271.4" r="4" fill="#58595B"/><circle cx="112.8" cy="271.4" r="4" fill="#58595B"/><path fill="#58595B" d="M68.8 311.4c15.5 0 28-3.6 28-8 0 0 0-16 8-16 1 0 2-1 2-2s-1-2-2-2c-9 0-9 16-18 16s-9-16-18-16-9 16-18 16-9-16-18-16c-1 0-2 1-2 2s1 2 2 2c8 0 8 16 8 16 0 4.4 12.5 8 28 8z"/></g></svg>