<?xml version="1.0" encoding="UTF-8" standalone="no"?>
<svg width="100px" height="100px" viewBox="0 0 100 100" version="1.1" xmlns="http://www.w3.org/2000/svg" xmlns:xlink="http://www.w3.org/1999/xlink">
    <!-- Generator: Sketch 3.6.1 (26313) - http://www.bohemiancoding.com/sketch -->
    <title>svg3</title>
    <desc>Created with Sketch.</desc>
    <defs></defs>
    <g id="Page-4" stroke="none" stroke-width="1" fill="none" fill-rule="evenodd">
        <g id="svg3">
            <rect id="Rectangle-970-Copy-2" x="0" y="0" width="100" height="100"></rect>
            <path d="M24.1413668,48.1560484 C24.1413668,36.548091 35.6763388,27.1379822 49.9054479,27.1379822 C64.134557,27.1379822 75.669529,36.548091 75.669529,48.1560484 C75.669529,59.7640058 64.134557,69.1741145 49.9054479,69.1741145 C45.7433345,69.1741145 41.8117323,68.3689826 38.3319008,66.9392199 C34.3600301,70.189997 29.3268343,72.1461937 23.9125061,72.8620178 C27.6066462,70.0575872 29.8772448,66.3242159 31.2690965,62.6687692 C26.8532015,58.8959905 24.1413668,53.784373 24.1413668,48.1560484 Z" id="Combined-Shape-Copy-6" stroke="#A0A1A7" stroke-width="2" stroke-linecap="round" stroke-linejoin="round" fill="#FFFFFF"></path>
            <path d="M36.25,56.5 L56.25,56.5" id="Path-503-Copy-15" stroke="#BFC0C4" stroke-width="3" stroke-linecap="round" stroke-linejoin="round" fill="#FFFFFF"></path>
            <path d="M36.25,48.5 L63.75,48.5" id="Path-503-Copy-16" stroke="#BFC0C4" stroke-width="3" stroke-linecap="round" stroke-linejoin="round" fill="#FFFFFF"></path>
            <path d="M36.25,41.5 L63.75,41.5" id="Path-503-Copy-17" stroke="#BFC0C4" stroke-width="3" stroke-linecap="round" stroke-linejoin="round" fill="#FFFFFF"></path>
        </g>
    </g>
</svg>