<?xml version="1.0" encoding="UTF-8" standalone="no"?>
<svg width="100px" height="100px" viewBox="0 0 100 100" version="1.1" xmlns="http://www.w3.org/2000/svg" xmlns:xlink="http://www.w3.org/1999/xlink">
    <!-- Generator: Sketch 3.6.1 (26313) - http://www.bohemiancoding.com/sketch -->
    <title>svg5</title>
    <desc>Created with Sketch.</desc>
    <defs></defs>
    <g id="Page-4" stroke="none" stroke-width="1" fill="none" fill-rule="evenodd">
        <g id="svg5">
            <rect id="Rectangle-970-Copy-4" x="0" y="0" width="100" height="100"></rect>
            <path d="M49.8713235,74.21875 C49.8713235,74.21875 67.2426471,57.7556818 67.2426471,42.3713235 C67.2426471,32.7774065 59.4652406,25 49.8713235,25 C40.2774065,25 32.5,32.7774065 32.5,42.3713235 C32.5,57.7556818 49.8713235,74.21875 49.8713235,74.21875 Z" id="Oval-61-Copy-6" stroke="#A0A1A7" stroke-width="2" stroke-linecap="round" stroke-linejoin="round" fill="#FFFFFF"></path>
            <path d="M50.3412925,52.2733394 C55.7389588,52.0848487 59.9618301,47.5563738 59.7733394,42.1587075 C59.5848487,36.7610412 55.0563738,32.5381699 49.6587075,32.7266606 C44.2610412,32.9151513 40.0381699,37.4436262 40.2266606,42.8412925 C40.4151513,48.2389588 44.9436262,52.4618301 50.3412925,52.2733394 L50.3412925,52.2733394 Z" id="Oval-61-Copy-8" stroke="#BFC0C4" stroke-width="3" stroke-linecap="round" stroke-linejoin="round" fill="#FFFFFF"></path>
        </g>
    </g>
</svg>