<?xml version="1.0" encoding="UTF-8" standalone="no"?>
<svg width="100px" height="100px" viewBox="0 0 100 100" version="1.1" xmlns="http://www.w3.org/2000/svg" xmlns:xlink="http://www.w3.org/1999/xlink">
    <!-- Generator: Sketch 3.6.1 (26313) - http://www.bohemiancoding.com/sketch -->
    <title>svg6</title>
    <desc>Created with Sketch.</desc>
    <defs></defs>
    <g id="Page-4" stroke="none" stroke-width="1" fill="none" fill-rule="evenodd">
        <g id="svg6">
            <rect id="Rectangle-970-Copy-5" x="0" y="0" width="100" height="100"></rect>
            <path d="M15.3256226,75.7400513 C18.760376,75.7400513 24.8997126,74.5474182 29.2891598,67.421875 L64.7661396,67.421875 C66.7169857,67.421875 68.28125,65.8548371 68.28125,63.9217979 L68.28125,51.0000771 C68.28125,49.06388 66.7074814,47.5 64.7661396,47.5 L16.0151104,47.5 C14.0642643,47.5 12.5,49.0670379 12.5,51.0000771 L12.5,63.9217979 C12.5,65.857995 14.0737686,67.421875 16.0151104,67.421875 L20.7915709,67.421875 C19.3819427,71.754414 17.6687622,73.6035156 15.3256226,75.7400513 Z" id="Combined-Shape-Copy-8" stroke="#A0A1A7" stroke-width="2" stroke-linecap="round" stroke-linejoin="round" fill="#FFFFFF"></path>
            <path d="M22.5,57.5 L43.5,57.5" id="Path-503-Copy-30" stroke="#BFC0C4" stroke-width="3" stroke-linecap="round" stroke-linejoin="round" fill="#FFFFFF"></path>
            <path d="M48.5,57.5 L54.75,57.5" id="Path-503-Copy-30" stroke="#BFC0C4" stroke-width="3" stroke-linecap="round" stroke-linejoin="round" fill="#FFFFFF"></path>
            <path d="M34.7006226,51.9900513 C38.135376,51.9900513 44.2747126,50.7974182 48.6641598,43.671875 L84.1411396,43.671875 C86.0919857,43.671875 87.65625,42.1048371 87.65625,40.1717979 L87.65625,27.2500771 C87.65625,25.31388 86.0824814,23.75 84.1411396,23.75 L35.3901104,23.75 C33.4392643,23.75 31.875,25.3170379 31.875,27.2500771 L31.875,40.1717979 C31.875,42.107995 33.4487686,43.671875 35.3901104,43.671875 L40.1665709,43.671875 C38.7569427,48.004414 37.0437622,49.8535156 34.7006226,51.9900513 Z" id="Combined-Shape-Copy-8" stroke="#A0A1A7" stroke-width="2" stroke-linecap="round" stroke-linejoin="round" fill="#FFFFFF" transform="translate(59.765625, 37.870026) scale(-1, 1) translate(-59.765625, -37.870026) "></path>
            <path d="M41.875,33.5 L77.875,33.5" id="Path-503-Copy-30" stroke="#BFC0C4" stroke-width="3" stroke-linecap="round" stroke-linejoin="round" fill="#FFFFFF" transform="translate(59.875000, 33.500000) scale(-1, 1) translate(-59.875000, -33.500000) "></path>
        </g>
    </g>
</svg>