<?xml version="1.0" encoding="UTF-8" standalone="no"?>
<svg width="200px" height="200px" viewBox="0 0 200 200" version="1.1" xmlns="http://www.w3.org/2000/svg" xmlns:xlink="http://www.w3.org/1999/xlink">
    <!-- Generator: Sketch 3.6.1 (26313) - http://www.bohemiancoding.com/sketch -->
    <title>wd-chart2</title>
    <desc>Created with Sketch.</desc>
    <defs></defs>
    <g id="Page-4" stroke="none" stroke-width="1" fill="none" fill-rule="evenodd">
        <g id="wd-chart2">
            <circle id="Oval-141" stroke="#BFC0C4" fill="#F5F5F6" cx="100" cy="100" r="75"></circle>
            <path d="M140.855885,162.905586 C161.409795,149.528886 175,126.351524 175,100 C175,58.5786438 141.421356,25 100,25 L100,100 L100,100 L140.847928,162.900293 L140.855885,162.905583 Z" id="Combined-Shape" fill="#BA4B56"></path>
            <circle id="Oval-141" stroke="#BFC0C4" fill="#FFFFFF" cx="100" cy="100" r="60"></circle>
            <path d="M79.58,103.1 L83.22,103.1 L83.22,105.96 C83.22,106.226668 83.1333342,106.456666 82.96,106.65 C82.7866658,106.843334 82.533335,106.94 82.2,106.94 L79.58,106.94 L79.58,114 L75.26,114 L75.26,106.94 L63.06,106.94 C62.726665,106.94 62.4333346,106.836668 62.18,106.63 C61.9266654,106.423332 61.766667,106.166668 61.7,105.86 L61.2,103.36 L74.9,85.06 L79.58,85.06 L79.58,103.1 Z M75.26,93.64 C75.26,93.2133312 75.2733332,92.7533358 75.3,92.26 C75.3266668,91.7666642 75.373333,91.253336 75.44,90.72 L66.46,103.1 L75.26,103.1 L75.26,93.64 Z M89.32,110.3 L95.18,110.3 L95.18,93.44 C95.18,92.7866634 95.1999998,92.1000036 95.24,91.38 L91.08,94.86 C90.9066658,95.0066674 90.7300009,95.1066664 90.55,95.16 C90.3699991,95.2133336 90.1933342,95.24 90.02,95.24 C89.753332,95.24 89.5100011,95.1833339 89.29,95.07 C89.0699989,94.9566661 88.9066672,94.8266674 88.8,94.68 L87.24,92.54 L96.06,85.04 L100.12,85.04 L100.12,110.3 L105.32,110.3 L105.32,114 L89.32,114 L89.32,110.3 Z M121.72,92.08 C121.72,93.1733388 121.536668,94.1599956 121.17,95.04 C120.803331,95.9200044 120.313336,96.6699969 119.7,97.29 C119.086664,97.9100031 118.373337,98.386665 117.56,98.72 C116.746663,99.053335 115.900004,99.22 115.02,99.22 C114.059995,99.22 113.173337,99.053335 112.36,98.72 C111.546663,98.386665 110.843336,97.9100031 110.25,97.29 C109.656664,96.6699969 109.193335,95.9200044 108.86,95.04 C108.526665,94.1599956 108.36,93.1733388 108.36,92.08 C108.36,90.9599944 108.526665,89.9466712 108.86,89.04 C109.193335,88.1333288 109.656664,87.3666698 110.25,86.74 C110.843336,86.1133302 111.546663,85.6300017 112.36,85.29 C113.173337,84.9499983 114.059995,84.78 115.02,84.78 C115.980005,84.78 116.869996,84.9499983 117.69,85.29 C118.510004,85.6300017 119.219997,86.1133302 119.82,86.74 C120.420003,87.3666698 120.886665,88.1333288 121.22,89.04 C121.553335,89.9466712 121.72,90.9599944 121.72,92.08 L121.72,92.08 Z M117.9,92.08 C117.9,91.3066628 117.826667,90.6600026 117.68,90.14 C117.533333,89.6199974 117.330001,89.2000016 117.07,88.88 C116.809999,88.5599984 116.503335,88.3300007 116.15,88.19 C115.796665,88.0499993 115.420002,87.98 115.02,87.98 C114.619998,87.98 114.246668,88.0499993 113.9,88.19 C113.553332,88.3300007 113.253335,88.5599984 113,88.88 C112.746665,89.2000016 112.550001,89.6199974 112.41,90.14 C112.269999,90.6600026 112.2,91.3066628 112.2,92.08 C112.2,92.8266704 112.269999,93.4499975 112.41,93.95 C112.550001,94.4500025 112.746665,94.8533318 113,95.16 C113.253335,95.4666682 113.553332,95.686666 113.9,95.82 C114.246668,95.953334 114.619998,96.02 115.02,96.02 C115.420002,96.02 115.796665,95.953334 116.15,95.82 C116.503335,95.686666 116.809999,95.4666682 117.07,95.16 C117.330001,94.8533318 117.533333,94.4500025 117.68,93.95 C117.826667,93.4499975 117.9,92.8266704 117.9,92.08 L117.9,92.08 Z M131.34,85.86 C131.500001,85.659999 131.699999,85.4800008 131.94,85.32 C132.180001,85.1599992 132.513331,85.08 132.94,85.08 L136.52,85.08 L115.04,113.26 C114.879999,113.473334 114.676668,113.649999 114.43,113.79 C114.183332,113.930001 113.886668,114 113.54,114 L109.86,114 L131.34,85.86 Z M138.04,107.2 C138.04,108.293339 137.856669,109.279996 137.49,110.16 C137.123332,111.040004 136.633336,111.789997 136.02,112.41 C135.406664,113.030003 134.693337,113.509998 133.88,113.85 C133.066663,114.190002 132.220004,114.36 131.34,114.36 C130.379995,114.36 129.493337,114.190002 128.68,113.85 C127.866663,113.509998 127.163336,113.030003 126.57,112.41 C125.976664,111.789997 125.513335,111.040004 125.18,110.16 C124.846665,109.279996 124.68,108.293339 124.68,107.2 C124.68,106.079994 124.846665,105.066671 125.18,104.16 C125.513335,103.253329 125.976664,102.48667 126.57,101.86 C127.163336,101.23333 127.866663,100.750002 128.68,100.41 C129.493337,100.069998 130.379995,99.9 131.34,99.9 C132.300005,99.9 133.189996,100.069998 134.01,100.41 C134.830004,100.750002 135.539997,101.23333 136.14,101.86 C136.740003,102.48667 137.206665,103.253329 137.54,104.16 C137.873335,105.066671 138.04,106.079994 138.04,107.2 L138.04,107.2 Z M134.24,107.2 C134.24,106.426663 134.163334,105.780003 134.01,105.26 C133.856666,104.739997 133.650001,104.320002 133.39,104 C133.129999,103.679998 132.823335,103.450001 132.47,103.31 C132.116665,103.169999 131.740002,103.1 131.34,103.1 C130.939998,103.1 130.566668,103.169999 130.22,103.31 C129.873332,103.450001 129.576668,103.679998 129.33,104 C129.083332,104.320002 128.886667,104.739997 128.74,105.26 C128.593333,105.780003 128.52,106.426663 128.52,107.2 C128.52,107.94667 128.593333,108.573331 128.74,109.08 C128.886667,109.586669 129.083332,109.993332 129.33,110.3 C129.576668,110.606668 129.873332,110.826666 130.22,110.96 C130.566668,111.093334 130.939998,111.16 131.34,111.16 C131.740002,111.16 132.116665,111.093334 132.47,110.96 C132.823335,110.826666 133.129999,110.606668 133.39,110.3 C133.650001,109.993332 133.856666,109.586669 134.01,109.08 C134.163334,108.573331 134.24,107.94667 134.24,107.2 L134.24,107.2 Z" id="41%" fill="#BA4B56"></path>
        </g>
    </g>
</svg>