<?xml version="1.0" encoding="UTF-8" standalone="no"?>
<svg width="200px" height="200px" viewBox="0 0 200 200" version="1.1" xmlns="http://www.w3.org/2000/svg" xmlns:xlink="http://www.w3.org/1999/xlink">
    <!-- Generator: Sketch 3.6.1 (26313) - http://www.bohemiancoding.com/sketch -->
    <title>wd-chart1</title>
    <desc>Created with Sketch.</desc>
    <defs></defs>
    <g id="Page-4" stroke="none" stroke-width="1" fill="none" fill-rule="evenodd">
        <g id="wd-chart1">
            <circle id="Oval-141" stroke="#BFC0C4" fill="#F5F5F6" cx="100" cy="100" r="75"></circle>
            <path d="M99.7987284,25.0002643 C99.8657983,25.0000881 99.9328888,25 100,25 C141.421356,25 175,58.5786438 175,100 C175,141.421356 141.421356,175 100,175 C79.7096527,175 61.3012058,166.942627 47.799729,153.85295 L99.8990561,99.9025182 L99.7987284,25.0002455 Z" id="Combined-Shape" fill="#BA4B56"></path>
            <circle id="Oval-141" stroke="#BFC0C4" fill="#FFFFFF" cx="100" cy="100" r="60"></circle>
            <path d="M74.14,95.94 C75.2333388,95.94 76.2966615,96.1199982 77.33,96.48 C78.3633385,96.8400018 79.2733294,97.3833297 80.06,98.11 C80.8466706,98.8366703 81.4799976,99.7399946 81.96,100.82 C82.4400024,101.900005 82.68,103.159993 82.68,104.6 C82.68,105.946673 82.4333358,107.209994 81.94,108.39 C81.4466642,109.570006 80.7533378,110.599996 79.86,111.48 C78.9666622,112.360004 77.8900063,113.053331 76.63,113.56 C75.3699937,114.066669 73.9800076,114.32 72.46,114.32 C70.9133256,114.32 69.5266728,114.073336 68.3,113.58 C67.0733272,113.086664 66.026671,112.396671 65.16,111.51 C64.293329,110.623329 63.6300023,109.556673 63.17,108.31 C62.7099977,107.063327 62.48,105.680008 62.48,104.16 C62.48,102.799993 62.7566639,101.40334 63.31,99.97 C63.8633361,98.5366595 64.7199942,97.0466744 65.88,95.5 L72.78,86.24 C73.0200012,85.9199984 73.3699977,85.6466678 73.83,85.42 C74.2900023,85.1933322 74.819997,85.08 75.42,85.08 L79.82,85.08 L71.24,95.58 C71.0533324,95.8066678 70.8766675,96.019999 70.71,96.22 C70.5433325,96.420001 70.3800008,96.6266656 70.22,96.84 C70.7800028,96.5599986 71.3833301,96.3400008 72.03,96.18 C72.6766699,96.0199992 73.3799962,95.94 74.14,95.94 L74.14,95.94 Z M67.22,104.92 C67.22,105.720004 67.3299989,106.449997 67.55,107.11 C67.7700011,107.770003 68.0966645,108.333331 68.53,108.8 C68.9633355,109.266669 69.4999968,109.629999 70.14,109.89 C70.7800032,110.150001 71.5199958,110.28 72.36,110.28 C73.1466706,110.28 73.8699967,110.146668 74.53,109.88 C75.1900033,109.613332 75.7566643,109.240002 76.23,108.76 C76.7033357,108.279998 77.073332,107.71667 77.34,107.07 C77.606668,106.42333 77.74,105.720004 77.74,104.96 C77.74,104.133329 77.6133346,103.390003 77.36,102.73 C77.1066654,102.069997 76.746669,101.510002 76.28,101.05 C75.813331,100.589998 75.2533366,100.240001 74.6,100 C73.9466634,99.7599988 73.2266706,99.64 72.44,99.64 C71.6533294,99.64 70.9400032,99.773332 70.3,100.04 C69.6599968,100.306668 69.1100023,100.676664 68.65,101.15 C68.1899977,101.623336 67.8366679,102.18333 67.59,102.83 C67.3433321,103.47667 67.22,104.17333 67.22,104.92 L67.22,104.92 Z M103.72,87.18 C103.72,87.8866702 103.496669,88.4599978 103.05,88.9 C102.603331,89.3400022 101.860005,89.56 100.82,89.56 L92.86,89.56 L91.82,95.6 C93.1266732,95.333332 94.3199946,95.2 95.4,95.2 C96.9200076,95.2 98.2566609,95.4266644 99.41,95.88 C100.563339,96.3333356 101.533329,96.959996 102.32,97.76 C103.106671,98.560004 103.699998,99.4966613 104.1,100.57 C104.500002,101.643339 104.7,102.799994 104.7,104.04 C104.7,105.573341 104.430003,106.973327 103.89,108.24 C103.349997,109.506673 102.600005,110.589996 101.64,111.49 C100.679995,112.390005 99.5433399,113.086664 98.23,113.58 C96.9166601,114.073336 95.4866744,114.32 93.94,114.32 C93.0333288,114.32 92.1733374,114.226668 91.36,114.04 C90.5466626,113.853332 89.7833369,113.603335 89.07,113.29 C88.3566631,112.976665 87.6966697,112.616669 87.09,112.21 C86.4833303,111.803331 85.9400024,111.373336 85.46,110.92 L86.98,108.82 C87.3000016,108.366664 87.726664,108.14 88.26,108.14 C88.593335,108.14 88.9299983,108.246666 89.27,108.46 C89.6100017,108.673334 90.0066644,108.906665 90.46,109.16 C90.9133356,109.413335 91.439997,109.646666 92.04,109.86 C92.640003,110.073334 93.3666624,110.18 94.22,110.18 C95.1266712,110.18 95.9266632,110.033335 96.62,109.74 C97.3133368,109.446665 97.8899977,109.036669 98.35,108.51 C98.8100023,107.983331 99.1566655,107.35667 99.39,106.63 C99.6233345,105.90333 99.74,105.113338 99.74,104.26 C99.74,102.686659 99.2833379,101.456671 98.37,100.57 C97.4566621,99.6833289 96.1133422,99.24 94.34,99.24 C92.939993,99.24 91.5333404,99.4933308 90.12,100 L87.04,99.12 L89.44,85.08 L103.72,85.08 L103.72,87.18 Z M121.72,92.08 C121.72,93.1733388 121.536668,94.1599956 121.17,95.04 C120.803331,95.9200044 120.313336,96.6699969 119.7,97.29 C119.086664,97.9100031 118.373337,98.386665 117.56,98.72 C116.746663,99.053335 115.900004,99.22 115.02,99.22 C114.059995,99.22 113.173337,99.053335 112.36,98.72 C111.546663,98.386665 110.843336,97.9100031 110.25,97.29 C109.656664,96.6699969 109.193335,95.9200044 108.86,95.04 C108.526665,94.1599956 108.36,93.1733388 108.36,92.08 C108.36,90.9599944 108.526665,89.9466712 108.86,89.04 C109.193335,88.1333288 109.656664,87.3666698 110.25,86.74 C110.843336,86.1133302 111.546663,85.6300017 112.36,85.29 C113.173337,84.9499983 114.059995,84.78 115.02,84.78 C115.980005,84.78 116.869996,84.9499983 117.69,85.29 C118.510004,85.6300017 119.219997,86.1133302 119.82,86.74 C120.420003,87.3666698 120.886665,88.1333288 121.22,89.04 C121.553335,89.9466712 121.72,90.9599944 121.72,92.08 L121.72,92.08 Z M117.9,92.08 C117.9,91.3066628 117.826667,90.6600026 117.68,90.14 C117.533333,89.6199974 117.330001,89.2000016 117.07,88.88 C116.809999,88.5599984 116.503335,88.3300007 116.15,88.19 C115.796665,88.0499993 115.420002,87.98 115.02,87.98 C114.619998,87.98 114.246668,88.0499993 113.9,88.19 C113.553332,88.3300007 113.253335,88.5599984 113,88.88 C112.746665,89.2000016 112.550001,89.6199974 112.41,90.14 C112.269999,90.6600026 112.2,91.3066628 112.2,92.08 C112.2,92.8266704 112.269999,93.4499975 112.41,93.95 C112.550001,94.4500025 112.746665,94.8533318 113,95.16 C113.253335,95.4666682 113.553332,95.686666 113.9,95.82 C114.246668,95.953334 114.619998,96.02 115.02,96.02 C115.420002,96.02 115.796665,95.953334 116.15,95.82 C116.503335,95.686666 116.809999,95.4666682 117.07,95.16 C117.330001,94.8533318 117.533333,94.4500025 117.68,93.95 C117.826667,93.4499975 117.9,92.8266704 117.9,92.08 L117.9,92.08 Z M131.34,85.86 C131.500001,85.659999 131.699999,85.4800008 131.94,85.32 C132.180001,85.1599992 132.513331,85.08 132.94,85.08 L136.52,85.08 L115.04,113.26 C114.879999,113.473334 114.676668,113.649999 114.43,113.79 C114.183332,113.930001 113.886668,114 113.54,114 L109.86,114 L131.34,85.86 Z M138.04,107.2 C138.04,108.293339 137.856669,109.279996 137.49,110.16 C137.123332,111.040004 136.633336,111.789997 136.02,112.41 C135.406664,113.030003 134.693337,113.509998 133.88,113.85 C133.066663,114.190002 132.220004,114.36 131.34,114.36 C130.379995,114.36 129.493337,114.190002 128.68,113.85 C127.866663,113.509998 127.163336,113.030003 126.57,112.41 C125.976664,111.789997 125.513335,111.040004 125.18,110.16 C124.846665,109.279996 124.68,108.293339 124.68,107.2 C124.68,106.079994 124.846665,105.066671 125.18,104.16 C125.513335,103.253329 125.976664,102.48667 126.57,101.86 C127.163336,101.23333 127.866663,100.750002 128.68,100.41 C129.493337,100.069998 130.379995,99.9 131.34,99.9 C132.300005,99.9 133.189996,100.069998 134.01,100.41 C134.830004,100.750002 135.539997,101.23333 136.14,101.86 C136.740003,102.48667 137.206665,103.253329 137.54,104.16 C137.873335,105.066671 138.04,106.079994 138.04,107.2 L138.04,107.2 Z M134.24,107.2 C134.24,106.426663 134.163334,105.780003 134.01,105.26 C133.856666,104.739997 133.650001,104.320002 133.39,104 C133.129999,103.679998 132.823335,103.450001 132.47,103.31 C132.116665,103.169999 131.740002,103.1 131.34,103.1 C130.939998,103.1 130.566668,103.169999 130.22,103.31 C129.873332,103.450001 129.576668,103.679998 129.33,104 C129.083332,104.320002 128.886667,104.739997 128.74,105.26 C128.593333,105.780003 128.52,106.426663 128.52,107.2 C128.52,107.94667 128.593333,108.573331 128.74,109.08 C128.886667,109.586669 129.083332,109.993332 129.33,110.3 C129.576668,110.606668 129.873332,110.826666 130.22,110.96 C130.566668,111.093334 130.939998,111.16 131.34,111.16 C131.740002,111.16 132.116665,111.093334 132.47,110.96 C132.823335,110.826666 133.129999,110.606668 133.39,110.3 C133.650001,109.993332 133.856666,109.586669 134.01,109.08 C134.163334,108.573331 134.24,107.94667 134.24,107.2 L134.24,107.2 Z" id="65%" fill="#BA4B56"></path>
        </g>
    </g>
</svg>