<?xml version="1.0" encoding="UTF-8" standalone="no"?>
<svg width="504px" height="328px" viewBox="0 0 504 328" version="1.1" xmlns="http://www.w3.org/2000/svg" xmlns:xlink="http://www.w3.org/1999/xlink">
    <!-- Generator: Sketch 3.6.1 (26313) - http://www.bohemiancoding.com/sketch -->
    <title>Group 33</title>
    <desc>Created with Sketch.</desc>
    <defs></defs>
    <g id="Page-4" stroke="none" stroke-width="1" fill="none" fill-rule="evenodd">
        <g id="Group-33" fill="#19AEC4">
            <path d="M0.885,253.912 L6.165,253.912 L35.765,316.791 L49.685,287.512 L34.165,254.232 L39.285,254.232 L52.245,282.552 L65.525,253.912 L70.325,253.912 L54.645,287.512 L68.405,317.112 L97.685,254.073 L102.325,254.073 L68.245,327.673 L51.925,292.633 L35.445,327.673 L0.885,253.912 L0.885,253.912 Z" id="Shape"></path>
            <path d="M187.764,253.912 L187.764,325.912 L182.644,325.912 L182.644,307.992 C179.657,314.072 175.177,318.871 169.204,322.391 C163.229,325.912 156.829,327.671 150.004,327.671 C139.549,327.671 130.589,323.966 123.124,316.551 C115.657,309.138 111.924,300.259 111.924,289.911 C111.924,279.565 115.656,270.685 123.124,263.27 C130.589,255.858 139.549,252.151 150.004,252.151 C156.829,252.151 163.364,253.965 169.604,257.59 C175.844,261.217 180.189,266.018 182.644,271.99 L182.644,253.91 L187.764,253.91 L187.764,253.912 Z M117.044,290.072 C117.044,299.031 120.324,306.791 126.884,313.351 C133.444,319.911 141.229,323.191 150.244,323.191 C159.257,323.191 166.964,319.912 173.364,313.351 C179.764,306.79 182.964,299.006 182.964,289.992 C182.964,280.978 179.736,273.166 173.284,266.552 C166.829,259.94 159.124,256.632 150.164,256.632 C141.204,256.632 133.444,259.967 126.884,266.632 C120.324,273.299 117.044,281.111 117.044,290.072 L117.044,290.072 Z" id="Shape"></path>
            <path d="M212.082,325.912 L206.962,325.912 L206.962,253.912 L212.082,253.912 L212.082,268.472 C217.522,257.592 226.802,252.153 239.922,252.153 C248.882,252.153 256.402,255.247 262.482,261.432 C268.562,267.62 271.602,275.139 271.602,283.993 L271.602,325.913 L266.482,325.913 L266.482,283.993 C266.482,276.633 263.894,270.232 258.722,264.792 C253.546,259.353 247.282,256.633 239.922,256.633 C232.562,256.633 226.082,259.353 220.482,264.792 C214.882,270.232 212.082,276.633 212.082,283.993 L212.082,325.912 L212.082,325.912 Z" id="Shape"></path>
            <path d="M362.64,205.912 L362.64,325.912 L357.52,325.912 L357.52,308.472 C354.32,314.34 349.68,319.007 343.6,322.472 C337.52,325.937 331.28,327.672 324.879,327.672 C314.319,327.672 305.332,323.967 297.919,316.552 C290.504,309.139 286.799,300.26 286.799,289.912 C286.799,279.566 290.504,270.686 297.919,263.271 C305.332,255.859 314.319,252.152 324.879,252.152 C331.492,252.152 337.864,253.912 343.999,257.431 C350.132,260.951 354.64,265.646 357.52,271.511 L357.52,205.911 L362.64,205.911 L362.64,205.912 Z M291.919,289.992 C291.919,299.007 295.119,306.791 301.52,313.351 C307.919,319.912 315.624,323.191 324.64,323.191 C333.652,323.191 341.44,319.912 347.999,313.351 C354.56,306.79 357.839,299.031 357.839,290.072 C357.839,281.111 354.56,273.299 347.999,266.632 C341.439,259.967 333.68,256.632 324.719,256.632 C315.759,256.632 308.052,259.94 301.6,266.552 C295.145,273.166 291.919,280.979 291.919,289.992 L291.919,289.992 Z" id="Shape"></path>
            <path d="M417.836,327.832 L416.397,327.832 C406.262,327.832 397.437,324.02 389.917,316.392 C382.397,308.767 378.638,299.887 378.638,289.752 C378.638,279.619 382.37,270.847 389.837,263.432 C397.303,256.02 406.53,252.312 417.518,252.312 C428.502,252.312 437.943,256.687 445.837,265.432 L395.598,315.032 C402.531,320.58 409.198,323.352 415.598,323.352 C421.997,323.352 427.73,321.887 432.797,318.952 C437.862,316.02 442.05,312.1 445.358,307.192 L445.358,315.352 C437.781,323.672 428.608,327.832 417.836,327.832 L417.836,327.832 Z M416.156,256.791 C407.677,256.791 400.156,260.072 393.596,266.632 C387.035,273.192 383.755,280.739 383.755,289.272 C383.755,297.807 386.58,305.272 392.235,311.672 L438.795,265.432 C432.182,259.672 424.637,256.791 416.156,256.791 L416.156,256.791 Z" id="Shape"></path>
            <path d="M487.596,256.632 C481.941,256.632 476.955,258.767 472.636,263.031 C468.316,267.299 466.156,272.26 466.156,277.912 L466.156,325.912 L461.036,325.912 L461.036,253.912 L466.156,253.912 L466.156,264.632 C468.076,261.007 471.061,258.02 475.116,255.672 C479.169,253.326 483.701,252.152 488.717,252.152 C493.73,252.152 498.529,253.859 503.116,257.271 L503.116,263.671 C498.421,258.979 493.248,256.632 487.596,256.632 L487.596,256.632 Z" id="Shape"></path>
            <path d="M329.804,106.074 L350.081,102.546 L350.081,100.725 L329.803,97.466 C328.722,77.422 320.325,58.309 306.09,44.077 C291.854,29.838 273.001,21.438 252.953,20.363 L249.426,0.086 L247.605,0.086 L244.346,20.365 C224.305,21.448 205.194,29.845 190.965,44.077 C176.724,58.315 168.326,77.165 167.246,97.212 L146.966,100.74 L146.966,102.562 L167.249,105.821 C168.335,125.864 176.73,144.977 190.964,159.206 C205.199,173.444 224.047,181.843 244.091,182.92 L247.618,203.2 L249.442,203.2 L252.702,182.918 C272.744,181.836 291.861,173.439 306.088,159.206 C320.331,144.972 328.729,126.121 329.804,106.074 L329.804,106.074 Z M192.936,46.051 C206.603,32.384 224.669,24.295 243.895,23.173 L242.268,33.297 C226.44,34.796 211.283,41.79 199.991,53.068 C188.722,64.332 181.72,79.184 180.194,94.976 L170.08,96.723 C171.262,77.604 179.338,59.65 192.936,46.051 L192.936,46.051 Z M200.305,54.752 L224.398,87.343 L181.62,94.73 C183.157,79.724 189.752,65.606 200.305,54.752 L200.305,54.752 Z M209.133,60.932 L234.058,78.517 L232.982,84.725 L209.133,60.932 L209.133,60.932 Z M201.65,53.407 C212.606,42.759 226.882,36.143 242.043,34.691 L235.229,77.096 L201.65,53.407 L201.65,53.407 Z M233.196,87.688 L246.3,100.725 L157.682,100.725 L233.196,87.688 L233.196,87.688 Z M200.288,148.519 C189.642,137.561 183.024,123.286 181.575,108.124 L223.983,114.938 L200.288,148.519 L200.288,148.519 Z M225.401,116.114 L231.738,117.206 L207.735,141.152 L225.401,116.114 L225.401,116.114 Z M234.227,125.771 L241.611,168.55 C226.609,167.014 212.493,160.419 201.638,149.867 L234.227,125.771 L234.227,125.771 Z M192.937,157.234 C179.27,143.567 171.18,125.503 170.06,106.273 L180.152,107.895 C181.59,123.82 188.606,138.822 199.953,150.178 C211.215,161.447 226.068,168.449 241.857,169.972 L243.603,180.089 C224.486,178.906 206.533,170.832 192.937,157.234 L192.937,157.234 Z M247.604,192.481 L234.567,116.975 L247.604,103.869 L247.604,192.481 L247.604,192.481 Z M304.12,46.051 C317.785,59.719 325.878,77.786 326.994,97.014 L316.896,95.391 C315.456,79.456 308.431,64.448 297.079,53.089 C285.816,41.831 270.969,34.836 255.189,33.311 L253.441,23.192 C272.562,24.376 290.523,32.451 304.12,46.051 L304.12,46.051 Z M289.319,62.335 L271.654,87.374 L265.319,86.278 L289.319,62.335 L289.319,62.335 Z M262.853,77.698 L255.436,34.737 C270.496,36.279 284.659,42.915 295.532,53.535 L262.853,77.698 L262.853,77.698 Z M296.843,54.856 C307.441,65.802 314.031,80.041 315.476,95.163 L273.202,88.369 L296.843,54.856 L296.843,54.856 Z M249.442,10.802 L262.481,86.317 L249.442,99.418 L249.442,10.802 L249.442,10.802 Z M339.363,102.562 L263.904,115.592 L250.749,102.562 L339.363,102.562 L339.363,102.562 Z M295.521,149.76 C284.545,160.477 270.223,167.135 255.005,168.594 L261.851,126.003 L295.521,149.76 L295.521,149.76 Z M263,124.564 L264.071,118.353 L287.921,142.148 L263,124.564 L263,124.564 Z M296.834,148.439 L272.781,115.92 L315.43,108.556 C313.902,123.52 307.34,137.596 296.834,148.439 L296.834,148.439 Z M253.154,180.11 L254.776,170.017 C270.711,168.578 285.718,161.553 297.08,150.193 C308.338,138.933 315.331,124.088 316.853,108.31 L326.973,106.562 C325.79,125.682 317.714,143.635 304.119,157.233 C290.453,170.903 272.381,178.992 253.154,180.11 L253.154,180.11 Z" id="Shape"></path>
        </g>
    </g>
</svg>