<?xml version="1.0" encoding="UTF-8" standalone="no"?>
<svg width="235px" height="145px" viewBox="0 0 235 145" version="1.1" xmlns="http://www.w3.org/2000/svg" xmlns:xlink="http://www.w3.org/1999/xlink">
    <!-- Generator: Sketch 3.6.1 (26313) - http://www.bohemiancoding.com/sketch -->
    <title>rigit_i1</title>
    <desc>Created with Sketch.</desc>
    <defs></defs>
    <g id="Page-1" stroke="none" stroke-width="1" fill="none" fill-rule="evenodd">
        <g id="rigit_i1">
            <path d="M77.6407767,92.7445584 L77.6407767,75.3734951 C77.6407767,74.4811199 76.9162097,73.754717 76.022411,73.754717 L30.6183657,73.754717 C29.7253397,73.754717 29,74.4794686 29,75.3734951 L29,118.381222 C29,119.273597 29.724567,120 30.6183657,120 L76.022411,120 C76.915437,120 77.6407767,119.275248 77.6407767,118.381222 L77.6407767,101.821479 L84.1294193,97.2830189 L77.6407767,92.7445584 Z" id="Combined-Shape" stroke="#FF653E" stroke-width="2" stroke-linecap="round" stroke-linejoin="round"></path>
            <path d="M50.8899994,98.2746331 L50.8899994,82.4989518 C50.8899994,81.2564291 51.9811741,80.245283 53.3220382,80.245283 C54.6629023,80.245283 55.7540771,81.2564291 55.7540771,82.4989518 L55.7540771,98.2746331 C55.7540771,99.5171558 54.6629023,100.528302 53.3220382,100.528302 C51.9811741,100.528302 50.8899994,99.5171558 50.8899994,98.2746331 Z" id="Shape" stroke="#FF653E" fill="#FF653E"></path>
            <ellipse id="Oval" stroke="#FF653E" fill="#FF653E" cx="53.3220382" cy="108.641509" rx="2.43203883" ry="2.43396226"></ellipse>
            <rect id="Rectangle-118-Copy-4" stroke="#FF653E" stroke-width="2" fill="#FFFFFF" x="89.3700027" y="89.1698113" width="17.8349515" height="17.8490566" rx="1.62"></rect>
            <rect id="Rectangle-118-Copy-6" fill="#FF653E" x="116.93" y="94.0377358" width="81.0679612" height="8.11320755" rx="0.81"></rect>
            <g id="Group" opacity="0.4" transform="translate(89.000000, 34.000000)">
                <rect id="Rectangle-118-Copy-10" stroke="#43AAFF" stroke-width="2" x="0.370002747" y="27.5849057" width="17.8349515" height="17.8490566" rx="1.62"></rect>
                <rect id="Rectangle-118-Copy-18" stroke="#43AAFF" stroke-width="2" x="0.370002747" y="0" width="17.8349515" height="17.8490566" rx="1.62"></rect>
                <rect id="Rectangle-118-Copy-11" fill="#43AAFF" x="27.9300003" y="32.4528302" width="81.0679612" height="8.11320755" rx="0.81"></rect>
                <rect id="Rectangle-118-Copy-19" fill="#43AAFF" x="27.9300003" y="4.86792453" width="81.0679612" height="8.11320755" rx="0.81"></rect>
                <path d="M8.33302302,40.7366342 L2.24601423,34.3547736 C1.89344239,33.9851042 1.90716114,33.3971341 2.27653845,33.0446267 L2.69050169,32.6495575 C2.86267199,32.4851456 3.08971728,32.394187 3.32945241,32.394187 C3.58222035,32.394187 3.82641408,32.4981887 3.99961328,32.6801059 L8.24179334,37.1278093 C8.38515427,37.2778051 8.57035737,37.360526 8.76344876,37.360526 C8.97986202,37.360526 9.17809794,37.2602999 9.3221448,37.078726 L15.2942591,29.5566222 C15.470888,29.3348892 15.7356598,29.2075472 16.0206668,29.2075472 C16.2291918,29.2075472 16.4332582,29.2785978 16.5954824,29.4076561 L17.0433995,29.7639391 C17.2368339,29.9177106 17.3589307,30.1377275 17.3870542,30.3841738 C17.4151776,30.63062 17.3462409,30.8726042 17.1925909,31.0661916 L9.55810728,40.6813726 C9.39725495,40.8831977 9.166437,40.9992128 8.92395812,40.9992128 C8.70445814,40.9992128 8.49456129,40.9061948 8.33302302,40.7366342 Z" id="Shape-Copy" stroke="#43AAFF" fill="#43AAFF"></path>
                <path d="M8.33302302,13.1517286 L2.24601423,6.76986796 C1.89344239,6.40019853 1.90716114,5.81222847 2.27653845,5.45972103 L2.69050169,5.06465184 C2.86267199,4.9002399 3.08971728,4.80928131 3.32945241,4.80928131 C3.58222035,4.80928131 3.82641408,4.91328302 3.99961328,5.09520019 L8.24179334,9.54290361 C8.38515427,9.69289947 8.57035737,9.7756203 8.76344876,9.7756203 C8.97986202,9.7756203 9.17809794,9.67539423 9.3221448,9.49382029 L15.2942591,1.97171655 C15.470888,1.74998353 15.7356598,1.62264151 16.0206668,1.62264151 C16.2291918,1.62264151 16.4332582,1.69369218 16.5954824,1.82275041 L17.0433995,2.17903349 C17.2368339,2.33280499 17.3589307,2.5528218 17.3870542,2.7992681 C17.4151776,3.04571439 17.3462409,3.28769856 17.1925909,3.4812859 L9.55810728,13.0964669 C9.39725495,13.298292 9.166437,13.4143071 8.92395812,13.4143071 C8.70445814,13.4143071 8.49456129,13.3212891 8.33302302,13.1517286 Z" id="Shape-Copy-2" stroke="#43AAFF" fill="#43AAFF"></path>
            </g>
        </g>
    </g>
</svg>