<?xml version="1.0" encoding="UTF-8" standalone="no"?>
<svg width="235px" height="145px" viewBox="0 0 235 145" version="1.1" xmlns="http://www.w3.org/2000/svg" xmlns:xlink="http://www.w3.org/1999/xlink">
    <!-- Generator: Sketch 3.6.1 (26313) - http://www.bohemiancoding.com/sketch -->
    <title>rigit_i2</title>
    <desc>Created with Sketch.</desc>
    <defs></defs>
    <g id="Page-1" stroke="none" stroke-width="1" fill="none" fill-rule="evenodd">
        <g id="rigit_i2">
            <rect id="Rectangle-118-Copy-8" stroke="#43AAFF" stroke-width="2" x="65.8399963" y="89.1555556" width="17.7571429" height="17.8444444" rx="1.62"></rect>
            <rect id="Rectangle-118-Copy-9" fill="#43AAFF" x="93.2900009" y="94.0222222" width="80.7142857" height="8.11111111" rx="0.81"></rect>
            <path d="M72.7289835,103.179191 L62.1566951,92.0490927 C61.5443268,91.4043814 61.5681544,90.3789494 62.2097114,89.764169 L62.928708,89.0751601 C63.2277439,88.7884223 63.62209,88.6297886 64.0384767,88.6297886 C64.4774995,88.6297886 64.90163,88.8111697 65.202453,89.1284371 L72.5705302,96.8853247 C72.8195282,97.1469207 73.1412003,97.2911875 73.4765732,97.2911875 C73.852453,97.2911875 74.1967612,97.1163912 74.4469506,96.7997224 L84.8196832,83.6810164 C85.126463,83.2943094 85.586335,83.0722222 86.0813525,83.0722222 C86.4435314,83.0722222 86.7979664,83.1961361 87.0797273,83.4212163 L87.8576971,84.0425815 C88.1936657,84.3107622 88.405731,84.6944761 88.4545775,85.1242836 C88.503424,85.554091 88.3836905,85.9761165 88.1168218,86.3137369 L74.8567846,103.082813 C74.5774065,103.434801 74.1765078,103.637133 73.7553557,103.637133 C73.3741147,103.637133 73.009553,103.474908 72.7289835,103.179191 Z" id="Shape" stroke="#43AAFF" fill="#43AAFF"></path>
            <g id="Group" opacity="0.4" transform="translate(65.000000, 34.000000)">
                <rect id="Rectangle-118-Copy-10" stroke="#43AAFF" stroke-width="2" x="0.839996338" y="27.5777778" width="17.7571429" height="17.8444444" rx="1.62"></rect>
                <rect id="Rectangle-118-Copy-18" stroke="#43AAFF" stroke-width="2" x="0.839996338" y="0" width="17.7571429" height="17.8444444" rx="1.62"></rect>
                <rect id="Rectangle-118-Copy-11" fill="#43AAFF" x="28.2900009" y="32.4444444" width="80.7142857" height="8.11111111" rx="0.81"></rect>
                <rect id="Rectangle-118-Copy-19" fill="#43AAFF" x="28.2900009" y="4.86666667" width="80.7142857" height="8.11111111" rx="0.81"></rect>
                <path d="M8.77220316,40.726108 L2.71175019,34.3458964 C2.36071651,33.9763225 2.37437541,33.3885044 2.74214123,33.036088 L3.15429848,32.6411209 C3.32571764,32.4767515 3.5517724,32.3858164 3.79046164,32.3858164 C4.04212684,32.3858164 4.28525522,32.4897912 4.4576988,32.6716614 L8.68137149,37.1182155 C8.82410697,37.2681726 9.00850209,37.3508721 9.20075108,37.3508721 C9.41622019,37.3508721 9.61359127,37.2506719 9.7570097,37.0691449 L15.7030694,29.5489848 C15.8789277,29.3273091 16.1425444,29.2 16.426308,29.2 C16.6339233,29.2 16.8370994,29.2710323 16.9986159,29.4000572 L17.4445789,29.7562482 C17.6371693,29.90998 17.7587335,30.1299399 17.7867343,30.3763225 C17.814735,30.6227052 17.746099,30.8646268 17.5931194,31.0581641 L9.99194274,40.6708606 C9.83179216,40.8726335 9.60198121,40.9886187 9.36056019,40.9886187 C9.14201782,40.9886187 8.93303668,40.8956247 8.77220316,40.726108 Z" id="Shape-Copy" stroke="#43AAFF" fill="#43AAFF"></path>
                <path d="M8.77220316,13.1483302 L2.71175019,6.76811864 C2.36071651,6.39854473 2.37437541,5.81072661 2.74214123,5.45831025 L3.15429848,5.06334314 C3.32571764,4.89897368 3.5517724,4.8080386 3.79046164,4.8080386 C4.04212684,4.8080386 4.28525522,4.91201343 4.4576988,5.09388361 L8.68137149,9.54043774 C8.82410697,9.69039485 9.00850209,9.7730943 9.20075108,9.7730943 C9.41622019,9.7730943 9.61359127,9.67289413 9.7570097,9.49136711 L15.7030694,1.97120706 C15.8789277,1.74953134 16.1425444,1.62222222 16.426308,1.62222222 C16.6339233,1.62222222 16.8370994,1.69325453 16.9986159,1.82227941 L17.4445789,2.17847043 C17.6371693,2.3322022 17.7587335,2.55216216 17.7867343,2.79854477 C17.814735,3.04492738 17.746099,3.28684903 17.5931194,3.48038634 L9.99194274,13.0930828 C9.83179216,13.2948558 9.60198121,13.4108409 9.36056019,13.4108409 C9.14201782,13.4108409 8.93303668,13.3178469 8.77220316,13.1483302 Z" id="Shape-Copy-2" stroke="#43AAFF" fill="#43AAFF"></path>
            </g>
        </g>
    </g>
</svg>