<?xml version="1.0" encoding="UTF-8" standalone="no"?>
<svg width="1070px" height="628px" viewBox="0 0 1070 628" version="1.1" xmlns="http://www.w3.org/2000/svg" xmlns:xlink="http://www.w3.org/1999/xlink">
    <!-- Generator: Sketch 3.6.1 (26313) - http://www.bohemiancoding.com/sketch -->
    <title>rm</title>
    <desc>Created with Sketch.</desc>
    <defs><style type="text/css">@import url(https://fonts.googleapis.com/css?family=Lato:700,400|Roboto:300,500);</style></defs>
    <g id="Page-2" stroke="none" stroke-width="1" fill="none" fill-rule="evenodd">
        <g id="rm">
            <g id="Group-5" transform="translate(746.000000, 245.000000)" stroke-linecap="round" stroke="#8C919C" stroke-linejoin="round">
                <g id="Group-4">
                    <path d="M2.52631579,14.4196134 L2.52631579,11.1597416 L18.3276368,1.81996543 L18.3276368,4.97827143 L2.52631579,14.4196134 Z" id="Path-119" fill="#D8D8D8"></path>
                    <path d="M0.220609643,9.60493678 L2.63612514,11.0073232 L18.2807633,1.79296889 L15.9542841,0.478283405 L0.220609643,9.60493678 Z" id="Combined-Shape-Copy-4" fill="#FFFFFF"></path>
                    <path d="M0.201599121,9.69543457 L0.201599121,12.8208708 L2.5079153,14.4000822 L2.5079153,11.3118142 L0.201599121,9.69543457 Z" id="Path-122" fill="#EEEEEE"></path>
                </g>
                <g id="Group-4-Copy" transform="translate(5.000000, 3.000000)">
                    <path d="M2.52631579,14.4196134 L2.52631579,11.1597416 L18.3276368,1.81996543 L18.3276368,4.97827143 L2.52631579,14.4196134 Z" id="Path-119" fill="#D8D8D8"></path>
                    <path d="M0.220609643,9.60493678 L2.63612514,11.0073232 L18.2807633,1.79296889 L15.9542841,0.478283405 L0.220609643,9.60493678 Z" id="Combined-Shape-Copy-4" fill="#FFFFFF"></path>
                    <path d="M0.201599121,9.69543457 L0.201599121,12.8208708 L2.5079153,14.4000822 L2.5079153,11.3118142 L0.201599121,9.69543457 Z" id="Path-122" fill="#EEEEEE"></path>
                </g>
                <g id="Group-4-Copy-2" transform="translate(10.000000, 6.000000)">
                    <path d="M2.52631579,14.4196134 L2.52631579,11.1597416 L18.3276368,1.81996543 L18.3276368,4.97827143 L2.52631579,14.4196134 Z" id="Path-119" fill="#D8D8D8"></path>
                    <path d="M0.220609643,9.60493678 L2.63612514,11.0073232 L18.2807633,1.79296889 L15.9542841,0.478283405 L0.220609643,9.60493678 Z" id="Combined-Shape-Copy-4" fill="#FFFFFF"></path>
                    <path d="M0.201599121,9.69543457 L0.201599121,12.8208708 L2.5079153,14.4000822 L2.5079153,11.3118142 L0.201599121,9.69543457 Z" id="Path-122" fill="#EEEEEE"></path>
                </g>
                <g id="Group-4-Copy-3" transform="translate(15.000000, 9.000000)">
                    <path d="M2.52631579,14.4196134 L2.52631579,11.1597416 L18.3276368,1.81996543 L18.3276368,4.97827143 L2.52631579,14.4196134 Z" id="Path-119" fill="#D8D8D8"></path>
                    <path d="M0.220609643,9.60493678 L2.63612514,11.0073232 L18.2807633,1.79296889 L15.9542841,0.478283405 L0.220609643,9.60493678 Z" id="Combined-Shape-Copy-4" fill="#FFFFFF"></path>
                    <path d="M0.201599121,9.69543457 L0.201599121,12.8208708 L2.5079153,14.4000822 L2.5079153,11.3118142 L0.201599121,9.69543457 Z" id="Path-122" fill="#EEEEEE"></path>
                </g>
                <g id="Group-4-Copy-4" transform="translate(20.000000, 12.000000)">
                    <path d="M2.52631579,14.4196134 L2.52631579,11.1597416 L18.3276368,1.81996543 L18.3276368,4.97827143 L2.52631579,14.4196134 Z" id="Path-119" fill="#D8D8D8"></path>
                    <path d="M0.220609643,9.60493678 L2.63612514,11.0073232 L18.2807633,1.79296889 L15.9542841,0.478283405 L0.220609643,9.60493678 Z" id="Combined-Shape-Copy-4" fill="#FFFFFF"></path>
                    <path d="M0.201599121,9.69543457 L0.201599121,12.8208708 L2.5079153,14.4000822 L2.5079153,11.3118142 L0.201599121,9.69543457 Z" id="Path-122" fill="#EEEEEE"></path>
                </g>
                <g id="Group-4-Copy-5" transform="translate(25.000000, 15.000000)">
                    <path d="M2.52631579,14.4196134 L2.52631579,11.1597416 L18.3276368,1.81996543 L18.3276368,4.97827143 L2.52631579,14.4196134 Z" id="Path-119" fill="#D8D8D8"></path>
                    <path d="M0.220609643,9.60493678 L2.63612514,11.0073232 L18.2807633,1.79296889 L15.9542841,0.478283405 L0.220609643,9.60493678 Z" id="Combined-Shape-Copy-4" fill="#FFFFFF"></path>
                    <path d="M0.201599121,9.69543457 L0.201599121,12.8208708 L2.5079153,14.4000822 L2.5079153,11.3118142 L0.201599121,9.69543457 Z" id="Path-122" fill="#EEEEEE"></path>
                </g>
                <g id="Group-4-Copy-6" transform="translate(30.000000, 18.000000)">
                    <path d="M2.52631579,14.4196134 L2.52631579,11.1597416 L18.3276368,1.81996543 L18.3276368,4.97827143 L2.52631579,14.4196134 Z" id="Path-119" fill="#D8D8D8"></path>
                    <path d="M0.220609643,9.60493678 L2.63612514,11.0073232 L18.2807633,1.79296889 L15.9542841,0.478283405 L0.220609643,9.60493678 Z" id="Combined-Shape-Copy-4" fill="#FFFFFF"></path>
                    <path d="M0.201599121,9.69543457 L0.201599121,12.8208708 L2.5079153,14.4000822 L2.5079153,11.3118142 L0.201599121,9.69543457 Z" id="Path-122" fill="#EEEEEE"></path>
                </g>
                <g id="Group-4-Copy-7" transform="translate(35.000000, 21.000000)">
                    <path d="M2.52631579,14.4196134 L2.52631579,11.1597416 L18.3276368,1.81996543 L18.3276368,4.97827143 L2.52631579,14.4196134 Z" id="Path-119" fill="#D8D8D8"></path>
                    <path d="M0.220609643,9.60493678 L2.63612514,11.0073232 L18.2807633,1.79296889 L15.9542841,0.478283405 L0.220609643,9.60493678 Z" id="Combined-Shape-Copy-4" fill="#FFFFFF"></path>
                    <path d="M0.201599121,9.69543457 L0.201599121,12.8208708 L2.5079153,14.4000822 L2.5079153,11.3118142 L0.201599121,9.69543457 Z" id="Path-122" fill="#EEEEEE"></path>
                </g>
                <g id="Group-4-Copy-8" transform="translate(40.000000, 24.000000)">
                    <path d="M2.52631579,14.4196134 L2.52631579,11.1597416 L18.3276368,1.81996543 L18.3276368,4.97827143 L2.52631579,14.4196134 Z" id="Path-119" fill="#D8D8D8"></path>
                    <path d="M0.220609643,9.60493678 L2.63612514,11.0073232 L18.2807633,1.79296889 L15.9542841,0.478283405 L0.220609643,9.60493678 Z" id="Combined-Shape-Copy-4" fill="#FFFFFF"></path>
                    <path d="M0.201599121,9.69543457 L0.201599121,12.8208708 L2.5079153,14.4000822 L2.5079153,11.3118142 L0.201599121,9.69543457 Z" id="Path-122" fill="#EEEEEE"></path>
                </g>
                <g id="Group-4-Copy-9" transform="translate(45.000000, 27.000000)">
                    <path d="M2.52631579,14.4196134 L2.52631579,11.1597416 L18.3276368,1.81996543 L18.3276368,4.97827143 L2.52631579,14.4196134 Z" id="Path-119" fill="#D8D8D8"></path>
                    <path d="M0.220609643,9.60493678 L2.63612514,11.0073232 L18.2807633,1.79296889 L15.9542841,0.478283405 L0.220609643,9.60493678 Z" id="Combined-Shape-Copy-4" fill="#FFFFFF"></path>
                    <path d="M0.201599121,9.69543457 L0.201599121,12.8208708 L2.5079153,14.4000822 L2.5079153,11.3118142 L0.201599121,9.69543457 Z" id="Path-122" fill="#EEEEEE"></path>
                </g>
            </g>
            <path d="M388,319.837018 L577.270553,429.722654 L770.903495,317.401737 L579.07481,209 L388,319.837018 Z" id="Combined-Shape-Copy-6" stroke="#D8D8D8" stroke-linecap="round" stroke-linejoin="round" fill="#00698D"></path>
            <path d="M396,319.953365 L576.930994,424.997266 L762.032163,317.625385 L578.655753,214 L396,319.953365 Z" id="Combined-Shape-Copy-6" stroke="#D8D8D8" stroke-linecap="round" stroke-linejoin="round" fill="#FFF5EC"></path>
            <g id="Group" transform="translate(470.000000, 251.000000)" stroke="#D8D8D8">
                <path id="Path-26" d=""></path>
                <path d="M34,68.7060547 L39.0078125,79.6176758 L58.8842773,83.1181641 L72.8413086,74.8857422 L67.2133789,63.8164062 L47.9501953,60 L34,68.7060547 Z" id="Path-25-Copy" fill="#CAB7A8"></path>
                <path d="M42,49.7060547 L47.0078125,60.6176758 L66.8842773,64.1181641 L80.8413086,55.8857422 L75.2133789,44.8164062 L55.9501953,42 L42,49.7060547 Z" id="Path-25-Copy-2" fill="#CAB7A8"></path>
                <path d="M0.458984375,72.4086914 L5.46679688,83.3203125 L25.3432617,86.8208008 L39.300293,78.5883789 L33.6723633,67.519043 L14.4091797,64.7026367 L0.458984375,72.4086914 Z" id="Path-25" fill="#CAB7A8"></path>
                <path d="M50,100.706055 L55.0078125,111.617676 L74.8842773,115.118164 L88.8413086,106.885742 L83.2133789,95.8164062 L63.9501953,93 L50,100.706055 Z" id="Path-25-Copy-4" fill="#CAB7A8"></path>
                <path d="M75,114.706055 L80.0078125,125.617676 L99.8842773,129.118164 L113.841309,120.885742 L108.213379,109.816406 L88.9501953,107 L75,114.706055 Z" id="Path-25-Copy-8" fill="#CAB7A8"></path>
                <path d="M83,95.7060547 L88.0078125,106.617676 L107.884277,110.118164 L121.841309,101.885742 L116.213379,90.8164062 L96.9501953,88 L83,95.7060547 Z" id="Path-25-Copy-5" fill="#CAB7A8"></path>
                <path d="M108,109.706055 L113.007812,120.617676 L132.884277,124.118164 L146.841309,115.885742 L141.213379,104.816406 L121.950195,102 L108,109.706055 Z" id="Path-25-Copy-9" fill="#CAB7A8"></path>
                <path d="M9.20371094,54.7060547 L14.2115234,65.6176758 L34.0879883,69.1181641 L48.0450195,60.8857422 L42.4170898,49.8164062 L23.1539062,47 L9.20371094,54.7060547 Z" id="Path-25-Copy-3" fill="#CAB7A8"></path>
                <path d="M58,81.7060547 L63.0078125,92.6176758 L82.8842773,96.1181641 L96.8413086,87.8857422 L91.2133789,76.8164062 L71.9501953,74 L58,81.7060547 Z" id="Path-25-Copy-6" fill="#00D9D9"></path>
                <path d="M25,86.7060547 L30.0078125,97.6176758 L49.8842773,101.118164 L63.8413086,92.8857422 L58.2133789,81.8164062 L38.9501953,79 L25,86.7060547 Z" id="Path-25-Copy-7" fill="#00D9D9"></path>
                <path d="M100,59.7060547 L105.007812,70.6176758 L124.884277,74.1181641 L138.841309,65.8857422 L133.213379,54.8164062 L113.950195,51 L100,59.7060547 Z" id="Path-25-Copy" fill="#00D9D9"></path>
                <path d="M66.4589844,64.4086914 L71.4667969,74.3203125 L91.3432617,77.8208008 L105.300293,69.5883789 L99.6723633,58.519043 L80.4091797,55.7026367 L66.4589844,64.4086914 Z" id="Path-25" fill="#CAB7A8"></path>
                <path d="M116,91.7060547 L121.007812,102.617676 L140.884277,106.118164 L154.841309,97.8857422 L149.213379,86.8164062 L129.950195,84 L116,91.7060547 Z" id="Path-25-Copy-4" fill="#CAB7A8"></path>
                <path d="M149,86.7060547 L154.007812,97.6176758 L173.884277,101.118164 L187.841309,92.8857422 L182.213379,81.8164062 L162.950195,79 L149,86.7060547 Z" id="Path-25-Copy-5" fill="#CAB7A8"></path>
                <path d="M75.2037109,44.7060547 L80.2115234,55.6176758 L100.087988,60.1181641 L114.04502,50.8857422 L108.41709,40.8164062 L89.1539062,37 L75.2037109,44.7060547 Z" id="Path-25-Copy-3" fill="#CAB7A8"></path>
                <path d="M51,30.7060547 L56.0078125,41.6176758 L75.8842773,46.1181641 L89.8413086,36.8857422 L84.2133789,26.8164062 L64.9501953,23 L51,30.7060547 Z" id="Path-25-Copy-10" fill="#CAB7A8"></path>
                <path d="M124,72.7060547 L129.007812,83.6176758 L148.884277,87.1181641 L162.841309,78.8857422 L157.213379,67.8164062 L137.950195,65 L124,72.7060547 Z" id="Path-25-Copy-6" fill="#CAB7A8"></path>
                <path d="M91,77.7060547 L96.0078125,88.6176758 L115.884277,92.1181641 L129.841309,83.8857422 L124.213379,72.8164062 L104.950195,70 L91,77.7060547 Z" id="Path-25-Copy-7" fill="#00D9D9"></path>
                <path d="M108,40.7060547 L113.007812,51.6176758 L132.884277,55.1181641 L146.841309,46.8857422 L141.213379,35.8164062 L121.950195,33 L108,40.7060547 Z" id="Path-25-Copy-2" fill="#00D9D9"></path>
                <path d="M84,26.7060547 L89.0078125,37.6176758 L108.884277,41.1181641 L122.841309,32.8857422 L117.213379,21.8164062 L97.9501953,19 L84,26.7060547 Z" id="Path-25-Copy-11" fill="#CAB7A8"></path>
                <path d="M133,54.6700195 L138.007812,65.5816406 L157.884277,69.0821289 L171.841309,60.849707 L166.213379,49.7803711 L146.950195,46.9639648 L133,54.6700195 Z" id="Path-25-Copy-7" fill="#CAB7A8"></path>
                <path d="M157,68.6700195 L162.007812,79.5816406 L182.884277,83.0821289 L196.841309,74.849707 L191.213379,63.7803711 L171.950195,60.9639648 L157,68.6700195 Z" id="Path-25-Copy-7" fill="#CAB7A8"></path>
                <path d="M116.458984,23.3726563 L121.466797,33.2842773 L141.343262,36.7847656 L155.300293,28.5523438 L149.672363,17.4830078 L130.40918,14.6666016 L116.458984,23.3726563 Z" id="Path-25" fill="#CAB7A8"></path>
                <path d="M92,9.67001953 L97.0078125,19.5816406 L116.884277,23.0821289 L130.841309,14.849707 L125.213379,3.78037109 L105.950195,0.963964844 L92,9.67001953 Z" id="Path-25-Copy-12" fill="#CAB7A8"></path>
                <path d="M166,50.6700195 L171.007812,61.5816406 L190.884277,65.0821289 L204.841309,56.849707 L199.213379,45.7803711 L179.950195,42.9639648 L166,50.6700195 Z" id="Path-25-Copy-4" fill="#CAB7A8"></path>
                <path d="M191,64.6700195 L196.007812,75.5816406 L215.884277,79.0821289 L229.841309,70.849707 L224.213379,59.7803711 L204.950195,56.9639648 L191,64.6700195 Z" id="Path-25-Copy-5" fill="#CAB7A8"></path>
                <path d="M141,36.6700195 L146.007812,47.5816406 L165.884277,51.0821289 L179.841309,42.849707 L174.213379,31.7803711 L154.950195,28.9639648 L141,36.6700195 Z" id="Path-25-Copy-7" fill="#00D9D9"></path>
            </g>
            <path d="M388,319.837018 L577.270553,429.722654 L770.903495,317.401737 L579.07481,209 L388,319.837018 Z" id="Combined-Shape-Copy-6" stroke="#D8D8D8" stroke-width="3" stroke-linecap="round" stroke-linejoin="round"></path>
            <path d="M206.823996,174.920822 L200,178.958984 L207.676996,183.416051 L200,187.958984 L206.823996,191.920822 L200,195.958984 L318.400391,264.699219 L410.408203,211.328125 L403.422328,207.380431 L410.408203,203.328125 L402.549094,198.886969 L410.408203,194.328125 L403.422328,190.380431 L410.408203,186.328125 L289.494141,118 L200,170.958984 L206.823996,174.920822 Z" id="Combined-Shape" stroke="#D8D8D8" stroke-width="3" stroke-linecap="round" stroke-linejoin="round" fill="#FBFBFB"></path>
            <path d="M289.494141,143 L200,195.958984 L318.400391,264.699219 L410.408203,211.328125 L289.494141,143 Z" id="Path-1" stroke="#D8D8D8" stroke-linecap="round" stroke-linejoin="round" fill="#FBFBFB"></path>
            <path d="M289.494141,135 L200,187.958984 L318.400391,256.699219 L410.408203,203.328125 L289.494141,135 Z" id="Path-1" stroke="#D8D8D8" stroke-linecap="round" stroke-linejoin="round" fill="#FBFBFB"></path>
            <path d="M289.494141,126 L200,178.958984 L318.400391,247.699219 L410.408203,194.328125 L289.494141,126 Z" id="Path-1" stroke="#D8D8D8" stroke-linecap="round" stroke-linejoin="round" fill="#FBFBFB"></path>
            <path d="M289.494141,118 L200,170.958984 L318.400391,239.699219 L410.408203,186.328125 L289.494141,118 Z" id="Path-1" stroke="#D8D8D8" stroke-linecap="round" stroke-linejoin="round" fill="#FBFBFB"></path>
            <path d="M286.620976,126 L261.428575,140.907836 L255,144.712004 L296.834425,169 L329.343556,150.142385 L286.620976,126 Z" id="Path-1" fill="#E5E5E5"></path>
            <g id="Group-7" transform="translate(389.000000, 272.000000)" stroke-linecap="round" stroke-linejoin="round">
                <path d="M0.226106419,37.9459728 L43.3799686,63 L109,24.9357014 L65.2628813,0.220004603 L0.226106419,37.9459728 Z" id="Combined-Shape-Copy-5" stroke="#D8D8D8" fill="#F8AC18"></path>
                <path d="M12.2261064,36.5479968 L45.8584497,56.0740739 L97,26.408327 L62.9130907,7.14593067 L12.2261064,36.5479968 Z" id="Combined-Shape-Copy-5" stroke="#FFFFFF"></path>
                <path d="M63.4171094,10.7659416 L90.5263654,26.5048813 L97,22.5969486 L69.6577401,7.14593067 L63.4171094,10.7659416 Z" id="Combined-Shape-Copy-5" stroke="#FFFFFF" fill="#FFFFFF"></path>
            </g>
            <g id="Group-7" transform="translate(389.000000, 262.000000)" stroke-linecap="round" stroke-linejoin="round">
                <path d="M0.226106419,37.9459728 L43.3799686,63 L109,24.9357014 L65.2628813,0.220004603 L0.226106419,37.9459728 Z" id="Combined-Shape-Copy-5" stroke="#D8D8D8" fill="#F8AC18"></path>
                <path d="M12.2261064,36.5479968 L45.8584497,56.0740739 L97,26.408327 L62.9130907,7.14593067 L12.2261064,36.5479968 Z" id="Combined-Shape-Copy-5" stroke="#FFFFFF"></path>
                <path d="M63.4171094,10.7659416 L90.5263654,26.5048813 L97,22.5969486 L69.6577401,7.14593067 L63.4171094,10.7659416 Z" id="Combined-Shape-Copy-5" stroke="#FFFFFF" fill="#FFFFFF"></path>
            </g>
            <g id="Group-7" transform="translate(389.000000, 252.000000)" stroke-linecap="round" stroke-linejoin="round">
                <path d="M0.226106419,37.9459728 L43.3799686,63 L109,24.9357014 L65.2628813,0.220004603 L0.226106419,37.9459728 Z" id="Combined-Shape-Copy-5" stroke="#D8D8D8" fill="#F8AC18"></path>
                <path d="M12.2261064,36.5479968 L45.8584497,56.0740739 L97,26.408327 L62.9130907,7.14593067 L12.2261064,36.5479968 Z" id="Combined-Shape-Copy-5" stroke="#FFFFFF"></path>
                <path d="M63.4171094,10.7659416 L90.5263654,26.5048813 L97,22.5969486 L69.6577401,7.14593067 L63.4171094,10.7659416 Z" id="Combined-Shape-Copy-5" stroke="#FFFFFF" fill="#FFFFFF"></path>
            </g>
            <path d="M389.230011,289.945973 L397.845905,294.94814 L389.230011,299.945973 L397.845905,304.94814 L389.230011,309.945973 L432.383873,335 L498.003905,296.935701 L489.271561,292.001084 L498.003905,286.935701 L489.271561,282.001084 L498.003905,276.935701 L454.266786,252.220005 L389.230011,289.945973 Z" id="Combined-Shape" stroke="#D8D8D8" stroke-width="3" stroke-linecap="round" stroke-linejoin="round"></path>
            <g id="Group-2" transform="translate(220.000000, 305.000000)">
                <path d="M0.496395576,53.8159819 L60.310368,88.5424424 L152.31818,35.1713486 L91.6957779,0.913835346 L0.496395576,53.8159819 Z" id="Combined-Shape-Copy-4" fill="#00A3E0"></path>
                <path d="M65.4392329,33.3907023 L71.5859375,46.0263665 L93.6279289,48.9990227 L134.703125,25.2109368 L106.675945,9.47046809 L65.4392329,33.3907023 Z" id="Combined-Shape-Copy-4" fill="#FFFFFF"></path>
                <path d="M0.5,53.8159819 L60.3139724,88.5424424 L152.321785,35.1713486 L91.6993823,0.913835346 L0.5,53.8159819 Z" id="Combined-Shape-Copy-4" stroke="#00A3DF" stroke-width="3" stroke-linecap="round" stroke-linejoin="round"></path>
            </g>
            <g id="Group-2" transform="translate(267.000000, 123.000000)">
                <path d="M0.496395576,53.8159819 L60.310368,88.5424424 L152.31818,35.1713486 L91.6957779,0.913835346 L0.496395576,53.8159819 Z" id="Combined-Shape-Copy-4" stroke="#D8D8D8" stroke-linecap="round" stroke-linejoin="round" fill="#FBFBFB"></path>
                <path d="M102.439233,13.3907023 L108.585937,26.0263665 L130.627929,28.9990227 L134.962891,24.8017571 L108.44325,9.90794422 L102.439233,13.3907023 Z" id="Combined-Shape-Copy-4" fill="#E5E5E5"></path>
                <path d="M0.5,53.8159819 L60.3139724,88.5424424 L152.321785,35.1713486 L91.6993823,0.913835346 L0.5,53.8159819 Z" id="Combined-Shape-Copy-4" stroke="#D8D8D8" stroke-width="3" stroke-linecap="round" stroke-linejoin="round"></path>
            </g>
            <g id="Group-2-Copy" transform="translate(509.000000, 451.000000)">
                <path d="M0.496395576,53.8159819 L60.310368,88.5424424 L152.31818,35.1713486 L91.6957779,0.913835346 L0.496395576,53.8159819 Z" id="Combined-Shape-Copy-4" stroke="#8C919C" stroke-linecap="round" stroke-linejoin="round" fill="#333333"></path>
                <path d="M65.4392329,33.3907023 L71.5859375,46.0263665 L93.6279289,48.9990227 L134.703125,25.2109368 L106.675945,9.47046809 L65.4392329,33.3907023 Z" id="Combined-Shape-Copy-4" fill="#FFFFFF"></path>
                <path d="M0.5,53.8159819 L60.3139724,88.5424424 L152.321785,35.1713486 L91.6993823,0.913835346 L0.5,53.8159819 Z" id="Combined-Shape-Copy-4" stroke="#333333" stroke-width="3" stroke-linecap="round" stroke-linejoin="round"></path>
            </g>
            <g id="Group-2" transform="translate(562.500000, 160.500000) rotate(-180.000000) translate(-562.500000, -160.500000) translate(486.000000, 116.000000)">
                <path d="M0.496395576,53.8159819 L60.310368,88.5424424 L152.31818,35.1713486 L91.6957779,0.913835346 L0.496395576,53.8159819 Z" id="Combined-Shape-Copy-4" fill="#00CE5C"></path>
                <path d="M65.4392329,33.3907023 L71.5859375,46.0263665 L93.6279289,48.9990227 L134.703125,25.2109368 L106.675945,9.47046809 L65.4392329,33.3907023 Z" id="Combined-Shape-Copy-4" fill="#FFFFFF"></path>
                <path d="M0.498222427,53.8159819 L60.3121948,88.5424424 L152.320007,35.1713486 L91.6976047,0.913835346 L0.498222427,53.8159819 Z" id="Combined-Shape-Copy-4" stroke="#00CE5C" stroke-width="3" stroke-linecap="round" stroke-linejoin="round"></path>
            </g>
            <g id="Group-2-Copy-2" transform="translate(851.500000, 306.500000) rotate(-180.000000) translate(-851.500000, -306.500000) translate(775.000000, 262.000000)">
                <path d="M0.496395576,53.8159819 L60.310368,88.5424424 L152.31818,35.1713486 L91.6957779,0.913835346 L0.496395576,53.8159819 Z" id="Combined-Shape-Copy-4" fill="#E8E8E8"></path>
                <path d="M65.4392329,33.3907023 L71.5859375,46.0263665 L93.6279289,48.9990227 L134.703125,25.2109368 L106.675945,9.47046809 L65.4392329,33.3907023 Z" id="Combined-Shape-Copy-4" fill="#FFFFFF"></path>
                <path d="M0.498222427,53.8159819 L60.3121948,88.5424424 L152.320007,35.1713486 L91.6976047,0.913835346 L0.498222427,53.8159819 Z" id="Combined-Shape-Copy-4" stroke="#D8D8D8" stroke-width="3" stroke-linecap="round" stroke-linejoin="round"></path>
            </g>
            <g id="Group-8-Copy" transform="translate(723.000000, 259.000000)" stroke-linecap="round" stroke="#8C919C" stroke-linejoin="round">
                <g id="Group-6">
                    <g id="Group-3">
                        <path d="M0.0898619433,14.074302 L6.12622023,17.578857 L15.7937008,11.4907227 L10.0951764,8.27050596 L0.0898619433,14.074302 Z" id="Combined-Shape-Copy-4" fill="#EEEEEE"></path>
                        <path d="M6.00805664,13.2480469 L6.00805664,17.5338196 L0.0827636719,14.2459717 L0.0827636719,10.0752326 L6.00805664,13.2480469 Z" id="Path-71" fill="#FFFFFF"></path>
                        <path d="M15.7248535,4.27840515 L15.7248535,11.5641778 L10,8.17073913 L10,1 L15.7248535,4.27840515 Z" id="Path-71-Copy" fill="#EEEEEE"></path>
                        <path d="M6.19628906,13.3051758 L6.19628906,17.4639645 L15.7463379,11.5610352 L15.7463379,4.23262535 L12.1571045,3.8782959 L10.458252,6.82421875 L10.458252,10.5486771 L6.19628906,13.3051758 Z" id="Path-75" fill="#D8D8D8"></path>
                        <path d="M5.01116943,3.96697998 L10.3232422,7.06896973 L12.0921631,4.03283691 L15.7359619,4.08581543 L9.9934082,0.666015625 L7.30456543,1.03503418 L5.01116943,3.96697998 Z" id="Path-615" fill="#FFFFFF"></path>
                        <path d="M5.00085449,4.01757812 L5.00085449,7.09988986 L0.0811767578,10.0561523 L6.04272461,13.4644775 L10.376709,10.5477295 L10.376709,6.98065359 L5.00085449,4.01757812 Z" id="Path-614" fill="#FFFFFF"></path>
                    </g>
                </g>
                <g id="Group-6" transform="translate(11.000000, 6.000000)">
                    <g id="Group-3">
                        <path d="M0.0898619433,14.074302 L6.12622023,17.578857 L15.7937008,11.4907227 L10.0951764,8.27050596 L0.0898619433,14.074302 Z" id="Combined-Shape-Copy-4" fill="#EEEEEE"></path>
                        <path d="M6.00805664,13.2480469 L6.00805664,17.5338196 L0.0827636719,14.2459717 L0.0827636719,10.0752326 L6.00805664,13.2480469 Z" id="Path-71" fill="#FFFFFF"></path>
                        <path d="M15.7248535,4.27840515 L15.7248535,11.5641778 L10,8.17073913 L10,1 L15.7248535,4.27840515 Z" id="Path-71-Copy" fill="#EEEEEE"></path>
                        <path d="M6.19628906,13.3051758 L6.19628906,17.4639645 L15.7463379,11.5610352 L15.7463379,4.23262535 L12.1571045,3.8782959 L10.458252,6.82421875 L10.458252,10.5486771 L6.19628906,13.3051758 Z" id="Path-75" fill="#D8D8D8"></path>
                        <path d="M5.01116943,3.96697998 L10.3232422,7.06896973 L12.0921631,4.03283691 L15.7359619,4.08581543 L9.9934082,0.666015625 L7.30456543,1.03503418 L5.01116943,3.96697998 Z" id="Path-615" fill="#FFFFFF"></path>
                        <path d="M5.00085449,4.01757812 L5.00085449,7.09988986 L0.0811767578,10.0561523 L6.04272461,13.4644775 L10.376709,10.5477295 L10.376709,6.98065359 L5.00085449,4.01757812 Z" id="Path-614" fill="#FFFFFF"></path>
                    </g>
                </g>
                <g id="Group-6" transform="translate(22.000000, 12.000000)">
                    <g id="Group-3">
                        <path d="M0.0898619433,14.074302 L6.12622023,17.578857 L15.7937008,11.4907227 L10.0951764,8.27050596 L0.0898619433,14.074302 Z" id="Combined-Shape-Copy-4" fill="#EEEEEE"></path>
                        <path d="M6.00805664,13.2480469 L6.00805664,17.5338196 L0.0827636719,14.2459717 L0.0827636719,10.0752326 L6.00805664,13.2480469 Z" id="Path-71" fill="#FFFFFF"></path>
                        <path d="M15.7248535,4.27840515 L15.7248535,11.5641778 L10,8.17073913 L10,1 L15.7248535,4.27840515 Z" id="Path-71-Copy" fill="#EEEEEE"></path>
                        <path d="M6.19628906,13.3051758 L6.19628906,17.4639645 L15.7463379,11.5610352 L15.7463379,4.23262535 L12.1571045,3.8782959 L10.458252,6.82421875 L10.458252,10.5486771 L6.19628906,13.3051758 Z" id="Path-75" fill="#D8D8D8"></path>
                        <path d="M5.01116943,3.96697998 L10.3232422,7.06896973 L12.0921631,4.03283691 L15.7359619,4.08581543 L9.9934082,0.666015625 L7.30456543,1.03503418 L5.01116943,3.96697998 Z" id="Path-615" fill="#FFFFFF"></path>
                        <path d="M5.00085449,4.01757812 L5.00085449,7.09988986 L0.0811767578,10.0561523 L6.04272461,13.4644775 L10.376709,10.5477295 L10.376709,6.98065359 L5.00085449,4.01757812 Z" id="Path-614" fill="#FFFFFF"></path>
                    </g>
                </g>
                <g id="Group-6" transform="translate(33.000000, 18.000000)">
                    <g id="Group-3">
                        <path d="M0.0898619433,14.074302 L6.12622023,17.578857 L15.7937008,11.4907227 L10.0951764,8.27050596 L0.0898619433,14.074302 Z" id="Combined-Shape-Copy-4" fill="#EEEEEE"></path>
                        <path d="M6.00805664,13.2480469 L6.00805664,17.5338196 L0.0827636719,14.2459717 L0.0827636719,10.0752326 L6.00805664,13.2480469 Z" id="Path-71" fill="#FFFFFF"></path>
                        <path d="M15.7248535,4.27840515 L15.7248535,11.5641778 L10,8.17073913 L10,1 L15.7248535,4.27840515 Z" id="Path-71-Copy" fill="#EEEEEE"></path>
                        <path d="M6.19628906,13.3051758 L6.19628906,17.4639645 L15.7463379,11.5610352 L15.7463379,4.23262535 L12.1571045,3.8782959 L10.458252,6.82421875 L10.458252,10.5486771 L6.19628906,13.3051758 Z" id="Path-75" fill="#D8D8D8"></path>
                        <path d="M5.01116943,3.96697998 L10.3232422,7.06896973 L12.0921631,4.03283691 L15.7359619,4.08581543 L9.9934082,0.666015625 L7.30456543,1.03503418 L5.01116943,3.96697998 Z" id="Path-615" fill="#FFFFFF"></path>
                        <path d="M5.00085449,4.01757812 L5.00085449,7.09988986 L0.0811767578,10.0561523 L6.04272461,13.4644775 L10.376709,10.5477295 L10.376709,6.98065359 L5.00085449,4.01757812 Z" id="Path-614" fill="#FFFFFF"></path>
                    </g>
                </g>
                <g id="Group-6" transform="translate(44.000000, 24.000000)">
                    <g id="Group-3">
                        <path d="M0.0898619433,14.074302 L6.12622023,17.578857 L15.7937008,11.4907227 L10.0951764,8.27050596 L0.0898619433,14.074302 Z" id="Combined-Shape-Copy-4" fill="#EEEEEE"></path>
                        <path d="M6.00805664,13.2480469 L6.00805664,17.5338196 L0.0827636719,14.2459717 L0.0827636719,10.0752326 L6.00805664,13.2480469 Z" id="Path-71" fill="#FFFFFF"></path>
                        <path d="M15.7248535,4.27840515 L15.7248535,11.5641778 L10,8.17073913 L10,1 L15.7248535,4.27840515 Z" id="Path-71-Copy" fill="#EEEEEE"></path>
                        <path d="M6.19628906,13.3051758 L6.19628906,17.4639645 L15.7463379,11.5610352 L15.7463379,4.23262535 L12.1571045,3.8782959 L10.458252,6.82421875 L10.458252,10.5486771 L6.19628906,13.3051758 Z" id="Path-75" fill="#D8D8D8"></path>
                        <path d="M5.01116943,3.96697998 L10.3232422,7.06896973 L12.0921631,4.03283691 L15.7359619,4.08581543 L9.9934082,0.666015625 L7.30456543,1.03503418 L5.01116943,3.96697998 Z" id="Path-615" fill="#FFFFFF"></path>
                        <path d="M5.00085449,4.01757812 L5.00085449,7.09988986 L0.0811767578,10.0561523 L6.04272461,13.4644775 L10.376709,10.5477295 L10.376709,6.98065359 L5.00085449,4.01757812 Z" id="Path-614" fill="#FFFFFF"></path>
                    </g>
                </g>
            </g>
            <g id="Group-5" transform="translate(498.000000, 423.000000)" stroke-linecap="round" stroke="#8C919C" stroke-linejoin="round">
                <g id="Group-4">
                    <path d="M2.52631579,14.4196134 L2.52631579,11.1597416 L18.3276368,1.81996543 L18.3276368,4.97827143 L2.52631579,14.4196134 Z" id="Path-119" fill="#333333"></path>
                    <path d="M0.220609643,9.60493678 L2.63612514,11.0073232 L18.2807633,1.79296889 L15.9542841,0.478283405 L0.220609643,9.60493678 Z" id="Combined-Shape-Copy-4" fill="#656871"></path>
                    <path d="M0.201599121,9.69543457 L0.201599121,12.8208708 L2.5079153,14.4000822 L2.5079153,11.3118142 L0.201599121,9.69543457 Z" id="Path-122" fill="#656871"></path>
                </g>
                <g id="Group-4-Copy" transform="translate(5.000000, 3.000000)">
                    <path d="M2.52631579,14.4196134 L2.52631579,11.1597416 L18.3276368,1.81996543 L18.3276368,4.97827143 L2.52631579,14.4196134 Z" id="Path-119" fill="#333333"></path>
                    <path d="M0.220609643,9.60493678 L2.63612514,11.0073232 L18.2807633,1.79296889 L15.9542841,0.478283405 L0.220609643,9.60493678 Z" id="Combined-Shape-Copy-4" fill="#656871"></path>
                    <path d="M0.201599121,9.69543457 L0.201599121,12.8208708 L2.5079153,14.4000822 L2.5079153,11.3118142 L0.201599121,9.69543457 Z" id="Path-122" fill="#656871"></path>
                </g>
                <g id="Group-4-Copy-2" transform="translate(10.000000, 6.000000)">
                    <path d="M2.52631579,14.4196134 L2.52631579,11.1597416 L18.3276368,1.81996543 L18.3276368,4.97827143 L2.52631579,14.4196134 Z" id="Path-119" fill="#333333"></path>
                    <path d="M0.220609643,9.60493678 L2.63612514,11.0073232 L18.2807633,1.79296889 L15.9542841,0.478283405 L0.220609643,9.60493678 Z" id="Combined-Shape-Copy-4" fill="#656871"></path>
                    <path d="M0.201599121,9.69543457 L0.201599121,12.8208708 L2.5079153,14.4000822 L2.5079153,11.3118142 L0.201599121,9.69543457 Z" id="Path-122" fill="#656871"></path>
                </g>
                <g id="Group-4-Copy-3" transform="translate(15.000000, 9.000000)">
                    <path d="M2.52631579,14.4196134 L2.52631579,11.1597416 L18.3276368,1.81996543 L18.3276368,4.97827143 L2.52631579,14.4196134 Z" id="Path-119" fill="#333333"></path>
                    <path d="M0.220609643,9.60493678 L2.63612514,11.0073232 L18.2807633,1.79296889 L15.9542841,0.478283405 L0.220609643,9.60493678 Z" id="Combined-Shape-Copy-4" fill="#656871"></path>
                    <path d="M0.201599121,9.69543457 L0.201599121,12.8208708 L2.5079153,14.4000822 L2.5079153,11.3118142 L0.201599121,9.69543457 Z" id="Path-122" fill="#656871"></path>
                </g>
                <g id="Group-4-Copy-4" transform="translate(20.000000, 12.000000)">
                    <path d="M2.52631579,14.4196134 L2.52631579,11.1597416 L18.3276368,1.81996543 L18.3276368,4.97827143 L2.52631579,14.4196134 Z" id="Path-119" fill="#333333"></path>
                    <path d="M0.220609643,9.60493678 L2.63612514,11.0073232 L18.2807633,1.79296889 L15.9542841,0.478283405 L0.220609643,9.60493678 Z" id="Combined-Shape-Copy-4" fill="#656871"></path>
                    <path d="M0.201599121,9.69543457 L0.201599121,12.8208708 L2.5079153,14.4000822 L2.5079153,11.3118142 L0.201599121,9.69543457 Z" id="Path-122" fill="#656871"></path>
                </g>
                <g id="Group-4-Copy-5" transform="translate(25.000000, 15.000000)">
                    <path d="M2.52631579,14.4196134 L2.52631579,11.1597416 L18.3276368,1.81996543 L18.3276368,4.97827143 L2.52631579,14.4196134 Z" id="Path-119" fill="#333333"></path>
                    <path d="M0.220609643,9.60493678 L2.63612514,11.0073232 L18.2807633,1.79296889 L15.9542841,0.478283405 L0.220609643,9.60493678 Z" id="Combined-Shape-Copy-4" fill="#656871"></path>
                    <path d="M0.201599121,9.69543457 L0.201599121,12.8208708 L2.5079153,14.4000822 L2.5079153,11.3118142 L0.201599121,9.69543457 Z" id="Path-122" fill="#656871"></path>
                </g>
                <g id="Group-4-Copy-6" transform="translate(30.000000, 18.000000)">
                    <path d="M2.52631579,14.4196134 L2.52631579,11.1597416 L18.3276368,1.81996543 L18.3276368,4.97827143 L2.52631579,14.4196134 Z" id="Path-119" fill="#333333"></path>
                    <path d="M0.220609643,9.60493678 L2.63612514,11.0073232 L18.2807633,1.79296889 L15.9542841,0.478283405 L0.220609643,9.60493678 Z" id="Combined-Shape-Copy-4" fill="#656871"></path>
                    <path d="M0.201599121,9.69543457 L0.201599121,12.8208708 L2.5079153,14.4000822 L2.5079153,11.3118142 L0.201599121,9.69543457 Z" id="Path-122" fill="#656871"></path>
                </g>
                <g id="Group-4-Copy-7" transform="translate(35.000000, 21.000000)">
                    <path d="M2.52631579,14.4196134 L2.52631579,11.1597416 L18.3276368,1.81996543 L18.3276368,4.97827143 L2.52631579,14.4196134 Z" id="Path-119" fill="#333333"></path>
                    <path d="M0.220609643,9.60493678 L2.63612514,11.0073232 L18.2807633,1.79296889 L15.9542841,0.478283405 L0.220609643,9.60493678 Z" id="Combined-Shape-Copy-4" fill="#656871"></path>
                    <path d="M0.201599121,9.69543457 L0.201599121,12.8208708 L2.5079153,14.4000822 L2.5079153,11.3118142 L0.201599121,9.69543457 Z" id="Path-122" fill="#656871"></path>
                </g>
                <g id="Group-4-Copy-8" transform="translate(40.000000, 24.000000)">
                    <path d="M2.52631579,14.4196134 L2.52631579,11.1597416 L18.3276368,1.81996543 L18.3276368,4.97827143 L2.52631579,14.4196134 Z" id="Path-119" fill="#333333"></path>
                    <path d="M0.220609643,9.60493678 L2.63612514,11.0073232 L18.2807633,1.79296889 L15.9542841,0.478283405 L0.220609643,9.60493678 Z" id="Combined-Shape-Copy-4" fill="#656871"></path>
                    <path d="M0.201599121,9.69543457 L0.201599121,12.8208708 L2.5079153,14.4000822 L2.5079153,11.3118142 L0.201599121,9.69543457 Z" id="Path-122" fill="#656871"></path>
                </g>
                <g id="Group-4-Copy-9" transform="translate(45.000000, 27.000000)">
                    <path d="M2.52631579,14.4196134 L2.52631579,11.1597416 L18.3276368,1.81996543 L18.3276368,4.97827143 L2.52631579,14.4196134 Z" id="Path-119" fill="#333333"></path>
                    <path d="M0.220609643,9.60493678 L2.63612514,11.0073232 L18.2807633,1.79296889 L15.9542841,0.478283405 L0.220609643,9.60493678 Z" id="Combined-Shape-Copy-4" fill="#656871"></path>
                    <path d="M0.201599121,9.69543457 L0.201599121,12.8208708 L2.5079153,14.4000822 L2.5079153,11.3118142 L0.201599121,9.69543457 Z" id="Path-122" fill="#656871"></path>
                </g>
            </g>
            <g id="Group-5" transform="translate(618.000000, 167.000000)" stroke-linecap="round" stroke="#8C919C" stroke-linejoin="round">
                <g id="Group-4">
                    <path d="M2.52631579,14.4196134 L2.52631579,11.1597416 L18.3276368,1.81996543 L18.3276368,4.97827143 L2.52631579,14.4196134 Z" id="Path-119" fill="#2A8E57"></path>
                    <path d="M0.220609643,9.60493678 L2.63612514,11.0073232 L18.2807633,1.79296889 L15.9542841,0.478283405 L0.220609643,9.60493678 Z" id="Combined-Shape-Copy-4" fill="#00CE5C"></path>
                    <path d="M0.201599121,9.69543457 L0.201599121,12.8208708 L2.5079153,14.4000822 L2.5079153,11.3118142 L0.201599121,9.69543457 Z" id="Path-122" fill="#00CE5C"></path>
                </g>
                <g id="Group-4-Copy" transform="translate(5.000000, 3.000000)">
                    <path d="M2.52631579,14.4196134 L2.52631579,11.1597416 L18.3276368,1.81996543 L18.3276368,4.97827143 L2.52631579,14.4196134 Z" id="Path-119" fill="#2A8E57"></path>
                    <path d="M0.220609643,9.60493678 L2.63612514,11.0073232 L18.2807633,1.79296889 L15.9542841,0.478283405 L0.220609643,9.60493678 Z" id="Combined-Shape-Copy-4" fill="#00CE5C"></path>
                    <path d="M0.201599121,9.69543457 L0.201599121,12.8208708 L2.5079153,14.4000822 L2.5079153,11.3118142 L0.201599121,9.69543457 Z" id="Path-122" fill="#00CE5C"></path>
                </g>
                <g id="Group-4-Copy-2" transform="translate(10.000000, 6.000000)">
                    <path d="M2.52631579,14.4196134 L2.52631579,11.1597416 L18.3276368,1.81996543 L18.3276368,4.97827143 L2.52631579,14.4196134 Z" id="Path-119" fill="#2A8E57"></path>
                    <path d="M0.220609643,9.60493678 L2.63612514,11.0073232 L18.2807633,1.79296889 L15.9542841,0.478283405 L0.220609643,9.60493678 Z" id="Combined-Shape-Copy-4" fill="#00CE5C"></path>
                    <path d="M0.201599121,9.69543457 L0.201599121,12.8208708 L2.5079153,14.4000822 L2.5079153,11.3118142 L0.201599121,9.69543457 Z" id="Path-122" fill="#00CE5C"></path>
                </g>
                <g id="Group-4-Copy-3" transform="translate(15.000000, 9.000000)">
                    <path d="M2.52631579,14.4196134 L2.52631579,11.1597416 L18.3276368,1.81996543 L18.3276368,4.97827143 L2.52631579,14.4196134 Z" id="Path-119" fill="#2A8E57"></path>
                    <path d="M0.220609643,9.60493678 L2.63612514,11.0073232 L18.2807633,1.79296889 L15.9542841,0.478283405 L0.220609643,9.60493678 Z" id="Combined-Shape-Copy-4" fill="#00CE5C"></path>
                    <path d="M0.201599121,9.69543457 L0.201599121,12.8208708 L2.5079153,14.4000822 L2.5079153,11.3118142 L0.201599121,9.69543457 Z" id="Path-122" fill="#00CE5C"></path>
                </g>
                <g id="Group-4-Copy-4" transform="translate(20.000000, 12.000000)">
                    <path d="M2.52631579,14.4196134 L2.52631579,11.1597416 L18.3276368,1.81996543 L18.3276368,4.97827143 L2.52631579,14.4196134 Z" id="Path-119" fill="#2A8E57"></path>
                    <path d="M0.220609643,9.60493678 L2.63612514,11.0073232 L18.2807633,1.79296889 L15.9542841,0.478283405 L0.220609643,9.60493678 Z" id="Combined-Shape-Copy-4" fill="#00CE5C"></path>
                    <path d="M0.201599121,9.69543457 L0.201599121,12.8208708 L2.5079153,14.4000822 L2.5079153,11.3118142 L0.201599121,9.69543457 Z" id="Path-122" fill="#00CE5C"></path>
                </g>
                <g id="Group-4-Copy-5" transform="translate(25.000000, 15.000000)">
                    <path d="M2.52631579,14.4196134 L2.52631579,11.1597416 L18.3276368,1.81996543 L18.3276368,4.97827143 L2.52631579,14.4196134 Z" id="Path-119" fill="#2A8E57"></path>
                    <path d="M0.220609643,9.60493678 L2.63612514,11.0073232 L18.2807633,1.79296889 L15.9542841,0.478283405 L0.220609643,9.60493678 Z" id="Combined-Shape-Copy-4" fill="#00CE5C"></path>
                    <path d="M0.201599121,9.69543457 L0.201599121,12.8208708 L2.5079153,14.4000822 L2.5079153,11.3118142 L0.201599121,9.69543457 Z" id="Path-122" fill="#00CE5C"></path>
                </g>
                <g id="Group-4-Copy-6" transform="translate(30.000000, 18.000000)">
                    <path d="M2.52631579,14.4196134 L2.52631579,11.1597416 L18.3276368,1.81996543 L18.3276368,4.97827143 L2.52631579,14.4196134 Z" id="Path-119" fill="#2A8E57"></path>
                    <path d="M0.220609643,9.60493678 L2.63612514,11.0073232 L18.2807633,1.79296889 L15.9542841,0.478283405 L0.220609643,9.60493678 Z" id="Combined-Shape-Copy-4" fill="#00CE5C"></path>
                    <path d="M0.201599121,9.69543457 L0.201599121,12.8208708 L2.5079153,14.4000822 L2.5079153,11.3118142 L0.201599121,9.69543457 Z" id="Path-122" fill="#00CE5C"></path>
                </g>
                <g id="Group-4-Copy-7" transform="translate(35.000000, 21.000000)">
                    <path d="M2.52631579,14.4196134 L2.52631579,11.1597416 L18.3276368,1.81996543 L18.3276368,4.97827143 L2.52631579,14.4196134 Z" id="Path-119" fill="#2A8E57"></path>
                    <path d="M0.220609643,9.60493678 L2.63612514,11.0073232 L18.2807633,1.79296889 L15.9542841,0.478283405 L0.220609643,9.60493678 Z" id="Combined-Shape-Copy-4" fill="#00CE5C"></path>
                    <path d="M0.201599121,9.69543457 L0.201599121,12.8208708 L2.5079153,14.4000822 L2.5079153,11.3118142 L0.201599121,9.69543457 Z" id="Path-122" fill="#00CE5C"></path>
                </g>
                <g id="Group-4-Copy-8" transform="translate(40.000000, 24.000000)">
                    <path d="M2.52631579,14.4196134 L2.52631579,11.1597416 L18.3276368,1.81996543 L18.3276368,4.97827143 L2.52631579,14.4196134 Z" id="Path-119" fill="#2A8E57"></path>
                    <path d="M0.220609643,9.60493678 L2.63612514,11.0073232 L18.2807633,1.79296889 L15.9542841,0.478283405 L0.220609643,9.60493678 Z" id="Combined-Shape-Copy-4" fill="#00CE5C"></path>
                    <path d="M0.201599121,9.69543457 L0.201599121,12.8208708 L2.5079153,14.4000822 L2.5079153,11.3118142 L0.201599121,9.69543457 Z" id="Path-122" fill="#00CE5C"></path>
                </g>
                <g id="Group-4-Copy-9" transform="translate(45.000000, 27.000000)">
                    <path d="M2.52631579,14.4196134 L2.52631579,11.1597416 L18.3276368,1.81996543 L18.3276368,4.97827143 L2.52631579,14.4196134 Z" id="Path-119" fill="#2A8E57"></path>
                    <path d="M0.220609643,9.60493678 L2.63612514,11.0073232 L18.2807633,1.79296889 L15.9542841,0.478283405 L0.220609643,9.60493678 Z" id="Combined-Shape-Copy-4" fill="#00CE5C"></path>
                    <path d="M0.201599121,9.69543457 L0.201599121,12.8208708 L2.5079153,14.4000822 L2.5079153,11.3118142 L0.201599121,9.69543457 Z" id="Path-122" fill="#00CE5C"></path>
                </g>
            </g>
            <g id="Group-8" transform="translate(333.000000, 361.000000)" stroke-linecap="round" stroke="#8C919C" stroke-linejoin="round">
                <g id="Group-6">
                    <g id="Group-3">
                        <path d="M0.0898619433,14.074302 L6.12622023,17.578857 L15.7937008,11.4907227 L10.0951764,8.27050596 L0.0898619433,14.074302 Z" id="Combined-Shape-Copy-4" fill="#EEEEEE"></path>
                        <path d="M6.00805664,13.2480469 L6.00805664,17.5338196 L0.0827636719,14.2459717 L0.0827636719,10.0752326 L6.00805664,13.2480469 Z" id="Path-71" fill="#3DCBFF"></path>
                        <path d="M15.7248535,4.27840515 L15.7248535,11.5641778 L10,8.17073913 L10,1 L15.7248535,4.27840515 Z" id="Path-71-Copy" fill="#EEEEEE"></path>
                        <path d="M6.19628906,13.3051758 L6.19628906,17.4639645 L15.7463379,11.5610352 L15.7463379,4.23262535 L12.1571045,3.8782959 L10.458252,6.82421875 L10.458252,10.5486771 L6.19628906,13.3051758 Z" id="Path-75" fill="#00A3DF"></path>
                        <path d="M5.01116943,3.96697998 L10.3232422,7.06896973 L12.0921631,4.03283691 L15.7359619,4.08581543 L9.9934082,0.666015625 L7.30456543,1.03503418 L5.01116943,3.96697998 Z" id="Path-615" fill="#3DCBFF"></path>
                        <path d="M5.00085449,4.01757812 L5.00085449,7.09988986 L0.0811767578,10.0561523 L6.04272461,13.4644775 L10.376709,10.5477295 L10.376709,6.98065359 L5.00085449,4.01757812 Z" id="Path-614" fill="#3DCBFF"></path>
                    </g>
                </g>
                <g id="Group-6" transform="translate(11.000000, 6.000000)">
                    <g id="Group-3">
                        <path d="M0.0898619433,14.074302 L6.12622023,17.578857 L15.7937008,11.4907227 L10.0951764,8.27050596 L0.0898619433,14.074302 Z" id="Combined-Shape-Copy-4" fill="#EEEEEE"></path>
                        <path d="M6.00805664,13.2480469 L6.00805664,17.5338196 L0.0827636719,14.2459717 L0.0827636719,10.0752326 L6.00805664,13.2480469 Z" id="Path-71" fill="#3DCBFF"></path>
                        <path d="M15.7248535,4.27840515 L15.7248535,11.5641778 L10,8.17073913 L10,1 L15.7248535,4.27840515 Z" id="Path-71-Copy" fill="#EEEEEE"></path>
                        <path d="M6.19628906,13.3051758 L6.19628906,17.4639645 L15.7463379,11.5610352 L15.7463379,4.23262535 L12.1571045,3.8782959 L10.458252,6.82421875 L10.458252,10.5486771 L6.19628906,13.3051758 Z" id="Path-75" fill="#00A3DF"></path>
                        <path d="M5.01116943,3.96697998 L10.3232422,7.06896973 L12.0921631,4.03283691 L15.7359619,4.08581543 L9.9934082,0.666015625 L7.30456543,1.03503418 L5.01116943,3.96697998 Z" id="Path-615" fill="#3DCBFF"></path>
                        <path d="M5.00085449,4.01757812 L5.00085449,7.09988986 L0.0811767578,10.0561523 L6.04272461,13.4644775 L10.376709,10.5477295 L10.376709,6.98065359 L5.00085449,4.01757812 Z" id="Path-614" fill="#3DCBFF"></path>
                    </g>
                </g>
                <g id="Group-6" transform="translate(22.000000, 12.000000)">
                    <g id="Group-3">
                        <path d="M0.0898619433,14.074302 L6.12622023,17.578857 L15.7937008,11.4907227 L10.0951764,8.27050596 L0.0898619433,14.074302 Z" id="Combined-Shape-Copy-4" fill="#EEEEEE"></path>
                        <path d="M6.00805664,13.2480469 L6.00805664,17.5338196 L0.0827636719,14.2459717 L0.0827636719,10.0752326 L6.00805664,13.2480469 Z" id="Path-71" fill="#3DCBFF"></path>
                        <path d="M15.7248535,4.27840515 L15.7248535,11.5641778 L10,8.17073913 L10,1 L15.7248535,4.27840515 Z" id="Path-71-Copy" fill="#EEEEEE"></path>
                        <path d="M6.19628906,13.3051758 L6.19628906,17.4639645 L15.7463379,11.5610352 L15.7463379,4.23262535 L12.1571045,3.8782959 L10.458252,6.82421875 L10.458252,10.5486771 L6.19628906,13.3051758 Z" id="Path-75" fill="#00A3DF"></path>
                        <path d="M5.01116943,3.96697998 L10.3232422,7.06896973 L12.0921631,4.03283691 L15.7359619,4.08581543 L9.9934082,0.666015625 L7.30456543,1.03503418 L5.01116943,3.96697998 Z" id="Path-615" fill="#3DCBFF"></path>
                        <path d="M5.00085449,4.01757812 L5.00085449,7.09988986 L0.0811767578,10.0561523 L6.04272461,13.4644775 L10.376709,10.5477295 L10.376709,6.98065359 L5.00085449,4.01757812 Z" id="Path-614" fill="#3DCBFF"></path>
                    </g>
                </g>
                <g id="Group-6" transform="translate(33.000000, 18.000000)">
                    <g id="Group-3">
                        <path d="M0.0898619433,14.074302 L6.12622023,17.578857 L15.7937008,11.4907227 L10.0951764,8.27050596 L0.0898619433,14.074302 Z" id="Combined-Shape-Copy-4" fill="#EEEEEE"></path>
                        <path d="M6.00805664,13.2480469 L6.00805664,17.5338196 L0.0827636719,14.2459717 L0.0827636719,10.0752326 L6.00805664,13.2480469 Z" id="Path-71" fill="#3DCBFF"></path>
                        <path d="M15.7248535,4.27840515 L15.7248535,11.5641778 L10,8.17073913 L10,1 L15.7248535,4.27840515 Z" id="Path-71-Copy" fill="#EEEEEE"></path>
                        <path d="M6.19628906,13.3051758 L6.19628906,17.4639645 L15.7463379,11.5610352 L15.7463379,4.23262535 L12.1571045,3.8782959 L10.458252,6.82421875 L10.458252,10.5486771 L6.19628906,13.3051758 Z" id="Path-75" fill="#00A3DF"></path>
                        <path d="M5.01116943,3.96697998 L10.3232422,7.06896973 L12.0921631,4.03283691 L15.7359619,4.08581543 L9.9934082,0.666015625 L7.30456543,1.03503418 L5.01116943,3.96697998 Z" id="Path-615" fill="#3DCBFF"></path>
                        <path d="M5.00085449,4.01757812 L5.00085449,7.09988986 L0.0811767578,10.0561523 L6.04272461,13.4644775 L10.376709,10.5477295 L10.376709,6.98065359 L5.00085449,4.01757812 Z" id="Path-614" fill="#3DCBFF"></path>
                    </g>
                </g>
                <g id="Group-6" transform="translate(44.000000, 24.000000)">
                    <g id="Group-3">
                        <path d="M0.0898619433,14.074302 L6.12622023,17.578857 L15.7937008,11.4907227 L10.0951764,8.27050596 L0.0898619433,14.074302 Z" id="Combined-Shape-Copy-4" fill="#EEEEEE"></path>
                        <path d="M6.00805664,13.2480469 L6.00805664,17.5338196 L0.0827636719,14.2459717 L0.0827636719,10.0752326 L6.00805664,13.2480469 Z" id="Path-71" fill="#3DCBFF"></path>
                        <path d="M15.7248535,4.27840515 L15.7248535,11.5641778 L10,8.17073913 L10,1 L15.7248535,4.27840515 Z" id="Path-71-Copy" fill="#EEEEEE"></path>
                        <path d="M6.19628906,13.3051758 L6.19628906,17.4639645 L15.7463379,11.5610352 L15.7463379,4.23262535 L12.1571045,3.8782959 L10.458252,6.82421875 L10.458252,10.5486771 L6.19628906,13.3051758 Z" id="Path-75" fill="#00A3DF"></path>
                        <path d="M5.01116943,3.96697998 L10.3232422,7.06896973 L12.0921631,4.03283691 L15.7359619,4.08581543 L9.9934082,0.666015625 L7.30456543,1.03503418 L5.01116943,3.96697998 Z" id="Path-615" fill="#3DCBFF"></path>
                        <path d="M5.00085449,4.01757812 L5.00085449,7.09988986 L0.0811767578,10.0561523 L6.04272461,13.4644775 L10.376709,10.5477295 L10.376709,6.98065359 L5.00085449,4.01757812 Z" id="Path-614" fill="#3DCBFF"></path>
                    </g>
                </g>
            </g>
            <g id="Group-8-Copy" transform="translate(475.000000, 437.000000)" stroke-linecap="round" stroke="#8C919C" stroke-linejoin="round">
                <g id="Group-6">
                    <g id="Group-3">
                        <path d="M0.0898619433,14.074302 L6.12622023,17.578857 L15.7937008,11.4907227 L10.0951764,8.27050596 L0.0898619433,14.074302 Z" id="Combined-Shape-Copy-4" fill="#EEEEEE"></path>
                        <path d="M6.00805664,13.2480469 L6.00805664,17.5338196 L0.0827636719,14.2459717 L0.0827636719,10.0752326 L6.00805664,13.2480469 Z" id="Path-71" fill="#656871"></path>
                        <path d="M15.7248535,4.27840515 L15.7248535,11.5641778 L10,8.17073913 L10,1 L15.7248535,4.27840515 Z" id="Path-71-Copy" fill="#EEEEEE"></path>
                        <path d="M6.19628906,13.3051758 L6.19628906,17.4639645 L15.7463379,11.5610352 L15.7463379,4.23262535 L12.1571045,3.8782959 L10.458252,6.82421875 L10.458252,10.5486771 L6.19628906,13.3051758 Z" id="Path-75" fill="#333333"></path>
                        <path d="M5.01116943,3.96697998 L10.3232422,7.06896973 L12.0921631,4.03283691 L15.7359619,4.08581543 L9.9934082,0.666015625 L7.30456543,1.03503418 L5.01116943,3.96697998 Z" id="Path-615" fill="#656871"></path>
                        <path d="M5.00085449,4.01757812 L5.00085449,7.09988986 L0.0811767578,10.0561523 L6.04272461,13.4644775 L10.376709,10.5477295 L10.376709,6.98065359 L5.00085449,4.01757812 Z" id="Path-614" fill="#656871"></path>
                    </g>
                </g>
                <g id="Group-6" transform="translate(11.000000, 6.000000)">
                    <g id="Group-3">
                        <path d="M0.0898619433,14.074302 L6.12622023,17.578857 L15.7937008,11.4907227 L10.0951764,8.27050596 L0.0898619433,14.074302 Z" id="Combined-Shape-Copy-4" fill="#EEEEEE"></path>
                        <path d="M6.00805664,13.2480469 L6.00805664,17.5338196 L0.0827636719,14.2459717 L0.0827636719,10.0752326 L6.00805664,13.2480469 Z" id="Path-71" fill="#656871"></path>
                        <path d="M15.7248535,4.27840515 L15.7248535,11.5641778 L10,8.17073913 L10,1 L15.7248535,4.27840515 Z" id="Path-71-Copy" fill="#EEEEEE"></path>
                        <path d="M6.19628906,13.3051758 L6.19628906,17.4639645 L15.7463379,11.5610352 L15.7463379,4.23262535 L12.1571045,3.8782959 L10.458252,6.82421875 L10.458252,10.5486771 L6.19628906,13.3051758 Z" id="Path-75" fill="#333333"></path>
                        <path d="M5.01116943,3.96697998 L10.3232422,7.06896973 L12.0921631,4.03283691 L15.7359619,4.08581543 L9.9934082,0.666015625 L7.30456543,1.03503418 L5.01116943,3.96697998 Z" id="Path-615" fill="#656871"></path>
                        <path d="M5.00085449,4.01757812 L5.00085449,7.09988986 L0.0811767578,10.0561523 L6.04272461,13.4644775 L10.376709,10.5477295 L10.376709,6.98065359 L5.00085449,4.01757812 Z" id="Path-614" fill="#656871"></path>
                    </g>
                </g>
                <g id="Group-6" transform="translate(22.000000, 12.000000)">
                    <g id="Group-3">
                        <path d="M0.0898619433,14.074302 L6.12622023,17.578857 L15.7937008,11.4907227 L10.0951764,8.27050596 L0.0898619433,14.074302 Z" id="Combined-Shape-Copy-4" fill="#EEEEEE"></path>
                        <path d="M6.00805664,13.2480469 L6.00805664,17.5338196 L0.0827636719,14.2459717 L0.0827636719,10.0752326 L6.00805664,13.2480469 Z" id="Path-71" fill="#656871"></path>
                        <path d="M15.7248535,4.27840515 L15.7248535,11.5641778 L10,8.17073913 L10,1 L15.7248535,4.27840515 Z" id="Path-71-Copy" fill="#EEEEEE"></path>
                        <path d="M6.19628906,13.3051758 L6.19628906,17.4639645 L15.7463379,11.5610352 L15.7463379,4.23262535 L12.1571045,3.8782959 L10.458252,6.82421875 L10.458252,10.5486771 L6.19628906,13.3051758 Z" id="Path-75" fill="#333333"></path>
                        <path d="M5.01116943,3.96697998 L10.3232422,7.06896973 L12.0921631,4.03283691 L15.7359619,4.08581543 L9.9934082,0.666015625 L7.30456543,1.03503418 L5.01116943,3.96697998 Z" id="Path-615" fill="#656871"></path>
                        <path d="M5.00085449,4.01757812 L5.00085449,7.09988986 L0.0811767578,10.0561523 L6.04272461,13.4644775 L10.376709,10.5477295 L10.376709,6.98065359 L5.00085449,4.01757812 Z" id="Path-614" fill="#656871"></path>
                    </g>
                </g>
                <g id="Group-6" transform="translate(33.000000, 18.000000)">
                    <g id="Group-3">
                        <path d="M0.0898619433,14.074302 L6.12622023,17.578857 L15.7937008,11.4907227 L10.0951764,8.27050596 L0.0898619433,14.074302 Z" id="Combined-Shape-Copy-4" fill="#EEEEEE"></path>
                        <path d="M6.00805664,13.2480469 L6.00805664,17.5338196 L0.0827636719,14.2459717 L0.0827636719,10.0752326 L6.00805664,13.2480469 Z" id="Path-71" fill="#656871"></path>
                        <path d="M15.7248535,4.27840515 L15.7248535,11.5641778 L10,8.17073913 L10,1 L15.7248535,4.27840515 Z" id="Path-71-Copy" fill="#EEEEEE"></path>
                        <path d="M6.19628906,13.3051758 L6.19628906,17.4639645 L15.7463379,11.5610352 L15.7463379,4.23262535 L12.1571045,3.8782959 L10.458252,6.82421875 L10.458252,10.5486771 L6.19628906,13.3051758 Z" id="Path-75" fill="#333333"></path>
                        <path d="M5.01116943,3.96697998 L10.3232422,7.06896973 L12.0921631,4.03283691 L15.7359619,4.08581543 L9.9934082,0.666015625 L7.30456543,1.03503418 L5.01116943,3.96697998 Z" id="Path-615" fill="#656871"></path>
                        <path d="M5.00085449,4.01757812 L5.00085449,7.09988986 L0.0811767578,10.0561523 L6.04272461,13.4644775 L10.376709,10.5477295 L10.376709,6.98065359 L5.00085449,4.01757812 Z" id="Path-614" fill="#656871"></path>
                    </g>
                </g>
                <g id="Group-6" transform="translate(44.000000, 24.000000)">
                    <g id="Group-3">
                        <path d="M0.0898619433,14.074302 L6.12622023,17.578857 L15.7937008,11.4907227 L10.0951764,8.27050596 L0.0898619433,14.074302 Z" id="Combined-Shape-Copy-4" fill="#EEEEEE"></path>
                        <path d="M6.00805664,13.2480469 L6.00805664,17.5338196 L0.0827636719,14.2459717 L0.0827636719,10.0752326 L6.00805664,13.2480469 Z" id="Path-71" fill="#656871"></path>
                        <path d="M15.7248535,4.27840515 L15.7248535,11.5641778 L10,8.17073913 L10,1 L15.7248535,4.27840515 Z" id="Path-71-Copy" fill="#EEEEEE"></path>
                        <path d="M6.19628906,13.3051758 L6.19628906,17.4639645 L15.7463379,11.5610352 L15.7463379,4.23262535 L12.1571045,3.8782959 L10.458252,6.82421875 L10.458252,10.5486771 L6.19628906,13.3051758 Z" id="Path-75" fill="#333333"></path>
                        <path d="M5.01116943,3.96697998 L10.3232422,7.06896973 L12.0921631,4.03283691 L15.7359619,4.08581543 L9.9934082,0.666015625 L7.30456543,1.03503418 L5.01116943,3.96697998 Z" id="Path-615" fill="#656871"></path>
                        <path d="M5.00085449,4.01757812 L5.00085449,7.09988986 L0.0811767578,10.0561523 L6.04272461,13.4644775 L10.376709,10.5477295 L10.376709,6.98065359 L5.00085449,4.01757812 Z" id="Path-614" fill="#656871"></path>
                    </g>
                </g>
            </g>
            <g id="Group-5" transform="translate(356.000000, 347.000000)" stroke-linecap="round" stroke="#8C919C" stroke-linejoin="round">
                <g id="Group-4">
                    <g id="Group-9">
                        <path d="M0.220609643,9.60493678 L2.63612514,11.0073232 L18.2807633,1.79296889 L15.9542841,0.478283405 L0.220609643,9.60493678 Z" id="Combined-Shape-Copy-4" fill="#3DCBFF"></path>
                        <path d="M0.201599121,9.69543457 L0.201599121,12.8208708 L2.5079153,14.4000822 L2.5079153,11.3118142 L0.201599121,9.69543457 Z" id="Path-122" fill="#3DCBFF"></path>
                        <path d="M15.9924316,0.366821289 L0.264282227,9.6060791 L0.264282227,12.7296241 L2.55029297,14.467041 L2.55029297,11.1737139 L18.3348389,1.7532959 L15.9924316,0.366821289 Z" id="Path-600"></path>
                        <path d="M2.52631579,14.4196134 L2.52631579,11.1597416 L18.3276368,1.81996543 L18.3276368,4.97827143 L2.52631579,14.4196134 Z" id="Path-119" fill="#00A3DF"></path>
                    </g>
                </g>
                <g id="Group-4-Copy" transform="translate(5.000000, 3.000000)">
                    <path d="M2.52631579,14.4196134 L2.52631579,11.1597416 L18.3276368,1.81996543 L18.3276368,4.97827143 L2.52631579,14.4196134 Z" id="Path-119" fill="#00A3DF"></path>
                    <path d="M0.220609643,9.60493678 L2.63612514,11.0073232 L18.2807633,1.79296889 L15.9542841,0.478283405 L0.220609643,9.60493678 Z" id="Combined-Shape-Copy-4" fill="#3DCBFF"></path>
                    <path d="M0.201599121,9.69543457 L0.201599121,12.8208708 L2.5079153,14.4000822 L2.5079153,11.3118142 L0.201599121,9.69543457 Z" id="Path-122" fill="#3DCBFF"></path>
                </g>
                <g id="Group-4-Copy-2" transform="translate(10.000000, 6.000000)">
                    <path d="M2.52631579,14.4196134 L2.52631579,11.1597416 L18.3276368,1.81996543 L18.3276368,4.97827143 L2.52631579,14.4196134 Z" id="Path-119" fill="#00A3DF"></path>
                    <path d="M0.220609643,9.60493678 L2.63612514,11.0073232 L18.2807633,1.79296889 L15.9542841,0.478283405 L0.220609643,9.60493678 Z" id="Combined-Shape-Copy-4" fill="#3DCBFF"></path>
                    <path d="M0.201599121,9.69543457 L0.201599121,12.8208708 L2.5079153,14.4000822 L2.5079153,11.3118142 L0.201599121,9.69543457 Z" id="Path-122" fill="#3DCBFF"></path>
                </g>
                <g id="Group-4-Copy-3" transform="translate(15.000000, 9.000000)">
                    <path d="M2.52631579,14.4196134 L2.52631579,11.1597416 L18.3276368,1.81996543 L18.3276368,4.97827143 L2.52631579,14.4196134 Z" id="Path-119" fill="#00A3DF"></path>
                    <path d="M0.220609643,9.60493678 L2.63612514,11.0073232 L18.2807633,1.79296889 L15.9542841,0.478283405 L0.220609643,9.60493678 Z" id="Combined-Shape-Copy-4" fill="#3DCBFF"></path>
                    <path d="M0.201599121,9.69543457 L0.201599121,12.8208708 L2.5079153,14.4000822 L2.5079153,11.3118142 L0.201599121,9.69543457 Z" id="Path-122" fill="#3DCBFF"></path>
                </g>
                <g id="Group-4-Copy-4" transform="translate(20.000000, 12.000000)">
                    <path d="M2.52631579,14.4196134 L2.52631579,11.1597416 L18.3276368,1.81996543 L18.3276368,4.97827143 L2.52631579,14.4196134 Z" id="Path-119" fill="#00A3DF"></path>
                    <path d="M0.220609643,9.60493678 L2.63612514,11.0073232 L18.2807633,1.79296889 L15.9542841,0.478283405 L0.220609643,9.60493678 Z" id="Combined-Shape-Copy-4" fill="#3DCBFF"></path>
                    <path d="M0.201599121,9.69543457 L0.201599121,12.8208708 L2.5079153,14.4000822 L2.5079153,11.3118142 L0.201599121,9.69543457 Z" id="Path-122" fill="#3DCBFF"></path>
                </g>
                <g id="Group-4-Copy-5" transform="translate(25.000000, 15.000000)">
                    <path d="M2.52631579,14.4196134 L2.52631579,11.1597416 L18.3276368,1.81996543 L18.3276368,4.97827143 L2.52631579,14.4196134 Z" id="Path-119" fill="#00A3DF"></path>
                    <path d="M0.220609643,9.60493678 L2.63612514,11.0073232 L18.2807633,1.79296889 L15.9542841,0.478283405 L0.220609643,9.60493678 Z" id="Combined-Shape-Copy-4" fill="#3DCBFF"></path>
                    <path d="M0.201599121,9.69543457 L0.201599121,12.8208708 L2.5079153,14.4000822 L2.5079153,11.3118142 L0.201599121,9.69543457 Z" id="Path-122" fill="#3DCBFF"></path>
                </g>
                <g id="Group-4-Copy-6" transform="translate(30.000000, 18.000000)">
                    <path d="M2.52631579,14.4196134 L2.52631579,11.1597416 L18.3276368,1.81996543 L18.3276368,4.97827143 L2.52631579,14.4196134 Z" id="Path-119" fill="#00A3DF"></path>
                    <path d="M0.220609643,9.60493678 L2.63612514,11.0073232 L18.2807633,1.79296889 L15.9542841,0.478283405 L0.220609643,9.60493678 Z" id="Combined-Shape-Copy-4" fill="#3DCBFF"></path>
                    <path d="M0.201599121,9.69543457 L0.201599121,12.8208708 L2.5079153,14.4000822 L2.5079153,11.3118142 L0.201599121,9.69543457 Z" id="Path-122" fill="#3DCBFF"></path>
                </g>
                <g id="Group-4-Copy-7" transform="translate(35.000000, 21.000000)">
                    <path d="M2.52631579,14.4196134 L2.52631579,11.1597416 L18.3276368,1.81996543 L18.3276368,4.97827143 L2.52631579,14.4196134 Z" id="Path-119" fill="#00A3DF"></path>
                    <path d="M0.220609643,9.60493678 L2.63612514,11.0073232 L18.2807633,1.79296889 L15.9542841,0.478283405 L0.220609643,9.60493678 Z" id="Combined-Shape-Copy-4" fill="#3DCBFF"></path>
                    <path d="M0.201599121,9.69543457 L0.201599121,12.8208708 L2.5079153,14.4000822 L2.5079153,11.3118142 L0.201599121,9.69543457 Z" id="Path-122" fill="#3DCBFF"></path>
                </g>
                <g id="Group-4-Copy-8" transform="translate(40.000000, 24.000000)">
                    <path d="M2.52631579,14.4196134 L2.52631579,11.1597416 L18.3276368,1.81996543 L18.3276368,4.97827143 L2.52631579,14.4196134 Z" id="Path-119" fill="#00A3DF"></path>
                    <path d="M0.220609643,9.60493678 L2.63612514,11.0073232 L18.2807633,1.79296889 L15.9542841,0.478283405 L0.220609643,9.60493678 Z" id="Combined-Shape-Copy-4" fill="#3DCBFF"></path>
                    <path d="M0.201599121,9.69543457 L0.201599121,12.8208708 L2.5079153,14.4000822 L2.5079153,11.3118142 L0.201599121,9.69543457 Z" id="Path-122" fill="#3DCBFF"></path>
                </g>
                <g id="Group-4-Copy-9" transform="translate(45.000000, 27.000000)">
                    <path d="M2.52631579,14.4196134 L2.52631579,11.1597416 L18.3276368,1.81996543 L18.3276368,4.97827143 L2.52631579,14.4196134 Z" id="Path-119" fill="#00A3DF"></path>
                    <path d="M0.220609643,9.60493678 L2.63612514,11.0073232 L18.2807633,1.79296889 L15.9542841,0.478283405 L0.220609643,9.60493678 Z" id="Combined-Shape-Copy-4" fill="#3DCBFF"></path>
                    <path d="M0.201599121,9.69543457 L0.201599121,12.8208708 L2.5079153,14.4000822 L2.5079153,11.3118142 L0.201599121,9.69543457 Z" id="Path-122" fill="#3DCBFF"></path>
                </g>
            </g>
            <text id="Water-Resources-Depa" font-family="Lato-Bold, Lato" font-size="20" font-weight="bold" fill="#FF5757">
                <tspan x="50" y="349">Water Resources </tspan>
                <tspan x="50" y="373">Department</tspan>
                <tspan x="50" y="397">Rule Sheet</tspan>
            </text>
            <text id="Industry-Department-" font-family="Lato-Bold, Lato" font-size="20" font-weight="bold" fill="#FF5757">
                <tspan x="733" y="485">Industry Department </tspan>
                <tspan x="733" y="509">Rule Sheet</tspan>
            </text>
            <text id="City-Planning-Depart" font-family="Lato-Bold, Lato" font-size="20" font-weight="bold" fill="#FF5757">
                <tspan x="905" y="349">City Planning </tspan>
                <tspan x="905" y="373">Department </tspan>
                <tspan x="905" y="397">Rule Sheet</tspan>
            </text>
            <text id="Game-Board" font-family="Lato-Bold, Lato" font-size="20" font-weight="bold" fill="#FF5757">
                <tspan x="733" y="392">Game Board</tspan>
            </text>
            <text id="Group-" font-family="Lato-Bold, Lato" font-size="20" font-weight="bold" fill="#FF5757">
                <tspan x="50" y="209">Group </tspan>
                <tspan x="50" y="233">Scoring Sheet</tspan>
            </text>
            <text id="Event-Card" font-family="Lato-Bold, Lato" font-size="20" font-weight="bold" fill="#FF5757">
                <tspan x="405.385" y="80">Event Card</tspan>
            </text>
            <text id="Game-Pieces:" font-family="Lato-Bold, Lato" font-size="20" font-weight="bold" fill="#FF5757">
                <tspan x="50" y="485">Game Pieces:</tspan>
                <tspan x="50" y="509">5 Buildings</tspan>
                <tspan x="50" y="533">10 Connectors</tspan>
            </text>
            <text id="Environmental-Protec" font-family="Lato-Bold, Lato" font-size="20" font-weight="bold" fill="#FF5757">
                <tspan x="733" y="70">Environmental </tspan>
                <tspan x="733" y="94">Protection </tspan>
                <tspan x="733" y="118">Department </tspan>
                <tspan x="733" y="142">Rule Sheet</tspan>
            </text>
            <text id="Individual-" font-family="Lato-Bold, Lato" font-size="20" font-weight="bold" fill="#FF5757">
                <tspan x="50" y="70">Individual </tspan>
                <tspan x="50" y="94">Scoring Sheet</tspan>
            </text>
            <g id="Group-8-Copy" transform="translate(595.000000, 181.000000)" stroke-linecap="round" stroke="#8C919C" stroke-linejoin="round">
                <g id="Group-6">
                    <g id="Group-3">
                        <path d="M0.0898619433,14.074302 L6.12622023,17.578857 L15.7937008,11.4907227 L10.0951764,8.27050596 L0.0898619433,14.074302 Z" id="Combined-Shape-Copy-4" fill="#EEEEEE"></path>
                        <path d="M6.00805664,13.2480469 L6.00805664,17.5338196 L0.0827636719,14.2459717 L0.0827636719,10.0752326 L6.00805664,13.2480469 Z" id="Path-71" fill="#00CE5C"></path>
                        <path d="M15.7248535,4.27840515 L15.7248535,11.5641778 L10,8.17073913 L10,1 L15.7248535,4.27840515 Z" id="Path-71-Copy" fill="#EEEEEE"></path>
                        <path d="M6.19628906,13.3051758 L6.19628906,17.4639645 L15.7463379,11.5610352 L15.7463379,4.23262535 L12.1571045,3.8782959 L10.458252,6.82421875 L10.458252,10.5486771 L6.19628906,13.3051758 Z" id="Path-75" fill="#2B8E57"></path>
                        <path d="M5.01116943,3.96697998 L10.3232422,7.06896973 L12.0921631,4.03283691 L15.7359619,4.08581543 L9.9934082,0.666015625 L7.30456543,1.03503418 L5.01116943,3.96697998 Z" id="Path-615" fill="#00CE5C"></path>
                        <path d="M5.00085449,4.01757812 L5.00085449,7.09988986 L0.0811767578,10.0561523 L6.04272461,13.4644775 L10.376709,10.5477295 L10.376709,6.98065359 L5.00085449,4.01757812 Z" id="Path-614" fill="#00CE5C"></path>
                    </g>
                </g>
                <g id="Group-6" transform="translate(11.000000, 6.000000)">
                    <g id="Group-3">
                        <path d="M0.0898619433,14.074302 L6.12622023,17.578857 L15.7937008,11.4907227 L10.0951764,8.27050596 L0.0898619433,14.074302 Z" id="Combined-Shape-Copy-4" fill="#EEEEEE"></path>
                        <path d="M6.00805664,13.2480469 L6.00805664,17.5338196 L0.0827636719,14.2459717 L0.0827636719,10.0752326 L6.00805664,13.2480469 Z" id="Path-71" fill="#00CE5C"></path>
                        <path d="M15.7248535,4.27840515 L15.7248535,11.5641778 L10,8.17073913 L10,1 L15.7248535,4.27840515 Z" id="Path-71-Copy" fill="#EEEEEE"></path>
                        <path d="M6.19628906,13.3051758 L6.19628906,17.4639645 L15.7463379,11.5610352 L15.7463379,4.23262535 L12.1571045,3.8782959 L10.458252,6.82421875 L10.458252,10.5486771 L6.19628906,13.3051758 Z" id="Path-75" fill="#2B8E57"></path>
                        <path d="M5.01116943,3.96697998 L10.3232422,7.06896973 L12.0921631,4.03283691 L15.7359619,4.08581543 L9.9934082,0.666015625 L7.30456543,1.03503418 L5.01116943,3.96697998 Z" id="Path-615" fill="#00CE5C"></path>
                        <path d="M5.00085449,4.01757812 L5.00085449,7.09988986 L0.0811767578,10.0561523 L6.04272461,13.4644775 L10.376709,10.5477295 L10.376709,6.98065359 L5.00085449,4.01757812 Z" id="Path-614" fill="#00CE5C"></path>
                    </g>
                </g>
                <g id="Group-6" transform="translate(22.000000, 12.000000)">
                    <g id="Group-3">
                        <path d="M0.0898619433,14.074302 L6.12622023,17.578857 L15.7937008,11.4907227 L10.0951764,8.27050596 L0.0898619433,14.074302 Z" id="Combined-Shape-Copy-4" fill="#EEEEEE"></path>
                        <path d="M6.00805664,13.2480469 L6.00805664,17.5338196 L0.0827636719,14.2459717 L0.0827636719,10.0752326 L6.00805664,13.2480469 Z" id="Path-71" fill="#00CE5C"></path>
                        <path d="M15.7248535,4.27840515 L15.7248535,11.5641778 L10,8.17073913 L10,1 L15.7248535,4.27840515 Z" id="Path-71-Copy" fill="#EEEEEE"></path>
                        <path d="M6.19628906,13.3051758 L6.19628906,17.4639645 L15.7463379,11.5610352 L15.7463379,4.23262535 L12.1571045,3.8782959 L10.458252,6.82421875 L10.458252,10.5486771 L6.19628906,13.3051758 Z" id="Path-75" fill="#2B8E57"></path>
                        <path d="M5.01116943,3.96697998 L10.3232422,7.06896973 L12.0921631,4.03283691 L15.7359619,4.08581543 L9.9934082,0.666015625 L7.30456543,1.03503418 L5.01116943,3.96697998 Z" id="Path-615" fill="#00CE5C"></path>
                        <path d="M5.00085449,4.01757812 L5.00085449,7.09988986 L0.0811767578,10.0561523 L6.04272461,13.4644775 L10.376709,10.5477295 L10.376709,6.98065359 L5.00085449,4.01757812 Z" id="Path-614" fill="#00CE5C"></path>
                    </g>
                </g>
                <g id="Group-6" transform="translate(33.000000, 18.000000)">
                    <g id="Group-3">
                        <path d="M0.0898619433,14.074302 L6.12622023,17.578857 L15.7937008,11.4907227 L10.0951764,8.27050596 L0.0898619433,14.074302 Z" id="Combined-Shape-Copy-4" fill="#EEEEEE"></path>
                        <path d="M6.00805664,13.2480469 L6.00805664,17.5338196 L0.0827636719,14.2459717 L0.0827636719,10.0752326 L6.00805664,13.2480469 Z" id="Path-71" fill="#00CE5C"></path>
                        <path d="M15.7248535,4.27840515 L15.7248535,11.5641778 L10,8.17073913 L10,1 L15.7248535,4.27840515 Z" id="Path-71-Copy" fill="#EEEEEE"></path>
                        <path d="M6.19628906,13.3051758 L6.19628906,17.4639645 L15.7463379,11.5610352 L15.7463379,4.23262535 L12.1571045,3.8782959 L10.458252,6.82421875 L10.458252,10.5486771 L6.19628906,13.3051758 Z" id="Path-75" fill="#2B8E57"></path>
                        <path d="M5.01116943,3.96697998 L10.3232422,7.06896973 L12.0921631,4.03283691 L15.7359619,4.08581543 L9.9934082,0.666015625 L7.30456543,1.03503418 L5.01116943,3.96697998 Z" id="Path-615" fill="#00CE5C"></path>
                        <path d="M5.00085449,4.01757812 L5.00085449,7.09988986 L0.0811767578,10.0561523 L6.04272461,13.4644775 L10.376709,10.5477295 L10.376709,6.98065359 L5.00085449,4.01757812 Z" id="Path-614" fill="#00CE5C"></path>
                    </g>
                </g>
                <g id="Group-6" transform="translate(44.000000, 24.000000)">
                    <g id="Group-3">
                        <path d="M0.0898619433,14.074302 L6.12622023,17.578857 L15.7937008,11.4907227 L10.0951764,8.27050596 L0.0898619433,14.074302 Z" id="Combined-Shape-Copy-4" fill="#EEEEEE"></path>
                        <path d="M6.00805664,13.2480469 L6.00805664,17.5338196 L0.0827636719,14.2459717 L0.0827636719,10.0752326 L6.00805664,13.2480469 Z" id="Path-71" fill="#00CE5C"></path>
                        <path d="M15.7248535,4.27840515 L15.7248535,11.5641778 L10,8.17073913 L10,1 L15.7248535,4.27840515 Z" id="Path-71-Copy" fill="#EEEEEE"></path>
                        <path d="M6.19628906,13.3051758 L6.19628906,17.4639645 L15.7463379,11.5610352 L15.7463379,4.23262535 L12.1571045,3.8782959 L10.458252,6.82421875 L10.458252,10.5486771 L6.19628906,13.3051758 Z" id="Path-75" fill="#2B8E57"></path>
                        <path d="M5.01116943,3.96697998 L10.3232422,7.06896973 L12.0921631,4.03283691 L15.7359619,4.08581543 L9.9934082,0.666015625 L7.30456543,1.03503418 L5.01116943,3.96697998 Z" id="Path-615" fill="#00CE5C"></path>
                        <path d="M5.00085449,4.01757812 L5.00085449,7.09988986 L0.0811767578,10.0561523 L6.04272461,13.4644775 L10.376709,10.5477295 L10.376709,6.98065359 L5.00085449,4.01757812 Z" id="Path-614" fill="#00CE5C"></path>
                    </g>
                </g>
            </g>
            <g id="Group-10" transform="translate(142.000000, 190.000000)">
                <circle id="Oval-23" fill="#FF5757" cx="164" cy="6" r="6"></circle>
                <path d="M163,6 L0,6" id="Path-556" stroke="#FF5757" stroke-width="2" stroke-linecap="round" stroke-linejoin="round"></path>
            </g>
            <g id="Group-10-Copy-2" transform="translate(176.000000, 371.000000)">
                <circle id="Oval-23" fill="#FF5757" cx="104" cy="6" r="6"></circle>
                <path d="M103,6 L0.980394006,6" id="Path-556" stroke="#FF5757" stroke-width="2" stroke-linecap="round" stroke-linejoin="round"></path>
            </g>
            <g id="Group-10" transform="translate(455.000000, 177.500000) rotate(-270.000000) translate(-455.000000, -177.500000) translate(372.500000, 171.500000)">
                <circle id="Oval-23" fill="#FF5757" cx="159" cy="6" r="6"></circle>
                <path d="M160,6 L0,6" id="Path-556" stroke="#FF5757" stroke-width="2" stroke-linecap="round" stroke-linejoin="round"></path>
            </g>
            <g id="Group-10-Copy-3" transform="translate(685.000000, 386.500000) rotate(-180.000000) translate(-685.000000, -386.500000) translate(650.000000, 380.000000)">
                <path d="M63.9830045,12.0525095 C67.296713,12.0525095 69.9830045,9.36621802 69.9830045,6.05250952 C69.9830045,2.73880103 67.296713,0.0525095242 63.9830045,0.0525095242 C60.669296,0.0525095242 57.9830045,2.73880103 57.9830045,6.05250952 C57.9830045,9.36621802 60.669296,12.0525095 63.9830045,12.0525095 Z" id="Oval-23" fill="#FF5757"></path>
                <path d="M62.9801107,7.20920042 L0.989553616,7.20920042" id="Path-562" stroke="#FF5757" stroke-width="2" stroke-linecap="round" stroke-linejoin="round"></path>
            </g>
            <g id="Group-10-Copy-4" transform="translate(290.608110, 454.109844) rotate(-90.000000) translate(-290.608110, -454.109844) translate(234.108110, 353.609844)">
                <path d="M107.419019,200.125393 C110.492603,200.125393 112.984236,197.64574 112.984236,194.586932 C112.984236,191.528124 110.492603,189.04847 107.419019,189.04847 C104.345434,189.04847 101.853801,191.528124 101.853801,194.586932 C101.853801,197.64574 104.345434,200.125393 107.419019,200.125393 Z" id="Oval-23" fill="#FF5757"></path>
                <path d="M107.535059,195.101395 L0.609638972,195.101395 L0.609638972,0.155034195" id="Path-562" stroke="#FF5757" stroke-width="2" stroke-linecap="round" stroke-linejoin="round"></path>
            </g>
            <g id="Group-10-Copy-3" transform="translate(646.000000, 118.000000) rotate(-180.000000) translate(-646.000000, -118.000000) translate(572.000000, 112.000000)">
                <circle id="Oval-23" fill="#FF5757" cx="142" cy="6" r="6"></circle>
                <path d="M138,6 L0,6" id="Path-556" stroke="#FF5757" stroke-width="2" stroke-linecap="round" stroke-linejoin="round"></path>
            </g>
            <g id="Group-10-Copy-3" transform="translate(689.500000, 486.000000) rotate(-180.000000) translate(-689.500000, -486.000000) translate(659.000000, 480.000000)">
                <circle id="Oval-23" fill="#FF5757" cx="55" cy="6" r="6"></circle>
                <path d="M54.962506,6.13058844 L0.970730466,6.13058844" id="Path-562" stroke="#FF5757" stroke-width="2" stroke-linecap="round" stroke-linejoin="round"></path>
            </g>
            <g id="Group-10-Copy" transform="translate(98.000000, 107.000000)">
                <circle id="Oval-23" fill="#FF5757" cx="164" cy="29" r="6"></circle>
                <path d="M163.275197,29 L0,29 L1.77033697e-15,0.0882031293" id="Path-556" stroke="#FF5757" stroke-width="2" stroke-linecap="round" stroke-linejoin="round"></path>
            </g>
            <g id="Group-10-Copy-5" transform="translate(901.000000, 310.000000) rotate(-180.000000) translate(-901.000000, -310.000000) translate(857.000000, 300.000000)">
                <circle id="Oval-23" fill="#FF5757" cx="82" cy="14" r="6"></circle>
                <path d="M85.2751969,14 L0,14 L9.2460972e-16,-2.39808173e-14" id="Path-556" stroke="#FF5757" stroke-width="2" stroke-linecap="round" stroke-linejoin="round"></path>
            </g>
        </g>
    </g>
</svg>