<?xml version="1.0" encoding="UTF-8" standalone="no"?>
<svg width="800px" height="480px" viewBox="0 0 800 480" version="1.1" xmlns="http://www.w3.org/2000/svg" xmlns:xlink="http://www.w3.org/1999/xlink">
    <!-- Generator: Sketch 3.6.1 (26313) - http://www.bohemiancoding.com/sketch -->
    <title>dashboard_wf_admin</title>
    <desc>Created with Sketch.</desc>
    <defs></defs>
    <g id="Page-3" stroke="none" stroke-width="1" fill="none" fill-rule="evenodd">
        <g id="dashboard_wf_admin">
            <path d="M305,317 L305,190" id="Path-14-Copy" stroke="#8C919C" stroke-linecap="round" stroke-linejoin="round"></path>
            <path id="Path-14-Copy-decoration-1" d="M308,200.8 L305,190 L302,200.8" stroke="#8C919C" stroke-linecap="round" stroke-linejoin="round"></path>
            <path d="M417.585938,342.386719 L375.45773,342.386719" id="Path-177" stroke="#8C919C"></path>
            <path d="M148,53 L223,53" id="Path-7-Copy-2" stroke="#8C919C" stroke-linecap="round" stroke-linejoin="round"></path>
            <path id="Path-7-Copy-2-decoration-1" d="M212.2,56 L223,53 L212.2,50" stroke="#8C919C" stroke-linecap="round" stroke-linejoin="round"></path>
            <path d="M339,53 L414,53" id="Path-7-Copy-2" stroke="#8C919C" stroke-linecap="round" stroke-linejoin="round"></path>
            <path id="Path-7-Copy-2-decoration-1" d="M403.2,56 L414,53 L403.2,50" stroke="#8C919C" stroke-linecap="round" stroke-linejoin="round"></path>
            <path d="M495,185.496929 L495,226.195382" id="Path-3-Copy-2" stroke="#8C919C" stroke-linecap="round" stroke-linejoin="round"></path>
            <path id="Path-3-Copy-2-decoration-1" d="M492,215.395382 L495,226.195382 L498,215.395382" stroke="#8C919C" stroke-linecap="round" stroke-linejoin="round"></path>
            <path d="M495,270.496929 L495,311.195382" id="Path-3-Copy-2" stroke="#8C919C" stroke-linecap="round" stroke-linejoin="round"></path>
            <path id="Path-3-Copy-2-decoration-1" d="M492,300.395382 L495,311.195382 L498,300.395382" stroke="#8C919C" stroke-linecap="round" stroke-linejoin="round"></path>
            <path d="M495,355.496929 L495,396.195382" id="Path-3-Copy-2" stroke="#8C919C" stroke-linecap="round" stroke-linejoin="round"></path>
            <path id="Path-3-Copy-2-decoration-1" d="M492,385.395382 L495,396.195382 L498,385.395382" stroke="#8C919C" stroke-linecap="round" stroke-linejoin="round"></path>
            <path d="M495,85.3015468 L495,126" id="Path-3-Copy-2" stroke="#8C919C" stroke-linecap="round" stroke-linejoin="round"></path>
            <path id="Path-3-Copy-2-decoration-1" d="M492,115.2 L495,126 L498,115.2" stroke="#8C919C" stroke-linecap="round" stroke-linejoin="round"></path>
            <g id="Group-6" transform="translate(415.000000, 228.000000)">
                <path d="M0,4.0065556 C0,1.79379604 1.796875,3.63691454e-14 3.99499651,3.63691454e-14 L156.005003,3.63691454e-14 C158.211379,3.63691454e-14 160,1.79568082 160,4.0065556 L160,55.9934444 C160,58.206204 158.203125,60 156.005003,60 L3.99499651,60 C1.78862086,60 0,58.2043192 0,55.9934444 L0,4.0065556 Z" id="Rectangle-61-Copy" stroke="#CBCED5" stroke-width="3" fill="#FFFFFF"></path>
                <text id="User-as-a-Member" font-family="Roboto-Regular, Roboto" font-size="14" font-weight="normal" fill="#4C4F58">
                    <tspan x="16.340332" y="35">Requests PIN Codes</tspan>
                </text>
            </g>
            <g id="Group-6-Copy-2" transform="translate(415.000000, 313.000000)">
                <path d="M0,4.0065556 C0,1.79379604 1.796875,3.63691454e-14 3.99499651,3.63691454e-14 L156.005003,3.63691454e-14 C158.211379,3.63691454e-14 160,1.79568082 160,4.0065556 L160,55.9934444 C160,58.206204 158.203125,60 156.005003,60 L3.99499651,60 C1.78862086,60 0,58.2043192 0,55.9934444 L0,4.0065556 Z" id="Rectangle-61-Copy" stroke="#CBCED5" stroke-width="3" fill="#FFFFFF"></path>
                <text id="User-as-a-Member" font-family="Roboto-Regular, Roboto" font-size="14" font-weight="normal" fill="#4C4F58">
                    <tspan x="16.8530273" y="27">Generated PIN Code </tspan>
                    <tspan x="51.6958008" y="43">Available</tspan>
                </text>
            </g>
            <text id="User-as-a-Member" font-family="Roboto-Regular, Roboto" font-size="12" font-weight="normal" fill="#8C919C">
                <tspan x="315" y="389">Sends Data</tspan>
            </text>
            <text id="User-as-a-Member-Copy-3" font-family="Roboto-Regular, Roboto" font-size="12" font-weight="normal" fill="#8C919C">
                <tspan x="389" y="360">Stored in</tspan>
            </text>
            <g id="Group-7" transform="translate(225.000000, 313.000000)">
                <path d="M0,4.0065556 C0,1.79379604 1.796875,3.63691454e-14 3.99499651,3.63691454e-14 L156.005003,3.63691454e-14 C158.211379,3.63691454e-14 160,1.79568082 160,4.0065556 L160,55.9934444 C160,58.206204 158.203125,60 156.005003,60 L3.99499651,60 C1.78862086,60 0,58.2043192 0,55.9934444 L0,4.0065556 Z" id="Rectangle-61-Copy" stroke="#CBCED5" stroke-width="3" fill="#FFFFFF"></path>
                <text id="User-as-a-Member" font-family="Roboto-Regular, Roboto" font-size="14" font-weight="normal" fill="#4C4F58">
                    <tspan x="50.4550781" y="35">Database</tspan>
                </text>
            </g>
            <g id="Group-7-Copy" transform="translate(415.000000, 398.000000)">
                <rect id="Rectangle-61-Copy" fill="#FFFFFF" x="0" y="0" width="160" height="60" rx="4"></rect>
                <text id="User-as-a-Member" font-family="Roboto-Regular, Roboto" font-size="14" font-weight="normal" fill="#4C4F58">
                    <tspan x="19.9633789" y="27">Distribute PINs and </tspan>
                    <tspan x="54.2421875" y="43">Address</tspan>
                </text>
            </g>
            <g id="Group-10" transform="translate(225.000000, 398.000000)">
                <path d="M0,4.0065556 C0,1.79379604 1.796875,3.63691454e-14 3.99499651,3.63691454e-14 L156.005003,3.63691454e-14 C158.211379,3.63691454e-14 160,1.79568082 160,4.0065556 L160,55.9934444 C160,58.206204 158.203125,60 156.005003,60 L3.99499651,60 C1.78862086,60 0,58.2043192 0,55.9934444 L0,4.0065556 Z" id="Rectangle-61-Copy" stroke="#CBCED5" stroke-width="3" fill="#FFFFFF"></path>
                <text id="User-as-a-Member" font-family="Roboto-Regular, Roboto" font-size="14" font-weight="normal" fill="#4C4F58">
                    <tspan x="29.4550781" y="35">End-User’s Page</tspan>
                </text>
            </g>
            <g id="Group-5" transform="translate(35.000000, 23.000000)">
                <path d="M0,4.0065556 C0,1.79379604 1.796875,3.63691454e-14 3.99499651,3.63691454e-14 L156.005003,3.63691454e-14 C158.211379,3.63691454e-14 160,1.79568082 160,4.0065556 L160,55.9934444 C160,58.206204 158.203125,60 156.005003,60 L3.99499651,60 C1.78862086,60 0,58.2043192 0,55.9934444 L0,4.0065556 Z" id="Rectangle-61-Copy" stroke="#CBCED5" stroke-width="3" fill="#FFFFFF"></path>
                <text id="User-as-a-Member" font-family="Roboto-Regular, Roboto" font-size="14" font-weight="normal" fill="#4C4F58">
                    <tspan x="11.5483398" y="27">Admin acquires portal </tspan>
                    <tspan x="55.0009766" y="43">address</tspan>
                </text>
            </g>
            <g id="Group-5-Copy" transform="translate(225.000000, 23.000000)">
                <rect id="Rectangle-61-Copy" stroke="#000000" stroke-width="2" fill="#FFFFFF" x="0" y="0" width="160" height="60" rx="4"></rect>
                <text id="User-as-a-Member" font-family="Roboto-Regular, Roboto" font-size="14" font-weight="normal" fill="#4C4F58">
                    <tspan x="28.1323242" y="27">Admin Sign Up &amp; </tspan>
                    <tspan x="43.2226562" y="43">Log In Page</tspan>
                </text>
            </g>
            <g id="Group-5-Copy-2" transform="translate(415.000000, 23.000000)">
                <rect id="Rectangle-61-Copy" fill="#FFFFFF" x="0" y="0" width="160" height="60" rx="4"></rect>
                <text id="User-as-a-Member" font-family="Roboto-Regular, Roboto" font-size="14" font-weight="normal" fill="#4C4F58">
                    <tspan x="46.4560547" y="19">If two level </tspan>
                    <tspan x="20.059082" y="35">authentication gets </tspan>
                    <tspan x="50.9301758" y="51">approved</tspan>
                </text>
            </g>
            <g id="Group" transform="translate(225.000000, 128.000000)">
                <path d="M0,4.0065556 C0,1.79379604 1.796875,3.63691454e-14 3.99499651,3.63691454e-14 L156.005003,3.63691454e-14 C158.211379,3.63691454e-14 160,1.79568082 160,4.0065556 L160,55.9934444 C160,58.206204 158.203125,60 156.005003,60 L3.99499651,60 C1.78862086,60 0,58.2043192 0,55.9934444 L0,4.0065556 Z" id="Rectangle-61-Copy" stroke="#000000" stroke-width="2" fill="#FFFFFF"></path>
                <text id="User-as-a-Member" font-family=".AppleSystemUIFont" font-size="16" font-weight="normal" fill="#4C4F58">
                    <tspan x="40.2304688" y="36">Dashboard</tspan>
                </text>
            </g>
            <g id="block" transform="translate(415.000000, 128.000000)">
                <rect id="Rectangle-61-Copy" stroke="#000000" stroke-width="2" fill="#FFFFFF" x="0" y="0" width="160" height="60" rx="4"></rect>
                <text id="User-as-a-Member" font-family="Roboto-Regular, Roboto" font-size="14" font-weight="normal" fill="#4C4F58">
                    <tspan x="20.8007812" y="27">Generate PIN Code </tspan>
                    <tspan x="64.140625" y="43">Page</tspan>
                </text>
            </g>
            <g id="block-copy" transform="translate(605.000000, 128.000000)">
                <path d="M0,4.0065556 C0,1.79379604 1.796875,3.63691454e-14 3.99499651,3.63691454e-14 L156.005003,3.63691454e-14 C158.211379,3.63691454e-14 160,1.79568082 160,4.0065556 L160,55.9934444 C160,58.206204 158.203125,60 156.005003,60 L3.99499651,60 C1.78862086,60 0,58.2043192 0,55.9934444 L0,4.0065556 Z" id="Rectangle-61-Copy" stroke="#CBCED5" stroke-width="3" fill="#FFFFFF"></path>
                <text id="User-as-a-Member" font-family="Roboto-Regular, Roboto" font-size="14" font-weight="normal" fill="#4C4F58">
                    <tspan x="17.8203125" y="27">Page Generation for </tspan>
                    <tspan x="48.4453125" y="43">End-Users</tspan>
                </text>
            </g>
            <path d="M305,397 L305,377" id="Path-14-Copy" stroke="#8C919C" stroke-linecap="round" stroke-linejoin="round"></path>
            <path id="Path-14-Copy-decoration-1" d="M308,387.8 L305,377 L302,387.8" stroke="#8C919C" stroke-linecap="round" stroke-linejoin="round"></path>
            <path d="M305,123.371398 L305,105 L690,105 L690,125" id="Path-75" stroke="#8C919C" stroke-linecap="round" stroke-linejoin="round"></path>
            <path id="Path-75-decoration-1" d="M308,112.571398 L305,123.371398 L302,112.571398" stroke="#8C919C" stroke-linecap="round" stroke-linejoin="round"></path>
            <path id="Path-75-decoration-2" d="M687,114.2 L690,125 L693,114.2" stroke="#8C919C" stroke-linecap="round" stroke-linejoin="round"></path>
        </g>
    </g>
</svg>