<?xml version="1.0" encoding="UTF-8" standalone="no"?>
<svg width="800px" height="540px" viewBox="0 0 800 540" version="1.1" xmlns="http://www.w3.org/2000/svg" xmlns:xlink="http://www.w3.org/1999/xlink">
    <!-- Generator: Sketch 3.6.1 (26313) - http://www.bohemiancoding.com/sketch -->
    <title>dashboard_wf_enduser</title>
    <desc>Created with Sketch.</desc>
    <defs></defs>
    <g id="Page-3" stroke="none" stroke-width="1" fill="none" fill-rule="evenodd">
        <g id="dashboard_wf_enduser">
            <g id="Group-2" transform="translate(40.000000, 20.000000)">
                <path d="M270,42.3015468 L270,83" id="Path-3-Copy-2" stroke="#8C919C" stroke-linecap="round" stroke-linejoin="round"></path>
                <path id="Path-3-Copy-2-decoration-1" d="M267,72.2 L270,83 L273,72.2" stroke="#8C919C" stroke-linecap="round" stroke-linejoin="round"></path>
                <path d="M458.679688,271.988281 L498.233506,232.434463" id="Path-129" stroke="#8C919C"></path>
                <path d="M598.679688,271.988281 L638.233506,232.434463" id="Path-129" stroke="#8C919C" transform="translate(618.456597, 252.211372) scale(-1, 1) translate(-618.456597, -252.211372) "></path>
                <path d="M270,264 L270,147" id="Path-14-Copy" stroke="#8C919C" stroke-linecap="round" stroke-linejoin="round"></path>
                <path id="Path-14-Copy-decoration-1" d="M273,253.2 L270,264 L267,253.2" stroke="#8C919C" stroke-linecap="round" stroke-linejoin="round"></path>
                <path d="M270,354 L270,330" id="Path-14-Copy" stroke="#8C919C" stroke-linecap="round" stroke-linejoin="round"></path>
                <path id="Path-14-Copy-decoration-1" d="M273,343.2 L270,354 L267,343.2" stroke="#8C919C" stroke-linecap="round" stroke-linejoin="round"></path>
                <path d="M113,30 L188,30" id="Path-7-Copy-2" stroke="#8C919C" stroke-linecap="round" stroke-linejoin="round"></path>
                <path id="Path-7-Copy-2-decoration-1" d="M177.2,33 L188,30 L177.2,27" stroke="#8C919C" stroke-linecap="round" stroke-linejoin="round"></path>
                <path d="M304,30 L379,30" id="Path-7-Copy-2" stroke="#8C919C" stroke-linecap="round" stroke-linejoin="round"></path>
                <path id="Path-7-Copy-2-decoration-1" d="M368.2,33 L379,30 L368.2,27" stroke="#8C919C" stroke-linecap="round" stroke-linejoin="round"></path>
                <g id="Group-7" transform="translate(190.000000, 270.000000)">
                    <rect id="Rectangle-61-Copy" stroke="#000000" stroke-width="2" fill="#FFFFFF" x="0" y="0" width="160" height="60" rx="4"></rect>
                    <text id="User-as-a-Member" font-family="Roboto-Regular, Roboto" font-size="14" font-weight="normal" fill="#4C4F58">
                        <tspan x="24.3212891" y="27">Service Activation </tspan>
                        <tspan x="65.1796875" y="43">Flow</tspan>
                    </text>
                </g>
                <g id="Group-10" transform="translate(190.000000, 355.000000)">
                    <path d="M0,4.0065556 C0,1.79379604 1.796875,3.63691454e-14 3.99499651,3.63691454e-14 L156.005003,3.63691454e-14 C158.211379,3.63691454e-14 160,1.79568082 160,4.0065556 L160,55.9934444 C160,58.206204 158.203125,60 156.005003,60 L3.99499651,60 C1.78862086,60 0,58.2043192 0,55.9934444 L0,4.0065556 Z" id="Rectangle-61-Copy" stroke="#CBCED5" stroke-width="3" fill="#FFFFFF"></path>
                    <text id="User-as-a-Member" font-family="Roboto-Regular, Roboto" font-size="14" font-weight="normal" fill="#4C4F58">
                        <tspan x="15.8754883" y="27">Start Complimentary </tspan>
                        <tspan x="57.3081055" y="43">Service</tspan>
                    </text>
                </g>
                <g id="Group-5">
                    <path d="M0,4.0065556 C0,1.79379604 1.796875,3.63691454e-14 3.99499651,3.63691454e-14 L156.005003,3.63691454e-14 C158.211379,3.63691454e-14 160,1.79568082 160,4.0065556 L160,55.9934444 C160,58.206204 158.203125,60 156.005003,60 L3.99499651,60 C1.78862086,60 0,58.2043192 0,55.9934444 L0,4.0065556 Z" id="Rectangle-61-Copy" stroke="#CBCED5" stroke-width="3" fill="#FFFFFF"></path>
                    <text id="User-as-a-Member" font-family="Roboto-Regular, Roboto" font-size="14" font-weight="normal" fill="#4C4F58">
                        <tspan x="27.2094727" y="27">User Aquires PIN </tspan>
                        <tspan x="22.9541016" y="43">Code and Address</tspan>
                    </text>
                </g>
                <g id="Group-5-Copy" transform="translate(190.000000, 0.000000)">
                    <rect id="Rectangle-61-Copy" stroke="#000000" stroke-width="2" fill="#FFFFFF" x="0" y="0" width="160" height="60" rx="4"></rect>
                    <text id="User-as-a-Member" font-family="Roboto-Regular, Roboto" font-size="14" font-weight="normal" fill="#4C4F58">
                        <tspan x="28.2519531" y="27">Customer Join &amp; </tspan>
                        <tspan x="43.2226562" y="43">Log In Page</tspan>
                    </text>
                </g>
                <g id="Group-5-Copy-2" transform="translate(380.000000, 0.000000)">
                    <rect id="Rectangle-61-Copy" fill="#FFFFFF" x="0" y="0" width="160" height="60" rx="4"></rect>
                    <text id="User-as-a-Member" font-family="Roboto-Regular, Roboto" font-size="14" font-weight="normal" fill="#4C4F58">
                        <tspan x="41.2470703" y="36">User Logs In</tspan>
                    </text>
                </g>
                <g id="Group" transform="translate(190.000000, 85.000000)">
                    <rect id="Rectangle-61-Copy" fill="#FFFFFF" x="0" y="0" width="160" height="60" rx="4"></rect>
                    <text id="User-as-a-Member" font-family="Roboto-Regular, Roboto" font-size="14" font-weight="normal" fill="#4C4F58">
                        <tspan x="10.6801758" y="19">If the PIN Matches the </tspan>
                        <tspan x="29.3081055" y="35">Address and the </tspan>
                        <tspan x="50.4550781" y="51">Database</tspan>
                    </text>
                </g>
                <path d="M550,132.301547 L550,173" id="Path-3-Copy-2" stroke="#8C919C" stroke-linecap="round" stroke-linejoin="round"></path>
                <path id="Path-3-Copy-2-decoration-1" d="M547,162.2 L550,173 L553,162.2" stroke="#8C919C" stroke-linecap="round" stroke-linejoin="round"></path>
                <path d="M460,312.301547 L460,353" id="Path-3-Copy-2" stroke="#8C919C" stroke-linecap="round" stroke-linejoin="round"></path>
                <path id="Path-3-Copy-2-decoration-1" d="M457,342.2 L460,353 L463,342.2" stroke="#8C919C" stroke-linecap="round" stroke-linejoin="round"></path>
                <path d="M460,396.301547 L460,437" id="Path-3-Copy-2" stroke="#8C919C" stroke-linecap="round" stroke-linejoin="round"></path>
                <path id="Path-3-Copy-2-decoration-1" d="M457,426.2 L460,437 L463,426.2" stroke="#8C919C" stroke-linecap="round" stroke-linejoin="round"></path>
                <g id="Group-6" transform="translate(470.000000, 175.000000)">
                    <path d="M0,4.0065556 C0,1.79379604 1.796875,3.63691454e-14 3.99499651,3.63691454e-14 L156.005003,3.63691454e-14 C158.211379,3.63691454e-14 160,1.79568082 160,4.0065556 L160,55.9934444 C160,58.206204 158.203125,60 156.005003,60 L3.99499651,60 C1.78862086,60 0,58.2043192 0,55.9934444 L0,4.0065556 Z" id="Rectangle-61-Copy" stroke="#CBCED5" stroke-width="3" fill="#FFFFFF"></path>
                    <text id="User-as-a-Member" font-family="Roboto-Regular, Roboto" font-size="14" font-weight="normal" fill="#4C4F58">
                        <tspan x="15.2397461" y="35">Suggest Registration</tspan>
                    </text>
                </g>
                <g id="Group-6-Copy-2" transform="translate(380.000000, 270.000000)">
                    <path d="M0,4.0065556 C0,1.79379604 1.796875,3.63691454e-14 3.99499651,3.63691454e-14 L156.005003,3.63691454e-14 C158.211379,3.63691454e-14 160,1.79568082 160,4.0065556 L160,55.9934444 C160,58.206204 158.203125,60 156.005003,60 L3.99499651,60 C1.78862086,60 0,58.2043192 0,55.9934444 L0,4.0065556 Z" id="Rectangle-61-Copy" stroke="#CBCED5" stroke-width="3" fill="#FFFFFF"></path>
                    <text id="User-as-a-Member" font-family="Roboto-Regular, Roboto" font-size="14" font-weight="normal" fill="#4C4F58">
                        <tspan x="36.8754883" y="27">Settings Page </tspan>
                        <tspan x="26.8369141" y="43">Payment Method</tspan>
                    </text>
                </g>
                <g id="Group-6-Copy-2" transform="translate(380.000000, 440.000000)">
                    <path d="M0,4.0065556 C0,1.79379604 1.796875,3.63691454e-14 3.99499651,3.63691454e-14 L156.005003,3.63691454e-14 C158.211379,3.63691454e-14 160,1.79568082 160,4.0065556 L160,55.9934444 C160,58.206204 158.203125,60 156.005003,60 L3.99499651,60 C1.78862086,60 0,58.2043192 0,55.9934444 L0,4.0065556 Z" id="Rectangle-61-Copy" stroke="#CBCED5" stroke-width="3" fill="#FFFFFF"></path>
                    <text id="User-as-a-Member" font-family="Roboto-Regular, Roboto" font-size="14" font-weight="normal" fill="#4C4F58">
                        <tspan x="25.7568359" y="27">Notify the Update </tspan>
                        <tspan x="36.8037109" y="43">through Email</tspan>
                    </text>
                </g>
                <g id="Group-6-Copy-2" transform="translate(560.000000, 270.000000)">
                    <path d="M0,4.0065556 C0,1.79379604 1.796875,3.63691454e-14 3.99499651,3.63691454e-14 L156.005003,3.63691454e-14 C158.211379,3.63691454e-14 160,1.79568082 160,4.0065556 L160,55.9934444 C160,58.206204 158.203125,60 156.005003,60 L3.99499651,60 C1.78862086,60 0,58.2043192 0,55.9934444 L0,4.0065556 Z" id="Rectangle-61-Copy" stroke="#CBCED5" stroke-width="3" fill="#FFFFFF"></path>
                    <text id="User-as-a-Member" font-family="Roboto-Regular, Roboto" font-size="14" font-weight="normal" fill="#4C4F58">
                        <tspan x="13.8041992" y="27">Notify Termination of </tspan>
                        <tspan x="45.7246094" y="43">the Service</tspan>
                    </text>
                </g>
                <g id="Group-7-Copy" transform="translate(380.000000, 355.000000)">
                    <rect id="Rectangle-61-Copy" fill="#FFFFFF" x="0" y="0" width="160" height="60" rx="4"></rect>
                    <text id="User-as-a-Member" font-family="Roboto-Regular, Roboto" font-size="14" font-weight="normal" fill="#4C4F58">
                        <tspan x="32.1484375" y="27">If User Updates </tspan>
                        <tspan x="26.8369141" y="43">Payment Method</tspan>
                    </text>
                </g>
                <g id="block-copy" transform="translate(470.000000, 85.000000)">
                    <rect id="Rectangle-61-Copy" fill="#FFFFFF" x="0" y="0" width="160" height="60" rx="4"></rect>
                    <text id="User-as-a-Member" font-family="Roboto-Regular, Roboto" font-size="14" font-weight="normal" fill="#4C4F58">
                        <tspan x="18.418457" y="27">If Service Expiration </tspan>
                        <tspan x="34.3735352" y="43">Date Comes In</tspan>
                    </text>
                </g>
                <path d="M348.222656,384.9375 L362.460128,384.9375 L362.460128,89.1272283 L405.820517,45.7668388" id="Path-130" stroke="#8C919C" stroke-linecap="round" stroke-linejoin="round"></path>
                <path id="Path-130-decoration-1" d="M400.305084,55.5249124 L405.820517,45.7668388 L396.062444,51.2822717" stroke="#8C919C" stroke-linecap="round" stroke-linejoin="round"></path>
                <path d="M519.800781,34.3945312 L549.221095,63.8148453 L549.221095,89.9012746" id="Path-130" stroke="#8C919C" stroke-linecap="round" stroke-linejoin="round"></path>
                <path id="Path-130-decoration-1" d="M546.221095,79.1012746 L549.221095,89.9012746 L552.221095,79.1012746" stroke="#8C919C" stroke-linecap="round" stroke-linejoin="round"></path>
            </g>
        </g>
    </g>
</svg>