<?xml version="1.0" encoding="utf-8"?>
<!-- Generator: Adobe Illustrator 16.0.0, SVG Export Plug-In . SVG Version: 6.00 Build 0)  -->
<!DOCTYPE svg PUBLIC "-//W3C//DTD SVG 1.1//EN" "http://www.w3.org/Graphics/SVG/1.1/DTD/svg11.dtd">
<svg version="1.1" id="Layer_1" xmlns="http://www.w3.org/2000/svg" xmlns:xlink="http://www.w3.org/1999/xlink" x="0px" y="0px"
	 width="900px" height="146.4px" viewBox="0 226.5 900 146.4" enable-background="new 0 226.5 900 146.4" xml:space="preserve">
<g>
	<g>
		<path fill="#FFFFFF" d="M178.8,257.1h6.3v84.6h-6.3V257.1z"/>
		<path fill="#FFFFFF" d="M196.5,311.1L196.5,311.1c0-20.399,15-32.399,30-32.399c12.3,0,20.4,6.9,25.5,14.7v-39.9h6v88.2h-6v-13.8
			c-5.4,8.1-13.2,15.3-25.5,15.3C211.5,343.2,196.5,331.2,196.5,311.1z M252,311.1L252,311.1c0-16.2-12.3-26.7-25.2-26.7
			c-13.5,0-24.3,9.9-24.3,26.4v0.3c0,16.2,11.1,26.7,24.3,26.7C239.7,337.5,252,326.7,252,311.1z"/>
		<path fill="#FFFFFF" d="M270,311.1L270,311.1c0-18,12.6-32.399,29.1-32.399c17.4,0,28.2,14.1,28.2,32.399c0,1.2,0,1.5,0,2.4h-51
			c1.2,15.3,12,24.3,24.3,24.3c9.6,0,16.2-4.2,21-9.6l4.2,3.6c-6.3,6.9-13.8,11.7-25.5,11.7C283.8,343.2,270,330.3,270,311.1z
			 M321,307.8c-0.9-12.3-8.1-24-22.2-24c-12.3,0-21.6,10.2-22.8,24H321z"/>
		<path fill="#FFFFFF" d="M338.7,279.9h6v11.4c4.2-7.2,11.1-12.9,22.2-12.9c15.6,0,24.6,10.5,24.6,25.5v37.8h-6V305.1
			c0-12.6-7.2-21-19.5-21c-12,0-21.3,9.3-21.3,21.9v35.7h-6V279.9z"/>
		<path fill="#FFFFFF" d="M409.8,325.8v-40.2h-9v-5.4h9v-19.8h6v19.8H437.4v5.4H415.8v39.6c0,8.7,5.101,12,12.3,12
			c3,0,5.7-0.601,9-2.101v5.4c-3,1.5-6.3,2.1-9.899,2.1C417.6,342.6,409.8,337.5,409.8,325.8z"/>
		<path fill="#FFFFFF" d="M447.3,255.9h7.5v8.1h-7.5V255.9z M448.2,279.9h6v61.5h-6V279.9z"/>
		<path fill="#FFFFFF" d="M474.6,325.8v-40.2h-9v-5.4h9v-19.8h6v19.8H502.2v5.4H480.6v39.6c0,8.7,5.101,12,12.301,12
			c3,0,5.699-0.601,9-2.101v5.4c-3,1.5-6.301,2.1-9.9,2.1C482.4,342.6,474.6,337.5,474.6,325.8z"/>
		<path fill="#FFFFFF" d="M510.6,358.8l2.101-5.1c3.3,1.5,6,2.399,10.5,2.399c6.3,0,10.5-3.6,15.3-14.399l-29.7-61.2h6.9l25.5,55.2
			l22.2-55.2h6.6l-26.7,63.9C537.9,357.3,531.6,361.8,522.9,361.8C518.1,361.2,514.5,360.6,510.6,358.8z"/>
		<path fill="#FFFFFF" d="M576,329.4l4.2-4.801c9.3,8.7,18,12.601,30.3,12.601c12.6,0,21.3-7.2,21.3-16.8V320.1c0-9-4.8-14.1-24-18
			c-20.399-4.2-28.5-11.1-28.5-23.7v-0.3c0-12.6,11.4-22.2,27.3-22.2c12.301,0,20.4,3.3,29.101,10.2l-3.9,5.1
			c-8.1-6.9-15.899-9.6-25.2-9.6c-12.3,0-20.699,7.2-20.699,15.9v0.3c0,9,4.5,14.4,24.6,18.6c19.5,3.9,27.9,11.1,27.9,23.4v0.3
			c0,13.801-11.7,23.101-27.9,23.101C596.7,342.9,586.2,338.4,576,329.4z"/>
		<path fill="#FFFFFF" d="M649.8,279.9h6V291c3.9-6.3,9.601-12.3,20.4-12.3s17.399,6.3,20.7,13.2c3.899-6.9,10.5-13.2,22.199-13.2
			c14.7,0,23.7,10.2,23.7,25.8v37.2h-6V305.1c0-13.2-6.899-21-18.3-21c-10.5,0-19.5,8.1-19.5,21.6v36h-6v-36.9
			c0-12.9-6.9-20.7-18-20.7s-19.8,9.6-19.8,22.2v35.4h-6v-61.8H649.8z"/>
		<path fill="#FFFFFF" d="M753.6,323.7L753.6,323.7c0-12.9,11.101-20.4,27-20.4c8.7,0,14.4,1.2,20.4,2.7v-2.7
			c0-12.3-7.5-18.9-20.4-18.9c-7.5,0-13.8,2.1-19.199,5.1l-2.101-5.1c6.9-3,13.5-5.4,21.9-5.4c8.399,0,15,2.4,19.5,6.9
			c4.2,4.2,6.3,9.9,6.3,17.4v38.4h-6v-10.2c-4.2,6-11.7,11.7-23.7,11.7C765.9,343.2,753.6,336.6,753.6,323.7z M801.3,318.6V311.7
			c-5.1-1.2-12-2.7-21-2.7c-12.899,0-20.399,5.7-20.399,14.4v0.3c0,9,8.399,14.1,18,14.1C790.5,337.5,801.3,329.7,801.3,318.6z"/>
		<path fill="#FFFFFF" d="M822,279.9h6v17.4c4.8-11.1,15-18.9,27.3-18.6v6.6h-0.6c-14.4,0-26.7,10.8-26.7,30.9v25.2h-6V279.9z"/>
		<path fill="#FFFFFF" d="M872.4,325.8v-40.2h-9v-5.4h9v-19.8h6v19.8H900v5.4h-21.6v39.6c0,8.7,5.1,12,12.3,12
			c3,0,5.7-0.601,9-2.101v5.4c-3,1.5-6.3,2.1-9.9,2.1C880.2,342.6,872.4,337.5,872.4,325.8z"/>
	</g>
	<g>
		<path fill="#F15F22" d="M60.6,226.5C55.8,228,0,246.9,0,284.4c0,68.4,55.8,87,60.6,88.5c5.1-1.5,60.6-20.101,60.6-88.5
			C121.5,246.9,65.7,228,60.6,226.5z"/>
		<path fill="#FCAF17" d="M60.6,292.5c0,0,24.9,18.6,54.6,27.9c3.6-10.2,6-21.9,6-36c0-7.8-2.4-14.4-6-20.7
			C94.8,266.7,74.7,274.8,60.6,292.5z"/>
		<path fill="#F7941E" d="M100.5,345.9c7.8-9.301,14.7-21.301,18.3-37.2c-27.9,0.3-58.2-16.2-58.2-16.2
			C67.2,321.6,83.1,337.5,100.5,345.9z"/>
		<path fill="#F47C20" d="M107.7,336c-7.2,11.7-16.5,19.8-24.6,25.8c-13.2-17.1-22.5-39.6-22.5-69C60.6,292.5,75.3,328.5,107.7,336z
			"/>
		<path fill="#F7941E" d="M120.6,276.3c-3.3-14.4-14.7-25.5-26.7-33.6c-14.7,9-27.6,24.3-33,49.8C60.6,292.5,92.1,275.1,120.6,276.3
			z"/>
		<path fill="#F47C20" d="M60.6,292.5c0,0,13.5-33,42.9-42.3c-8.7-7.5-18.9-13.2-27-17.4C66.9,248.7,60.6,268.2,60.6,292.5z"/>
		<path fill="#FCAF17" d="M6,263.7c-3.9,6-6,12.9-6,20.7c0,13.8,2.4,25.8,6,36c29.7-9.301,54.6-27.9,54.6-27.9
			C46.5,274.8,26.4,266.7,6,263.7z"/>
		<path fill="#F7941E" d="M60.6,292.5c0,0-30,16.5-57.9,16.2C6.3,324.3,13.2,336.6,21,345.9C38.1,337.5,54.3,321.6,60.6,292.5z"/>
		<path fill="#F47C20" d="M13.8,336c7.2,11.4,16.2,19.8,24.6,25.5c13.2-17.1,22.5-39.6,22.5-69C60.6,292.5,46.2,328.5,13.8,336z"/>
		<path fill="#F7941E" d="M60.6,292.5c-5.4-25.5-18.6-40.8-33-49.8c-12,8.1-23.4,19.2-26.7,33.6C29.4,275.1,60.6,292.5,60.6,292.5z"
			/>
		<path fill="#F47C20" d="M45,232.8c-8.4,3.9-18.6,9.6-27,17.4c29.4,9.3,42.6,42.3,42.6,42.3C60.6,268.2,54.6,248.7,45,232.8z"/>
	</g>
	<path fill="#F15F22" d="M93.6,277.8L93.6,277.8c-3-8.4-10.5-13.8-18-12.6c-2.4,0.3-4.5,1.5-6.6,3c-2.1,1.8-5.1,2.7-8.4,2.7
		c-3.3,0-6.3-1.2-8.4-2.7c-1.8-1.5-4.2-2.4-6.6-3c-7.5-1.2-15,4.2-18,12.6l0,0c-1.5,4.5-2.4,9.6-2.4,14.7c0,3.9,0.6,7.8,1.5,11.4
		l0,0c2.7,11.399,7.5,21.6,13.2,29.699l0,0c2.1,2.7,4.2,5.101,6,6.9c0,0,0,0,0,0.3l0,0c3,2.7,6,5.101,9,6.9c0,0,0.3,0,0.3,0.3l0,0
		c0.6,0.3,1.2,0.6,1.8,0.9l0,0c0.9,0.6,2.1,0.899,3.3,0.899l0,0l0,0c1.2,0,2.4-0.3,3.3-0.899l0,0c0.6-0.301,1.2-0.601,1.8-0.9l0,0
		c0,0,0.3,0,0.3-0.3c3-1.8,6.3-4.2,9-6.9l0,0c0,0,0,0,0-0.3c1.8-1.8,3.9-4.2,6-6.9l0,0c6-8.1,10.5-18,13.2-29.699l0,0
		c0.9-3.601,1.5-7.5,1.5-11.4C96,287.1,95.1,282.3,93.6,277.8z"/>
	<g>
		<path fill="#FFFFFF" d="M75,338.4L75,338.4c0.3,0.3,0.6,0.6,0.6,1.199c0,0.301-0.3,0.9-0.6,0.9l0,0c-3.6,3.3-7.2,6-11.1,8.1l0,0
			c-0.9,0.601-1.8,0.9-3.3,0.9c-1.2,0-2.4-0.3-3.3-0.9l0,0c-3.9-1.8-7.5-4.8-11.1-8.1l0,0c-0.3-0.3-0.6-0.6-0.6-0.9
			c0-0.6,0.3-0.899,0.6-1.199l0,0c3.3-3,8.4-4.801,14.4-4.801S71.7,335.4,75,338.4z"/>
		<path fill="#FFFFFF" d="M96,292.5c0,3.9-0.6,7.8-1.5,11.4l0,0C91.8,315.3,87,325.5,81.3,333.6l0,0c-0.6,0.601-1.5,1.2-2.4,1.2
			c-0.6,0-1.2-0.3-1.8-0.6l0,0c-3.3-2.101-7.5-3.3-12-3.9l0,0c-1.2-0.3-2.4-1.2-2.4-2.1c0-3,1.2-5.7,2.7-7.5l0,0
			c1.8-1.8,3.3-3.601,4.5-5.4l0,0c0.3-0.3,0.3-0.6,0.3-0.899c0-0.9-0.9-1.801-2.1-2.101c-2.4-0.6-5.1-0.899-7.8-0.899
			c-2.7,0-5.4,0.3-7.8,0.899c-1.2,0.3-2.1,1.2-2.1,2.101c0,0.3,0,0.6,0.3,0.899l0,0c1.5,1.8,3,3.601,4.5,5.4l0,0
			c1.8,1.8,2.7,4.5,2.7,7.5c0,1.2-0.9,2.1-2.4,2.1l0,0c-4.5,0.601-8.7,1.8-12,3.9l0,0c-0.6,0.3-1.2,0.6-1.8,0.6
			c-1.2,0-2.1-0.6-2.4-1.2l0,0c-6-8.1-10.5-18-13.2-29.699l0,0c-0.9-3.601-1.5-7.5-1.5-11.4c0-5.4,0.9-10.2,2.4-14.7l0,0
			c3-8.4,10.5-13.8,18-12.6c2.4,0.3,4.5,1.5,6.6,3c2.1,1.8,5.1,2.7,8.4,2.7s6.3-1.2,8.4-2.7c1.8-1.5,4.2-2.4,6.6-3
			c7.5-1.2,15,4.2,18,12.6l0,0C95.1,282.3,96,287.1,96,292.5z M50.4,291c-0.6-2.1-1.5-3.9-3-5.7c-0.6-0.9-1.5-1.5-2.1-2.4l0,0
			c-0.3-0.3-0.6-0.3-0.9-0.6c-0.3,0-0.3,0-0.6,0l0,0c-2.4,0.3-5.1,0.9-7.5,2.4c-0.3,0.3-0.9,0.3-1.2,0.6l0,0l-0.3,0.3
			c0,0.3,0,0.3,0.3,0.6c4.2,3.3,8.7,5.7,13.2,7.5c0.6,0.3,1.5,0.3,2.1,0C50.7,293.1,50.7,291.9,50.4,291z M87,285.6
			c0,0,0-0.3-0.3-0.3l0,0c-0.3-0.3-0.9-0.6-1.2-0.6c-2.4-1.2-5.1-2.1-7.5-2.4l0,0c-0.3,0-0.3,0-0.6,0c-0.3,0-0.9,0.3-0.9,0.6l0,0
			c-0.9,0.6-1.5,1.5-2.1,2.4c-1.5,1.8-2.4,3.6-3,5.7l0,0c-0.3,0.9-0.3,2.1,0.3,2.4c0.6,0.3,1.2,0.3,2.1,0c4.5-1.8,9-4.2,13.2-7.5
			C86.7,286.2,87,285.9,87,285.6z"/>
	</g>
</g>
</svg>
